mtllib base_link_inertia_collisions_base_node_STL_BINARY__mesh.mtl
v -0.05369896069169054 -0.05313942953944213 -1.9566021691730384e-08
v 0.008288047276437296 -0.07508320361375818 -9.570882042453377e-08
v -0.0028878990560770087 -0.0755084678530694 -6.815113096081404e-08
v 0.008288047276437296 -0.07508320361375818 -9.570882042453377e-08
v -0.02758287079632287 0.07028006762266169 -3.0720397337091754e-09
v 0.011252504773437998 0.07465577125549326 -3.263306957990153e-09
v -0.02758287079632287 0.07028006762266169 -3.0720397337091754e-09
v 0.008288047276437296 -0.07508320361375818 -9.570882042453377e-08
v -0.059027530252933606 0.04707283899188048 -2.057620074324973e-09
v -0.059027530252933606 0.04707283899188048 -2.057620074324973e-09
v 0.008288047276437296 -0.07508320361375818 -9.570882042453377e-08
v -0.07425349950790419 0.014016831293702145 -6.146414932572952e-09
v -0.07425349950790419 0.014016831293702145 -6.146414932572952e-09
v 0.008288047276437296 -0.07508320361375818 -9.570882042453377e-08
v -0.05369896069169054 -0.05313942953944213 -1.9566021691730384e-08
v -0.04020240530371673 -0.06394431740045556 -2.1304000785704602e-09
v -0.05369896069169054 -0.05313942953944213 -1.9566021691730384e-08
v -0.0028878990560770087 -0.0755084678530694 -6.815113096081404e-08
v 0.044452562928199844 0.06108541786670693 -2.5837227912717253e-09
v 0.059027485549450025 0.04707289114594466 -2.0576202963695778e-09
v 0.008288047276437296 -0.07508320361375818 -9.570882042453377e-08
v 0.008288047276437296 -0.07508320361375818 -9.570882042453377e-08
v 0.07501850277185454 -0.008923535235226166 -1.4736091458189549e-08
v 0.06238023564219486 -0.04253005981445318 1.8590491368541961e-09
v 0.06238023564219486 -0.04253005981445318 1.8590491368541961e-09
v 0.07501850277185454 -0.008923535235226166 -1.4736091458189549e-08
v 0.07028005272150052 -0.027582863345742264 1.2056864395759703e-09
v 0.03532414510846144 -0.06680251657962807 -3.187072383781242e-09
v 0.008288047276437296 -0.07508320361375818 -9.570882042453377e-08
v 0.051352404057979674 -0.055344671010971146 2.4191932901374003e-09
v -0.07425349950790419 0.014016831293702145 -6.146414932572952e-09
v -0.0680222809314729 0.032757777720689815 -1.431930130024739e-09
v -0.059027530252933606 0.04707283899188048 -2.057620074324973e-09
v -0.04707286879420289 -0.05902750417590149 2.5801731862173938e-09
v -0.05369896069169054 -0.05313942953944213 -1.9566021691730384e-08
v -0.04020240530371673 -0.06394431740045556 -2.1304000785704602e-09
v -0.07425349950790419 0.014016831293702145 -6.146414932572952e-09
v -0.07528790086507811 -0.00564207788556815 2.466217785546121e-10
v -0.07547873258590712 0.0028458056040108243 4.1374428327856094e-09
v -0.07528790086507811 -0.00564207788556815 2.466217785546121e-10
v -0.07425349950790419 0.014016831293702145 -6.146414932572952e-09
v -0.05369896069169054 -0.05313942953944213 -1.9566021691730384e-08
v 0.06925325840711606 0.030238777399063152 -4.470281922408503e-09
v 0.008288047276437296 -0.07508320361375818 -9.570882042453377e-08
v 0.059027485549450025 0.04707289114594466 -2.0576202963695778e-09
v 0.06925325840711606 0.030238777399063152 -4.470281922408503e-09
v 0.07501850277185454 -0.008923535235226166 -1.4736091458189549e-08
v 0.008288047276437296 -0.07508320361375818 -9.570882042453377e-08
v 0.059027485549450025 0.04707289114594466 -2.0576202963695778e-09
v 0.06395012885332119 0.04019120335578924 -8.66916816111285e-10
v 0.06925325840711606 0.030238777399063152 -4.470281922408503e-09
v 0.07295472174882901 -0.019560663029551534 7.363017751060852e-09
v 0.07028005272150052 -0.027582863345742264 1.2056864395759703e-09
v 0.07501850277185454 -0.008923535235226166 -1.4736091458189549e-08
v 0.07429470866918578 -0.013467332348227518 0.017790021374821663
v 0.07295472174882901 -0.019560663029551534 7.363017751060852e-09
v 0.07501850277185454 -0.008923535235226166 -1.4736091458189549e-08
v 0.027582863345742274 0.0702800527215005 -3.072038401441546e-09
v 0.008288047276437296 -0.07508320361375818 -9.570882042453377e-08
v 0.011252504773437998 0.07465577125549326 -3.263306957990153e-09
v 0.027582863345742274 0.0702800527215005 -3.072038401441546e-09
v 0.044452562928199844 0.06108541786670693 -2.5837227912717253e-09
v 0.008288047276437296 -0.07508320361375818 -9.570882042453377e-08
v 0.051352404057979674 -0.055344671010971146 2.4191932901374003e-09
v 0.008288047276437296 -0.07508320361375818 -9.570882042453377e-08
v 0.057255309075117215 -0.04926235601305968 3.026449979515178e-09
v 0.008288047276437296 -0.07508320361375818 -9.570882042453377e-08
v 0.06238023564219486 -0.04253005981445318 1.8590491368541961e-09
v 0.057255309075117215 -0.04926235601305968 3.026449979515178e-09
v 0.06677168607711804 -0.03530713543295865 2.413688271474257e-08
v 0.07028005272150052 -0.027582863345742264 1.2056864395759703e-09
v 0.06938935071229947 -0.029714314267039337 0.018052514642477036
v 0.06677168607711804 -0.03530713543295865 2.413688271474257e-08
v 0.06238023564219486 -0.04253005981445318 1.8590491368541961e-09
v 0.07028005272150052 -0.027582863345742264 1.2056864395759703e-09
v -0.02758287079632287 0.07028006762266169 -3.0720397337091754e-09
v -0.008517430163919941 0.075085110962391 -1.218577461159498e-09
v 0.011252504773437998 0.07465577125549326 -3.263306957990153e-09
v -0.04487238079309471 0.06080275401473054 3.123648006919666e-09
v -0.02758287079632287 0.07028006762266169 -3.0720397337091754e-09
v -0.059027530252933606 0.04707283899188048 -2.057620074324973e-09
v -0.07128653675317777 0.024967344477772747 3.167962780992184e-09
v -0.0680222809314729 0.032757777720689815 -1.431930130024739e-09
v -0.07425349950790419 0.014016831293702145 -6.146414932572952e-09
v 0.06490617245435726 -0.037473559379577685 0.021342115476727486
v 0.051349613815546126 -0.02695032581686977 0.09909871220588684
v 0.04772671312093743 -0.0329433418810368 0.09909871220588684
v 0.06490617245435726 -0.037473559379577685 0.021342115476727486
v 0.04772671312093743 -0.0329433418810368 0.09909871220588684
v 0.059953354299068555 -0.04487814009189612 0.021868571639060974
v -0.04433162510395058 -0.06111877411603936 0.017855200916528702
v -0.04707286879420289 -0.05902750417590149 2.5801731862173938e-09
v -0.04020240530371673 -0.06394431740045556 -2.1304000785704602e-09
v -0.05756944045424472 -0.0069902134127915 0.09909871220588684
v -0.07459990680217757 -0.0062157409265637485 0.02187209203839302
v -0.07356602698564542 -0.013799358159303684 0.02212175913155079
v -0.07275442779064191 -0.020192405208945302 0.01780291646718979
v -0.07146347314119351 -0.022068120539188413 0.02208084426820278
v -0.07356602698564542 -0.013799358159303684 0.02212175913155079
v -0.0739746838808061 0.01128547545522453 0.021928245201706886
v -0.0746087804436685 0.005489847622811801 0.02200370468199253
v -0.057569447904825315 0.00699017709121109 0.09909871220588684
v -0.0674167722463609 -0.03228168934583668 0.022252462804317474
v -0.06351602077484142 -0.03973497077822691 0.021741321310400963
v -0.051349591463804335 -0.026950364932417904 0.09909871220588684
v -0.06657351553440106 -0.035714950412511874 1.3852881508569226e-08
v -0.07132314145565045 -0.024971660226583516 1.4461194020043422e-08
v -0.05369896069169054 -0.05313942953944213 -1.9566021691730384e-08
v -0.07421897351741805 -0.014023155905306358 7.865256002048682e-09
v -0.05369896069169054 -0.05313942953944213 -1.9566021691730384e-08
v -0.07132314145565045 -0.024971660226583516 1.4461194020043422e-08
v -0.07421897351741805 -0.014023155905306358 7.865256002048682e-09
v -0.07528790086507811 -0.00564207788556815 2.466217785546121e-10
v -0.05369896069169054 -0.05313942953944213 -1.9566021691730384e-08
v -0.07421897351741805 -0.014023155905306358 7.865256002048682e-09
v -0.07132314145565045 -0.024971660226583516 1.4461194020043422e-08
v -0.07275442779064191 -0.020192405208945302 0.01780291646718979
v 0.00888497661799194 -0.07497850060462961 0.017901606857776642
v 0.013601925224065805 -0.07359663397073755 0.02206164225935936
v 0.005696143954992305 -0.07461945712566385 0.021906718611717224
v 0.05308909341692934 0.05375045537948615 1.1063783666998006e-08
v 0.059027485549450025 0.04707289114594466 -2.0576202963695778e-09
v 0.044452562928199844 0.06108541786670693 -2.5837227912717253e-09
v -0.05630712211132059 0.013878442347049732 0.09909871220588684
v -0.0739746838808061 0.01128547545522453 0.021928245201706886
v -0.057569447904825315 0.00699017709121109 0.09909871220588684
v 0.07296095788478864 0.01953735202550891 5.6492384103989934e-09
v 0.06925325840711606 0.030238777399063152 -4.470281922408503e-09
v 0.07105179131031049 0.025543339550495182 0.01786176487803459
v 0.07501850277185454 -0.008923535235226166 -1.4736091458189549e-08
v 0.07296095788478864 0.01953735202550891 5.6492384103989934e-09
v 0.07549902051687254 -2.74272604627868e-08 2.484016020898013e-15
v 0.06925325840711606 0.030238777399063152 -4.470281922408503e-09
v 0.07296095788478864 0.01953735202550891 5.6492384103989934e-09
v 0.07501850277185454 -0.008923535235226166 -1.4736091458189549e-08
v 0.0028523229993879847 0.07547910511493693 8.485878666419922e-09
v 0.011252504773437998 0.07465577125549326 -3.263306957990153e-09
v -0.008517430163919941 0.075085110962391 -1.218577461159498e-09
v -0.019528072327375447 0.07296433299779902 1.0762415403320347e-09
v -0.008517430163919941 0.075085110962391 -1.218577461159498e-09
v -0.02758287079632287 0.07028006762266169 -3.0720397337091754e-09
v -0.019096514210104977 0.07240394502878199 0.021906234323978424
v -0.029700202867388777 0.06869477033615122 0.022075220942497253
v -0.02056436240673069 0.05422370135784156 0.09909871220588684
v -0.029700202867388777 0.06869477033615122 0.022075220942497253
v -0.026950370520353366 0.05134959518909461 0.09909871220588684
v -0.02056436240673069 0.05422370135784156 0.09909871220588684
v -0.035276595503091875 0.06678822636604317 4.3338888033872536e-09
v -0.02758287079632287 0.07028006762266169 -3.0720397337091754e-09
v -0.04487238079309471 0.06080275401473054 3.123648006919666e-09
v 0.045234531164169395 -0.06051011383533486 1.4086476873842457e-08
v 0.03532414510846144 -0.06680251657962807 -3.187072383781242e-09
v 0.051352404057979674 -0.055344671010971146 2.4191932901374003e-09
v 0.045234531164169395 -0.06051011383533486 1.4086476873842457e-08
v 0.04261255264282234 -0.062276102602481925 0.017783401533961296
v 0.03532414510846144 -0.06680251657962807 -3.187072383781242e-09
v 0.037473611533641885 -0.06490614265203484 0.021342117339372635
v 0.026950370520353366 -0.051349587738514016 0.09909871220588684
v 0.03217273950576788 -0.06748073548078545 0.022241894155740738
v 0.049538809806108565 -0.056953288614749985 0.01801123283803463
v 0.045234531164169395 -0.06051011383533486 1.4086476873842457e-08
v 0.051352404057979674 -0.055344671010971146 2.4191932901374003e-09
v 0.049538809806108565 -0.056953288614749985 0.01801123283803463
v 0.04261255264282234 -0.062276102602481925 0.017783401533961296
v 0.045234531164169395 -0.06051011383533486 1.4086476873842457e-08
v -0.07128653675317777 0.024967344477772747 3.167962780992184e-09
v -0.0702796131372453 0.02748569659888748 0.017748016864061356
v -0.0680222809314729 0.032757777720689815 -1.431930130024739e-09
v 0.04772671312093743 -0.0329433418810368 0.09909871220588684
v 0.04340785369277008 -0.03845595568418508 0.09909871220588684
v 0.059953354299068555 -0.04487814009189612 0.021868571639060974
v 0.06738276779651654 -0.032465171068906826 0.022100994363427162
v 0.06490617245435726 -0.037473559379577685 0.021342115476727486
v 0.06938935071229947 -0.029714314267039337 0.018052514642477036
v 0.06490617245435726 -0.037473559379577685 0.021342115476727486
v 0.06738276779651654 -0.032465171068906826 0.022100994363427162
v 0.051349613815546126 -0.02695032581686977 0.09909871220588684
v 0.06426914036273967 -0.0396197065711022 0.01791170798242092
v 0.06677168607711804 -0.03530713543295865 2.413688271474257e-08
v 0.06938935071229947 -0.029714314267039337 0.018052514642477036
v 0.06426914036273967 -0.0396197065711022 0.01791170798242092
v 0.06938935071229947 -0.029714314267039337 0.018052514642477036
v 0.06490617245435726 -0.037473559379577685 0.021342115476727486
v 0.06426914036273967 -0.0396197065711022 0.01791170798242092
v 0.06238023564219486 -0.04253005981445318 1.8590491368541961e-09
v 0.06677168607711804 -0.03530713543295865 2.413688271474257e-08
v 0.06426914036273967 -0.0396197065711022 0.01791170798242092
v 0.06490617245435726 -0.037473559379577685 0.021342115476727486
v 0.059953354299068555 -0.04487814009189612 0.021868571639060974
v -0.01403440441936257 -0.0742158368229867 -2.1227428703696205e-09
v -0.0028878990560770087 -0.0755084678530694 -6.815113096081404e-08
v -0.011157846078276653 -0.07463369518518458 0.017748061567544937
v -0.01403440441936257 -0.0742158368229867 -2.1227428703696205e-09
v -0.02225375361740593 -0.07214479148387919 3.1535485334188706e-09
v -0.0028878990560770087 -0.0755084678530694 -6.815113096081404e-08
v -0.03064857423305517 -0.06905125826597223 -4.807848785759461e-09
v -0.04020240530371673 -0.06394431740045556 -2.1304000785704602e-09
v -0.0028878990560770087 -0.0755084678530694 -6.815113096081404e-08
v -0.0028878990560770087 -0.0755084678530694 -6.815113096081404e-08
v -0.02225375361740593 -0.07214479148387919 3.1535485334188706e-09
v -0.03064857423305517 -0.06905125826597223 -4.807848785759461e-09
v 0.0003041014424525207 -0.0754864290356637 0.017705680802464485
v 0.00888497661799194 -0.07497850060462961 0.017901606857776642
v 0.005696143954992305 -0.07461945712566385 0.021906718611717224
v 0.0003041014424525207 -0.0754864290356637 0.017705680802464485
v -0.0028878990560770087 -0.0755084678530694 -6.815113096081404e-08
v 0.008288047276437296 -0.07508320361375818 -9.570882042453377e-08
v 0.0003041014424525207 -0.0754864290356637 0.017705680802464485
v 0.008288047276437296 -0.07508320361375818 -9.570882042453377e-08
v 0.00888497661799194 -0.07497850060462961 0.017901606857776642
v -0.05369896069169054 -0.05313942953944213 -1.9566021691730384e-08
v -0.04707286879420289 -0.05902750417590149 2.5801731862173938e-09
v -0.05126171186566362 -0.055379819124937134 0.017748020589351654
v -0.04433162510395058 -0.06111877411603936 0.017855200916528702
v -0.05126171186566362 -0.055379819124937134 0.017748020589351654
v -0.04707286879420289 -0.05902750417590149 2.5801731862173938e-09
v -0.05329872667789469 -0.05281054228544242 0.021141892299056053
v -0.056977111846208676 -0.04950618743896491 0.018044674769043922
v -0.05126171186566362 -0.055379819124937134 0.017748020589351654
v -0.05126171186566362 -0.055379819124937134 0.017748020589351654
v -0.056977111846208676 -0.04950618743896491 0.018044674769043922
v -0.05369896069169054 -0.05313942953944213 -1.9566021691730384e-08
v -0.05126171186566362 -0.055379819124937134 0.017748020589351654
v -0.04493622109293946 -0.059961222112178886 0.021689316257834435
v -0.05329872667789469 -0.05281054228544242 0.021141892299056053
v -0.05126171186566362 -0.055379819124937134 0.017748020589351654
v -0.04433162510395058 -0.06111877411603936 0.017855200916528702
v -0.04493622109293946 -0.059961222112178886 0.021689316257834435
v -0.013878437690436864 -0.056307118386030273 0.09909871220588684
v -0.022170744836330452 -0.0714300051331521 0.022088687866926193
v -0.014110545627772832 -0.07349643856287012 0.022135062143206596
v -0.005509959533810625 -0.0745977982878686 0.022048667073249817
v -0.014110545627772832 -0.07349643856287012 0.022135062143206596
v -0.011157846078276653 -0.07463369518518458 0.017748061567544937
v -0.056307114660739996 -0.013878477737307568 0.09909871220588684
v -0.07356602698564542 -0.013799358159303684 0.02212175913155079
v -0.07146347314119351 -0.022068120539188413 0.02208084426820278
v -0.056307114660739996 -0.013878477737307568 0.09909871220588684
v -0.05756944045424472 -0.0069902134127915 0.09909871220588684
v -0.07356602698564542 -0.013799358159303684 0.02212175913155079
v -0.057569447904825315 0.00699017709121109 0.09909871220588684
v -0.0746087804436685 0.005489847622811801 0.02200370468199253
v -0.057992257177829847 -1.8251276046044064e-08 0.09909871220588684
v -0.057992257177829847 -1.8251276046044064e-08 0.09909871220588684
v -0.0746087804436685 0.005489847622811801 0.02200370468199253
v -0.07482963800430312 7.264192390721301e-05 0.021934185177087784
v -0.07459990680217757 -0.0062157409265637485 0.02187209203839302
v -0.057992257177829847 -1.8251276046044064e-08 0.09909871220588684
v -0.07482963800430312 7.264192390721301e-05 0.021934185177087784
v -0.05756944045424472 -0.0069902134127915 0.09909871220588684
v -0.057992257177829847 -1.8251276046044064e-08 0.09909871220588684
v -0.07459990680217757 -0.0062157409265637485 0.02187209203839302
v -0.07482963800430312 7.264192390721301e-05 0.021934185177087784
v -0.0746087804436685 0.005489847622811801 0.02200370468199253
v -0.07525883615016951 0.0055493037216365415 0.017747990787029266
v -0.07525883615016951 0.0055493037216365415 0.017747990787029266
v -0.07425349950790419 0.014016831293702145 -6.146414932572952e-09
v -0.07547873258590712 0.0028458056040108243 4.1374428327856094e-09
v -0.07525883615016951 0.0055493037216365415 0.017747990787029266
v -0.0746087804436685 0.005489847622811801 0.02200370468199253
v -0.0739746838808061 0.01128547545522453 0.021928245201706886
v -0.07275442779064191 -0.020192405208945302 0.01780291646718979
v -0.06962681561708463 -0.027433419600129166 0.021907327696681023
v -0.07146347314119351 -0.022068120539188413 0.02208084426820278
v -0.05859604105353366 -0.046728823333978715 0.021342115476727486
v -0.056977111846208676 -0.04950618743896491 0.018044674769043922
v -0.05329872667789469 -0.05281054228544242 0.021141892299056053
v -0.05859604105353366 -0.046728823333978715 0.021342115476727486
v -0.05329872667789469 -0.05281054228544242 0.021141892299056053
v -0.04340782389044769 -0.03845598921179776 0.09909871220588684
v -0.060779623687267414 -0.044842451810836854 8.472718526775225e-09
v -0.05369896069169054 -0.05313942953944213 -1.9566021691730384e-08
v -0.056977111846208676 -0.04950618743896491 0.018044674769043922
v -0.060779623687267414 -0.044842451810836854 8.472718526775225e-09
v -0.06657351553440106 -0.035714950412511874 1.3852881508569226e-08
v -0.05369896069169054 -0.05313942953944213 -1.9566021691730384e-08
v -0.060779623687267414 -0.044842451810836854 8.472718526775225e-09
v -0.06359812617301952 -0.04068752378225332 0.017926575616002083
v -0.06657351553440106 -0.035714950412511874 1.3852881508569226e-08
v -0.06359812617301952 -0.04068752378225332 0.017926575616002083
v -0.060779623687267414 -0.044842451810836854 8.472718526775225e-09
v -0.056977111846208676 -0.04950618743896491 0.018044674769043922
v -0.06359812617301952 -0.04068752378225332 0.017926575616002083
v -0.05859604105353366 -0.046728823333978715 0.021342115476727486
v -0.06351602077484142 -0.03973497077822691 0.021741321310400963
v -0.056977111846208676 -0.04950618743896491 0.018044674769043922
v -0.05859604105353366 -0.046728823333978715 0.021342115476727486
v -0.06359812617301952 -0.04068752378225332 0.017926575616002083
v -0.038455959409475396 -0.04340784996747976 0.09909871220588684
v -0.04340782389044769 -0.03845598921179776 0.09909871220588684
v -0.05329872667789469 -0.05281054228544242 0.021141892299056053
v -0.038455959409475396 -0.04340784996747976 0.09909871220588684
v -0.05329872667789469 -0.05281054228544242 0.021141892299056053
v -0.04493622109293946 -0.059961222112178886 0.021689316257834435
v -0.038455959409475396 -0.04340784996747976 0.09909871220588684
v -0.04493622109293946 -0.059961222112178886 0.021689316257834435
v -0.03294334560632711 -0.04772670939564711 0.09909871220588684
v -0.020564321428537407 -0.05422370880842216 0.09909871220588684
v -0.026950329542160083 -0.05134961009025581 0.09909871220588684
v -0.030501954257488306 -0.06832820922136316 0.022129232063889503
v -0.020564321428537407 -0.05422370880842216 0.09909871220588684
v -0.022170744836330452 -0.0714300051331521 0.022088687866926193
v -0.013878437690436864 -0.056307118386030273 0.09909871220588684
v -0.020564321428537407 -0.05422370880842216 0.09909871220588684
v -0.030501954257488306 -0.06832820922136316 0.022129232063889503
v -0.022170744836330452 -0.0714300051331521 0.022088687866926193
v -0.07459772378206267 -0.01137205027043821 0.017783470451831818
v -0.07528790086507811 -0.00564207788556815 2.466217785546121e-10
v -0.07421897351741805 -0.014023155905306358 7.865256002048682e-09
v -0.07356602698564542 -0.013799358159303684 0.02212175913155079
v -0.07459990680217757 -0.0062157409265637485 0.02187209203839302
v -0.07459772378206267 -0.01137205027043821 0.017783470451831818
v -0.07459772378206267 -0.01137205027043821 0.017783470451831818
v -0.07275442779064191 -0.020192405208945302 0.01780291646718979
v -0.07356602698564542 -0.013799358159303684 0.02212175913155079
v -0.07459772378206267 -0.01137205027043821 0.017783470451831818
v -0.07421897351741805 -0.014023155905306358 7.865256002048682e-09
v -0.07275442779064191 -0.020192405208945302 0.01780291646718979
v 0.0201320014894009 -0.07276704907417307 0.017902188003063202
v 0.013601925224065805 -0.07359663397073755 0.02206164225935936
v 0.00888497661799194 -0.07497850060462961 0.017901606857776642
v 0.03217273950576788 -0.06748073548078545 0.022241894155740738
v 0.026950370520353366 -0.051349587738514016 0.09909871220588684
v 0.02056436240673069 -0.054223693907260964 0.09909871220588684
v 0.048848170787096114 0.05757220834493645 0.0177619569003582
v 0.05308909341692934 0.05375045537948615 1.1063783666998006e-08
v 0.044452562928199844 0.06108541786670693 -2.5837227912717253e-09
v 0.048848170787096114 0.05757220834493645 0.0177619569003582
v 0.044452562928199844 0.06108541786670693 -2.5837227912717253e-09
v 0.039888713508844445 0.06408233940601357 0.018054690212011337
v 0.06750521063804639 0.03220670670270924 0.022089261561632156
v 0.06368425488471996 0.03947621583938604 0.021704666316509247
v 0.051349591463804335 0.02695037424564365 0.09909871220588684
v 0.05422369763255129 0.020564367994666127 0.09909871220588684
v 0.06750521063804639 0.03220670670270924 0.022089261561632156
v 0.051349591463804335 0.02695037424564365 0.09909871220588684
v 0.051349591463804335 0.02695037424564365 0.09909871220588684
v 0.06368425488471996 0.03947621583938604 0.021704666316509247
v 0.04772669076919564 0.03294338658452038 0.09909871220588684
v 0.059027485549450025 0.04707289114594466 -2.0576202963695778e-09
v 0.05308909341692934 0.05375045537948615 1.1063783666998006e-08
v 0.056824959814548597 0.04971295595169074 0.017883388325572014
v 0.056824959814548597 0.04971295595169074 0.017883388325572014
v 0.048848170787096114 0.05757220834493645 0.0177619569003582
v 0.05322809889912615 0.052872516214847634 0.021164046600461006
v 0.048848170787096114 0.05757220834493645 0.0177619569003582
v 0.056824959814548597 0.04971295595169074 0.017883388325572014
v 0.05308909341692934 0.05375045537948615 1.1063783666998006e-08
v -0.0739746838808061 0.01128547545522453 0.021928245201706886
v -0.05630712211132059 0.013878442347049732 0.09909871220588684
v -0.07220782339572919 0.019742792472243337 0.021973222494125366
v -0.07220782339572919 0.019742792472243337 0.021973222494125366
v -0.05630712211132059 0.013878442347049732 0.09909871220588684
v -0.054223712533712484 0.020564325153827695 0.09909871220588684
v -0.07220782339572919 0.019742792472243337 0.021973222494125366
v -0.054223712533712484 0.020564325153827695 0.09909871220588684
v -0.06968273222446454 0.027285888791084324 0.02191513404250145
v 0.07296095788478864 0.01953735202550891 5.6492384103989934e-09
v 0.07501965016126647 0.008924303576350224 1.1924976561772382e-08
v 0.07549902051687254 -2.74272604627868e-08 2.484016020898013e-15
v 0.07295472174882901 -0.019560663029551534 7.363017751060852e-09
v 0.07429470866918578 -0.013467332348227518 0.017790021374821663
v 0.07214437425136579 -0.022120911628007917 0.017783381044864655
v 0.07214437425136579 -0.022120911628007917 0.017783381044864655
v 0.06938935071229947 -0.029714314267039337 0.018052514642477036
v 0.07028005272150052 -0.027582863345742264 1.2056864395759703e-09
v 0.07028005272150052 -0.027582863345742264 1.2056864395759703e-09
v 0.07295472174882901 -0.019560663029551534 7.363017751060852e-09
v 0.07214437425136579 -0.022120911628007917 0.017783381044864655
v 0.044452562928199844 0.06108541786670693 -2.5837227912717253e-09
v 0.027582863345742274 0.0702800527215005 -3.072038401441546e-09
v 0.03528675809502608 0.06678171455860146 -2.0271055944931504e-09
v 0.03528675809502608 0.06678171455860146 -2.0271055944931504e-09
v 0.039888713508844445 0.06408233940601357 0.018054690212011337
v 0.044452562928199844 0.06108541786670693 -2.5837227912717253e-09
v -0.05339540913701067 0.053423188626766274 4.913899509517705e-09
v -0.04487238079309471 0.06080275401473054 3.123648006919666e-09
v -0.059027530252933606 0.04707283899188048 -2.057620074324973e-09
v -0.05339540913701067 0.053423188626766274 4.913899509517705e-09
v -0.04976977035403261 0.05677272006869324 0.01788068190217018
v -0.04487238079309471 0.06080275401473054 3.123648006919666e-09
v -0.059027530252933606 0.04707283899188048 -2.057620074324973e-09
v -0.06241894140839588 0.04240304976701742 0.01778341643512249
v -0.05752970650792132 0.048867113888263765 0.018012266606092453
v -0.05752970650792132 0.048867113888263765 0.018012266606092453
v -0.06241894140839588 0.04240304976701742 0.01778341643512249
v -0.060055494308471784 0.04495041817426688 0.021250203251838684
v -0.05752970650792132 0.048867113888263765 0.018012266606092453
v -0.05339540913701067 0.053423188626766274 4.913899509517705e-09
v -0.059027530252933606 0.04707283899188048 -2.057620074324973e-09
v -0.05339540913701067 0.053423188626766274 4.913899509517705e-09
v -0.05752970650792132 0.048867113888263765 0.018012266606092453
v -0.04976977035403261 0.05677272006869324 0.01788068190217018
v -0.04340785369277008 0.03845596686005597 0.09909871220588684
v -0.060055494308471784 0.04495041817426688 0.021250203251838684
v -0.04772671312093743 0.0329433493316174 0.09909871220588684
v -0.013878482393920446 0.056307118386030273 0.09909871220588684
v -0.019096514210104977 0.07240394502878199 0.021906234323978424
v -0.02056436240673069 0.05422370135784156 0.09909871220588684
v -0.011359351687133333 0.07390236854553232 0.022192977368831635
v -0.0053876871243119335 0.0746009498834611 0.02207230031490326
v -0.008771496824920193 0.07496848702430735 0.018021544441580772
v -0.0069902176037430885 0.05756944417953499 0.09909871220588684
v -0.0053876871243119335 0.0746009498834611 0.02207230031490326
v -0.011359351687133333 0.07390236854553232 0.022192977368831635
v -0.011359351687133333 0.07390236854553232 0.022192977368831635
v -0.013878482393920446 0.056307118386030273 0.09909871220588684
v -0.0069902176037430885 0.05756944417953499 0.09909871220588684
v -0.011359351687133333 0.07390236854553232 0.022192977368831635
v -0.019096514210104977 0.07240394502878199 0.021906234323978424
v -0.013878482393920446 0.056307118386030273 0.09909871220588684
v -0.016880128532648118 0.0735509991645814 0.017748044803738594
v -0.008771496824920193 0.07496848702430735 0.018021544441580772
v -0.008517430163919941 0.075085110962391 -1.218577461159498e-09
v -0.016880128532648118 0.0735509991645814 0.017748044803738594
v -0.008517430163919941 0.075085110962391 -1.218577461159498e-09
v -0.019528072327375447 0.07296433299779902 1.0762415403320347e-09
v -0.016880128532648118 0.0735509991645814 0.017748044803738594
v -0.011359351687133333 0.07390236854553232 0.022192977368831635
v -0.008771496824920193 0.07496848702430735 0.018021544441580772
v -0.016880128532648118 0.0735509991645814 0.017748044803738594
v -0.019096514210104977 0.07240394502878199 0.021906234323978424
v -0.011359351687133333 0.07390236854553232 0.022192977368831635
v -0.0329433828592301 0.04772669449448592 0.09909871220588684
v -0.026950370520353366 0.05134959518909461 0.09909871220588684
v -0.03951495513319976 0.06365172564983376 0.021728457883000374
v -0.03951495513319976 0.06365172564983376 0.021728457883000374
v -0.046728823333978736 0.05859604105353363 0.021342111751437187
v -0.0329433828592301 0.04772669449448592 0.09909871220588684
v -0.03951495513319976 0.06365172564983376 0.021728457883000374
v -0.026950370520353366 0.05134959518909461 0.09909871220588684
v -0.029700202867388777 0.06869477033615122 0.022075220942497253
v -0.06394328176975261 0.04020451754331594 1.2405001470483512e-08
v -0.059027530252933606 0.04707283899188048 -2.057620074324973e-09
v -0.0680222809314729 0.032757777720689815 -1.431930130024739e-09
v -0.06394328176975261 0.04020451754331594 1.2405001470483512e-08
v -0.06241894140839588 0.04240304976701742 0.01778341643512249
v -0.059027530252933606 0.04707283899188048 -2.057620074324973e-09
v 0.026950370520353366 -0.051349587738514016 0.09909871220588684
v 0.037473611533641885 -0.06490614265203484 0.021342117339372635
v 0.0329433828592301 -0.04772668331861502 0.09909871220588684
v 0.059953354299068555 -0.04487814009189612 0.021868571639060974
v 0.04340785369277008 -0.03845595568418508 0.09909871220588684
v 0.05271581560373315 -0.05335633084177978 0.02128666266798973
v 0.05271581560373315 -0.05335633084177978 0.02128666266798973
v 0.04340785369277008 -0.03845595568418508 0.09909871220588684
v 0.03845599666237838 -0.04340782761573797 0.09909871220588684
v -0.06752130389213575 0.032335445284843486 0.021804777905344963
v -0.0702796131372453 0.02748569659888748 0.017748016864061356
v -0.06968273222446454 0.027285888791084324 0.02191513404250145
v -0.06752130389213575 0.032335445284843486 0.021804777905344963
v -0.054223712533712484 0.020564325153827695 0.09909871220588684
v -0.051349613815546126 0.026950335130095517 0.09909871220588684
v -0.054223712533712484 0.020564325153827695 0.09909871220588684
v -0.06752130389213575 0.032335445284843486 0.021804777905344963
v -0.06968273222446454 0.027285888791084324 0.02191513404250145
v -0.0702796131372453 0.02748569659888748 0.017748016864061356
v -0.06695287674665464 0.03484748303890233 0.018081573769450188
v -0.0680222809314729 0.032757777720689815 -1.431930130024739e-09
v -0.06695287674665464 0.03484748303890233 0.018081573769450188
v -0.06394328176975261 0.04020451754331594 1.2405001470483512e-08
v -0.0680222809314729 0.032757777720689815 -1.431930130024739e-09
v -0.06394328176975261 0.04020451754331594 1.2405001470483512e-08
v -0.06695287674665464 0.03484748303890233 0.018081573769450188
v -0.06241894140839588 0.04240304976701742 0.01778341643512249
v -0.06752130389213575 0.032335445284843486 0.021804777905344963
v -0.06695287674665464 0.03484748303890233 0.018081573769450188
v -0.0702796131372453 0.02748569659888748 0.017748016864061356
v 0.0695665627717973 -0.027507895603776016 0.02208706922829151
v 0.06738276779651654 -0.032465171068906826 0.022100994363427162
v 0.06938935071229947 -0.029714314267039337 0.018052514642477036
v 0.07214437425136579 -0.022120911628007917 0.017783381044864655
v 0.0695665627717973 -0.027507895603776016 0.02208706922829151
v 0.06938935071229947 -0.029714314267039337 0.018052514642477036
v 0.0695665627717973 -0.027507895603776016 0.02208706922829151
v 0.07214437425136579 -0.022120911628007917 0.017783381044864655
v 0.07148420810699475 -0.021996418014168767 0.022087175399065018
v -0.03757975623011596 -0.06542775779962548 0.017859162762761116
v -0.04433162510395058 -0.06111877411603936 0.017855200916528702
v -0.04020240530371673 -0.06394431740045556 -2.1304000785704602e-09
v -0.03757975623011596 -0.06542775779962548 0.017859162762761116
v -0.04020240530371673 -0.06394431740045556 -2.1304000785704602e-09
v -0.03064857423305517 -0.06905125826597223 -4.807848785759461e-09
v -0.006990172900259507 -0.05756944417953499 0.09909871220588684
v -0.005509959533810625 -0.0745977982878686 0.022048667073249817
v 2.258301634583408e-08 -0.05799225345253952 0.09909871220588684
v -0.013878437690436864 -0.056307118386030273 0.09909871220588684
v -0.014110545627772832 -0.07349643856287012 0.022135062143206596
v -0.006990172900259507 -0.05756944417953499 0.09909871220588684
v -0.006990172900259507 -0.05756944417953499 0.09909871220588684
v -0.014110545627772832 -0.07349643856287012 0.022135062143206596
v -0.005509959533810625 -0.0745977982878686 0.022048667073249817
v 0.0069902176037430885 -0.05756943672895439 0.09909871220588684
v 2.258301634583408e-08 -0.05799225345253952 0.09909871220588684
v 0.005696143954992305 -0.07461945712566385 0.021906718611717224
v 0.005696143954992305 -0.07461945712566385 0.021906718611717224
v 0.013601925224065805 -0.07359663397073755 0.02206164225935936
v 0.0069902176037430885 -0.05756943672895439 0.09909871220588684
v 0.0069902176037430885 -0.05756943672895439 0.09909871220588684
v 0.013601925224065805 -0.07359663397073755 0.02206164225935936
v 0.013878482393920446 -0.05630710721015938 0.09909871220588684
v 0.005696143954992305 -0.07461945712566385 0.021906718611717224
v 2.258301634583408e-08 -0.05799225345253952 0.09909871220588684
v 3.613648732425651e-05 -0.07479273527860651 0.022083288058638573
v 3.613648732425651e-05 -0.07479273527860651 0.022083288058638573
v 2.258301634583408e-08 -0.05799225345253952 0.09909871220588684
v -0.005509959533810625 -0.0745977982878686 0.022048667073249817
v 3.613648732425651e-05 -0.07479273527860651 0.022083288058638573
v 0.0003041014424525207 -0.0754864290356637 0.017705680802464485
v 0.005696143954992305 -0.07461945712566385 0.021906718611717224
v 0.0003041014424525207 -0.0754864290356637 0.017705680802464485
v 3.613648732425651e-05 -0.07479273527860651 0.022083288058638573
v -0.005509959533810625 -0.0745977982878686 0.022048667073249817
v -0.005503579508513222 -0.07525622844696055 0.017745092511177063
v -0.005509959533810625 -0.0745977982878686 0.022048667073249817
v -0.011157846078276653 -0.07463369518518458 0.017748061567544937
v -0.005503579508513222 -0.07525622844696055 0.017745092511177063
v 0.0003041014424525207 -0.0754864290356637 0.017705680802464485
v -0.005509959533810625 -0.0745977982878686 0.022048667073249817
v -0.005503579508513222 -0.07525622844696055 0.017745092511177063
v -0.011157846078276653 -0.07463369518518458 0.017748061567544937
v -0.0028878990560770087 -0.0755084678530694 -6.815113096081404e-08
v -0.0028878990560770087 -0.0755084678530694 -6.815113096081404e-08
v 0.0003041014424525207 -0.0754864290356637 0.017705680802464485
v -0.005503579508513222 -0.07525622844696055 0.017745092511177063
v -0.01919803582131866 -0.07299671322107325 0.018061263486742973
v -0.011157846078276653 -0.07463369518518458 0.017748061567544937
v -0.014110545627772832 -0.07349643856287012 0.022135062143206596
v -0.01919803582131866 -0.07299671322107325 0.018061263486742973
v -0.014110545627772832 -0.07349643856287012 0.022135062143206596
v -0.022170744836330452 -0.0714300051331521 0.022088687866926193
v -0.01919803582131866 -0.07299671322107325 0.018061263486742973
v -0.01403440441936257 -0.0742158368229867 -2.1227428703696205e-09
v -0.011157846078276653 -0.07463369518518458 0.017748061567544937
v -0.02225375361740593 -0.07214479148387919 3.1535485334188706e-09
v -0.01403440441936257 -0.0742158368229867 -2.1227428703696205e-09
v -0.01919803582131866 -0.07299671322107325 0.018061263486742973
v -0.05422369763255129 -0.02056435868144038 0.09909871220588684
v -0.0674167722463609 -0.03228168934583668 0.022252462804317474
v -0.051349591463804335 -0.026950364932417904 0.09909871220588684
v -0.05422369763255129 -0.02056435868144038 0.09909871220588684
v -0.06962681561708463 -0.027433419600129166 0.021907327696681023
v -0.0674167722463609 -0.03228168934583668 0.022252462804317474
v -0.05422369763255129 -0.02056435868144038 0.09909871220588684
v -0.056307114660739996 -0.013878477737307568 0.09909871220588684
v -0.07146347314119351 -0.022068120539188413 0.02208084426820278
v -0.07146347314119351 -0.022068120539188413 0.02208084426820278
v -0.06962681561708463 -0.027433419600129166 0.021907327696681023
v -0.05422369763255129 -0.02056435868144038 0.09909871220588684
v -0.0674167722463609 -0.03228168934583668 0.022252462804317474
v -0.06962681561708463 -0.027433419600129166 0.021907327696681023
v -0.06894923746585858 -0.03075278177857403 0.017863282933831215
v -0.06359812617301952 -0.04068752378225332 0.017926575616002083
v -0.06894923746585858 -0.03075278177857403 0.017863282933831215
v -0.06657351553440106 -0.035714950412511874 1.3852881508569226e-08
v -0.07132314145565045 -0.024971660226583516 1.4461194020043422e-08
v -0.06657351553440106 -0.035714950412511874 1.3852881508569226e-08
v -0.06894923746585858 -0.03075278177857403 0.017863282933831215
v -0.06351602077484142 -0.03973497077822691 0.021741321310400963
v -0.0674167722463609 -0.03228168934583668 0.022252462804317474
v -0.06894923746585858 -0.03075278177857403 0.017863282933831215
v -0.06894923746585858 -0.03075278177857403 0.017863282933831215
v -0.06359812617301952 -0.04068752378225332 0.017926575616002083
v -0.06351602077484142 -0.03973497077822691 0.021741321310400963
v -0.06894923746585858 -0.03075278177857403 0.017863282933831215
v -0.07275442779064191 -0.020192405208945302 0.01780291646718979
v -0.07132314145565045 -0.024971660226583516 1.4461194020043422e-08
v -0.06894923746585858 -0.03075278177857403 0.017863282933831215
v -0.06962681561708463 -0.027433419600129166 0.021907327696681023
v -0.07275442779064191 -0.020192405208945302 0.01780291646718979
v -0.051349591463804335 -0.026950364932417904 0.09909871220588684
v -0.06351602077484142 -0.03973497077822691 0.021741321310400963
v -0.04772669076919564 -0.032943379133939785 0.09909871220588684
v -0.04772669076919564 -0.032943379133939785 0.09909871220588684
v -0.05859604105353366 -0.046728823333978715 0.021342115476727486
v -0.04340782389044769 -0.03845598921179776 0.09909871220588684
v -0.04772669076919564 -0.032943379133939785 0.09909871220588684
v -0.06351602077484142 -0.03973497077822691 0.021741321310400963
v -0.05859604105353366 -0.046728823333978715 0.021342115476727486
v -0.07459772378206267 -0.01137205027043821 0.017783470451831818
v -0.07540640234947218 -0.0033647126983851238 0.018058573827147484
v -0.07528790086507811 -0.00564207788556815 2.466217785546121e-10
v -0.07540640234947218 -0.0033647126983851238 0.018058573827147484
v -0.07547873258590712 0.0028458056040108243 4.1374428327856094e-09
v -0.07528790086507811 -0.00564207788556815 2.466217785546121e-10
v -0.07540640234947218 -0.0033647126983851238 0.018058573827147484
v -0.07525883615016951 0.0055493037216365415 0.017747990787029266
v -0.07547873258590712 0.0028458056040108243 4.1374428327856094e-09
v -0.07540640234947218 -0.0033647126983851238 0.018058573827147484
v -0.07459772378206267 -0.01137205027043821 0.017783470451831818
v -0.07459990680217757 -0.0062157409265637485 0.02187209203839302
v -0.07540640234947218 -0.0033647126983851238 0.018058573827147484
v -0.07459990680217757 -0.0062157409265637485 0.02187209203839302
v -0.07482963800430312 7.264192390721301e-05 0.021934185177087784
v -0.07525883615016951 0.0055493037216365415 0.017747990787029266
v -0.07540640234947218 -0.0033647126983851238 0.018058573827147484
v -0.07482963800430312 7.264192390721301e-05 0.021934185177087784
v 0.013878482393920446 -0.05630710721015938 0.09909871220588684
v 0.013601925224065805 -0.07359663397073755 0.02206164225935936
v 0.02446547150611882 -0.07074794918298731 0.022037437185645103
v 0.013601925224065805 -0.07359663397073755 0.02206164225935936
v 0.0201320014894009 -0.07276704907417307 0.017902188003063202
v 0.02446547150611882 -0.07074794918298731 0.022037437185645103
v 0.02446547150611882 -0.07074794918298731 0.022037437185645103
v 0.02056436240673069 -0.054223693907260964 0.09909871220588684
v 0.013878482393920446 -0.05630710721015938 0.09909871220588684
v 0.027686478570103694 -0.07019688189029703 0.01778344251215458
v 0.02446547150611882 -0.07074794918298731 0.022037437185645103
v 0.0201320014894009 -0.07276704907417307 0.017902188003063202
v 0.03217273950576788 -0.06748073548078545 0.022241894155740738
v 0.02056436240673069 -0.054223693907260964 0.09909871220588684
v 0.02446547150611882 -0.07074794918298731 0.022037437185645103
v 0.02446547150611882 -0.07074794918298731 0.022037437185645103
v 0.027686478570103694 -0.07019688189029703 0.01778344251215458
v 0.03217273950576788 -0.06748073548078545 0.022241894155740738
v 0.016800139099359544 -0.07360608130693445 3.2174243269622593e-09
v 0.00888497661799194 -0.07497850060462961 0.017901606857776642
v 0.008288047276437296 -0.07508320361375818 -9.570882042453377e-08
v 0.016800139099359544 -0.07360608130693445 3.2174243269622593e-09
v 0.0201320014894009 -0.07276704907417307 0.017902188003063202
v 0.00888497661799194 -0.07497850060462961 0.017901606857776642
v 0.05322809889912615 0.052872516214847634 0.021164046600461006
v 0.048848170787096114 0.05757220834493645 0.0177619569003582
v 0.046628072857856834 0.058480259031057434 0.022078141570091248
v 0.06964591145515454 0.02742405980825428 0.02188006415963173
v 0.07105179131031049 0.025543339550495182 0.01786176487803459
v 0.06750521063804639 0.03220670670270924 0.022089261561632156
v 0.06964591145515454 0.02742405980825428 0.02188006415963173
v 0.06750521063804639 0.03220670670270924 0.022089261561632156
v 0.05422369763255129 0.020564367994666127 0.09909871220588684
v 0.06368425488471996 0.03947621583938604 0.021704666316509247
v 0.06750521063804639 0.03220670670270924 0.022089261561632156
v 0.06659387052059186 0.03553296625614171 0.01802738569676876
v 0.06659387052059186 0.03553296625614171 0.01802738569676876
v 0.06925325840711606 0.030238777399063152 -4.470281922408503e-09
v 0.06395012885332119 0.04019120335578924 -8.66916816111285e-10
v 0.06925325840711606 0.030238777399063152 -4.470281922408503e-09
v 0.06659387052059186 0.03553296625614171 0.01802738569676876
v 0.07105179131031049 0.025543339550495182 0.01786176487803459
v 0.06659387052059186 0.03553296625614171 0.01802738569676876
v 0.06750521063804639 0.03220670670270924 0.022089261561632156
v 0.07105179131031049 0.025543339550495182 0.01786176487803459
v 0.05859604105353366 0.046728823333978715 0.021342111751437187
v 0.04772669076919564 0.03294338658452038 0.09909871220588684
v 0.06368425488471996 0.03947621583938604 0.021704666316509247
v 0.05859604105353366 0.046728823333978715 0.021342111751437187
v 0.04340782389044769 0.03845600038766866 0.09909871220588684
v 0.04772669076919564 0.03294338658452038 0.09909871220588684
v 0.05859604105353366 0.046728823333978715 0.021342111751437187
v 0.05322809889912615 0.052872516214847634 0.021164046600461006
v 0.04340782389044769 0.03845600038766866 0.09909871220588684
v 0.05859604105353366 0.046728823333978715 0.021342111751437187
v 0.056824959814548597 0.04971295595169074 0.017883388325572014
v 0.05322809889912615 0.052872516214847634 0.021164046600461006
v -0.0739746838808061 0.01128547545522453 0.021928245201706886
v -0.07220782339572919 0.019742792472243337 0.021973222494125366
v -0.0742251425981523 0.013699306175112743 0.01806332916021347
v -0.0742251425981523 0.013699306175112743 0.01806332916021347
v -0.07425349950790419 0.014016831293702145 -6.146414932572952e-09
v -0.07525883615016951 0.0055493037216365415 0.017747990787029266
v -0.0742251425981523 0.013699306175112743 0.01806332916021347
v -0.07525883615016951 0.0055493037216365415 0.017747990787029266
v -0.0739746838808061 0.01128547545522453 0.021928245201706886
v -2.2583019898547758e-08 0.05799226090312012 0.09909871220588684
v -0.0053876871243119335 0.0746009498834611 0.02207230031490326
v -0.0069902176037430885 0.05756944417953499 0.09909871220588684
v 0.01402637548744681 0.07351163029670725 0.022113772109150887
v 0.02435300871729855 0.07146535813808451 0.017904173582792282
v 0.013567280955612684 0.07425382733345041 0.017995508387684822
v 0.039888713508844445 0.06408233940601357 0.018054690212011337
v 0.03528675809502608 0.06678171455860146 -2.0271055944931504e-09
v 0.03270424902439123 0.06800565868616114 0.017765475437045097
v 0.03270424902439123 0.06800565868616114 0.017765475437045097
v 0.03528675809502608 0.06678171455860146 -2.0271055944931504e-09
v 0.027582863345742274 0.0702800527215005 -3.072038401441546e-09
v 0.03270424902439123 0.06800565868616114 0.017765475437045097
v 0.027582863345742274 0.0702800527215005 -3.072038401441546e-09
v 0.02435300871729855 0.07146535813808451 0.017904173582792282
v 0.013878437690436864 0.05630712956190117 0.09909871220588684
v 0.01402637548744681 0.07351163029670725 0.022113772109150887
v 0.006990172900259507 0.057569451630115585 0.09909871220588684
v -0.05752970650792132 0.048867113888263765 0.018012266606092453
v -0.05284815654158602 0.05323040857911117 0.021241754293441772
v -0.04976977035403261 0.05677272006869324 0.01788068190217018
v -0.05284815654158602 0.05323040857911117 0.021241754293441772
v -0.046728823333978736 0.05859604105353363 0.021342111751437187
v -0.04976977035403261 0.05677272006869324 0.01788068190217018
v -0.05284815654158602 0.05323040857911117 0.021241754293441772
v -0.05752970650792132 0.048867113888263765 0.018012266606092453
v -0.060055494308471784 0.04495041817426688 0.021250203251838684
v -0.060055494308471784 0.04495041817426688 0.021250203251838684
v -0.04340785369277008 0.03845596686005597 0.09909871220588684
v -0.05284815654158602 0.05323040857911117 0.021241754293441772
v -0.029700202867388777 0.06869477033615122 0.022075220942497253
v -0.019096514210104977 0.07240394502878199 0.021906234323978424
v -0.025367176160216377 0.0710940808057786 0.017969805747270584
v -0.025367176160216377 0.0710940808057786 0.017969805747270584
v -0.019096514210104977 0.07240394502878199 0.021906234323978424
v -0.016880128532648118 0.0735509991645814 0.017748044803738594
v -0.025367176160216377 0.0710940808057786 0.017969805747270584
v -0.019528072327375447 0.07296433299779902 1.0762415403320347e-09
v -0.02758287079632287 0.07028006762266169 -3.0720397337091754e-09
v -0.025367176160216377 0.0710940808057786 0.017969805747270584
v -0.016880128532648118 0.0735509991645814 0.017748044803738594
v -0.019528072327375447 0.07296433299779902 1.0762415403320347e-09
v -0.03285482898354536 0.0679316222667695 0.017783435061573982
v -0.03951495513319976 0.06365172564983376 0.021728457883000374
v -0.029700202867388777 0.06869477033615122 0.022075220942497253
v -0.029700202867388777 0.06869477033615122 0.022075220942497253
v -0.025367176160216377 0.0710940808057786 0.017969805747270584
v -0.03285482898354536 0.0679316222667695 0.017783435061573982
v -0.02758287079632287 0.07028006762266169 -3.0720397337091754e-09
v -0.035276595503091875 0.06678822636604317 4.3338888033872536e-09
v -0.03285482898354536 0.0679316222667695 0.017783435061573982
v -0.03285482898354536 0.0679316222667695 0.017783435061573982
v -0.025367176160216377 0.0710940808057786 0.017969805747270584
v -0.02758287079632287 0.07028006762266169 -3.0720397337091754e-09
v -0.04075926914811141 0.06355609744787225 0.01785259321331978
v -0.04976977035403261 0.05677272006869324 0.01788068190217018
v -0.046728823333978736 0.05859604105353363 0.021342111751437187
v -0.04075926914811141 0.06355609744787225 0.01785259321331978
v -0.046728823333978736 0.05859604105353363 0.021342111751437187
v -0.03951495513319976 0.06365172564983376 0.021728457883000374
v -0.04487238079309471 0.06080275401473054 3.123648006919666e-09
v -0.04976977035403261 0.05677272006869324 0.01788068190217018
v -0.04075926914811141 0.06355609744787225 0.01785259321331978
v -0.04075926914811141 0.06355609744787225 0.01785259321331978
v -0.03951495513319976 0.06365172564983376 0.021728457883000374
v -0.03285482898354536 0.0679316222667695 0.017783435061573982
v -0.04075926914811141 0.06355609744787225 0.01785259321331978
v -0.035276595503091875 0.06678822636604317 4.3338888033872536e-09
v -0.04487238079309471 0.06080275401473054 3.123648006919666e-09
v -0.04075926914811141 0.06355609744787225 0.01785259321331978
v -0.03285482898354536 0.0679316222667695 0.017783435061573982
v -0.035276595503091875 0.06678822636604317 4.3338888033872536e-09
v 0.04433280229568489 -0.060504242777824485 0.021246381103992462
v 0.037473611533641885 -0.06490614265203484 0.021342117339372635
v 0.04261255264282234 -0.062276102602481925 0.017783401533961296
v 0.04433280229568489 -0.060504242777824485 0.021246381103992462
v 0.0329433828592301 -0.04772668331861502 0.09909871220588684
v 0.037473611533641885 -0.06490614265203484 0.021342117339372635
v 0.04261255264282234 -0.062276102602481925 0.017783401533961296
v 0.049538809806108565 -0.056953288614749985 0.01801123283803463
v 0.04433280229568489 -0.060504242777824485 0.021246381103992462
v 0.04433280229568489 -0.060504242777824485 0.021246381103992462
v 0.03845599666237838 -0.04340782761573797 0.09909871220588684
v 0.0329433828592301 -0.04772668331861502 0.09909871220588684
v 0.04433280229568489 -0.060504242777824485 0.021246381103992462
v 0.05271581560373315 -0.05335633084177978 0.02128666266798973
v 0.03845599666237838 -0.04340782761573797 0.09909871220588684
v 0.04433280229568489 -0.060504242777824485 0.021246381103992462
v 0.049538809806108565 -0.056953288614749985 0.01801123283803463
v 0.05271581560373315 -0.05335633084177978 0.02128666266798973
v 0.059023272246122464 -0.04701689630746848 0.01776549220085144
v 0.06426914036273967 -0.0396197065711022 0.01791170798242092
v 0.059953354299068555 -0.04487814009189612 0.021868571639060974
v 0.059023272246122464 -0.04701689630746848 0.01776549220085144
v 0.057255309075117215 -0.04926235601305968 3.026449979515178e-09
v 0.06238023564219486 -0.04253005981445318 1.8590491368541961e-09
v 0.06426914036273967 -0.0396197065711022 0.01791170798242092
v 0.059023272246122464 -0.04701689630746848 0.01776549220085144
v 0.06238023564219486 -0.04253005981445318 1.8590491368541961e-09
v -0.0646883174777032 0.037566374987363864 0.022012602537870407
v -0.060055494308471784 0.04495041817426688 0.021250203251838684
v -0.06241894140839588 0.04240304976701742 0.01778341643512249
v -0.06695287674665464 0.03484748303890233 0.018081573769450188
v -0.0646883174777032 0.037566374987363864 0.022012602537870407
v -0.06241894140839588 0.04240304976701742 0.01778341643512249
v -0.0646883174777032 0.037566374987363864 0.022012602537870407
v -0.051349613815546126 0.026950335130095517 0.09909871220588684
v -0.04772671312093743 0.0329433493316174 0.09909871220588684
v -0.04772671312093743 0.0329433493316174 0.09909871220588684
v -0.060055494308471784 0.04495041817426688 0.021250203251838684
v -0.0646883174777032 0.037566374987363864 0.022012602537870407
v -0.0646883174777032 0.037566374987363864 0.022012602537870407
v -0.06752130389213575 0.032335445284843486 0.021804777905344963
v -0.051349613815546126 0.026950335130095517 0.09909871220588684
v -0.0646883174777032 0.037566374987363864 0.022012602537870407
v -0.06695287674665464 0.03484748303890233 0.018081573769450188
v -0.06752130389213575 0.032335445284843486 0.021804777905344963
v -0.030501954257488306 -0.06832820922136316 0.022129232063889503
v -0.03757975623011596 -0.06542775779962548 0.017859162762761116
v -0.02970758266747003 -0.06941264867782602 0.017827315255999565
v -0.02970758266747003 -0.06941264867782602 0.017827315255999565
v -0.03757975623011596 -0.06542775779962548 0.017859162762761116
v -0.03064857423305517 -0.06905125826597223 -4.807848785759461e-09
v -0.02970758266747003 -0.06941264867782602 0.017827315255999565
v -0.022170744836330452 -0.0714300051331521 0.022088687866926193
v -0.030501954257488306 -0.06832820922136316 0.022129232063889503
v -0.02970758266747003 -0.06941264867782602 0.017827315255999565
v -0.01919803582131866 -0.07299671322107325 0.018061263486742973
v -0.022170744836330452 -0.0714300051331521 0.022088687866926193
v -0.02970758266747003 -0.06941264867782602 0.017827315255999565
v -0.03064857423305517 -0.06905125826597223 -4.807848785759461e-09
v -0.02225375361740593 -0.07214479148387919 3.1535485334188706e-09
v -0.02225375361740593 -0.07214479148387919 3.1535485334188706e-09
v -0.01919803582131866 -0.07299671322107325 0.018061263486742973
v -0.02970758266747003 -0.06941264867782602 0.017827315255999565
v -0.030501954257488306 -0.06832820922136316 0.022129232063889503
v -0.026950329542160083 -0.05134961009025581 0.09909871220588684
v -0.03756468743085868 -0.06471656262874612 0.021914569661021233
v -0.03756468743085868 -0.06471656262874612 0.021914569661021233
v -0.03757975623011596 -0.06542775779962548 0.017859162762761116
v -0.030501954257488306 -0.06832820922136316 0.022129232063889503
v -0.03756468743085868 -0.06471656262874612 0.021914569661021233
v -0.026950329542160083 -0.05134961009025581 0.09909871220588684
v -0.03294334560632711 -0.04772670939564711 0.09909871220588684
v -0.03294334560632711 -0.04772670939564711 0.09909871220588684
v -0.04493622109293946 -0.059961222112178886 0.021689316257834435
v -0.03756468743085868 -0.06471656262874612 0.021914569661021233
v -0.03756468743085868 -0.06471656262874612 0.021914569661021233
v -0.04493622109293946 -0.059961222112178886 0.021689316257834435
v -0.04433162510395058 -0.06111877411603936 0.017855200916528702
v -0.03757975623011596 -0.06542775779962548 0.017859162762761116
v -0.03756468743085868 -0.06471656262874612 0.021914569661021233
v -0.04433162510395058 -0.06111877411603936 0.017855200916528702
v 0.03571911528706557 -0.0664963051676751 0.018043726682662964
v 0.027686478570103694 -0.07019688189029703 0.01778344251215458
v 0.03532414510846144 -0.06680251657962807 -3.187072383781242e-09
v 0.03571911528706557 -0.0664963051676751 0.018043726682662964
v 0.03532414510846144 -0.06680251657962807 -3.187072383781242e-09
v 0.04261255264282234 -0.062276102602481925 0.017783401533961296
v 0.04261255264282234 -0.062276102602481925 0.017783401533961296
v 0.037473611533641885 -0.06490614265203484 0.021342117339372635
v 0.03571911528706557 -0.0664963051676751 0.018043726682662964
v 0.03571911528706557 -0.0664963051676751 0.018043726682662964
v 0.037473611533641885 -0.06490614265203484 0.021342117339372635
v 0.03217273950576788 -0.06748073548078545 0.022241894155740738
v 0.03217273950576788 -0.06748073548078545 0.022241894155740738
v 0.027686478570103694 -0.07019688189029703 0.01778344251215458
v 0.03571911528706557 -0.0664963051676751 0.018043726682662964
v 0.024935036897659347 -0.07129693776369105 9.604279149755257e-09
v 0.027686478570103694 -0.07019688189029703 0.01778344251215458
v 0.0201320014894009 -0.07276704907417307 0.017902188003063202
v 0.024935036897659347 -0.07129693776369105 9.604279149755257e-09
v 0.0201320014894009 -0.07276704907417307 0.017902188003063202
v 0.016800139099359544 -0.07360608130693445 3.2174243269622593e-09
v 0.027686478570103694 -0.07019688189029703 0.01778344251215458
v 0.024935036897659347 -0.07129693776369105 9.604279149755257e-09
v 0.03532414510846144 -0.06680251657962807 -3.187072383781242e-09
v 0.024935036897659347 -0.07129693776369105 9.604279149755257e-09
v 0.008288047276437296 -0.07508320361375818 -9.570882042453377e-08
v 0.03532414510846144 -0.06680251657962807 -3.187072383781242e-09
v 0.024935036897659347 -0.07129693776369105 9.604279149755257e-09
v 0.016800139099359544 -0.07360608130693445 3.2174243269622593e-09
v 0.008288047276437296 -0.07508320361375818 -9.570882042453377e-08
v 0.040143243968486855 0.06340480595827111 0.021078158169984818
v 0.048848170787096114 0.05757220834493645 0.0177619569003582
v 0.039888713508844445 0.06408233940601357 0.018054690212011337
v 0.040143243968486855 0.06340480595827111 0.021078158169984818
v 0.046628072857856834 0.058480259031057434 0.022078141570091248
v 0.048848170787096114 0.05757220834493645 0.0177619569003582
v 0.03294334560632711 0.04772672057151801 0.09909871220588684
v 0.040143243968486855 0.06340480595827111 0.021078158169984818
v 0.026950329542160083 0.051349617540836404 0.09909871220588684
v 0.046628072857856834 0.058480259031057434 0.022078141570091248
v 0.040143243968486855 0.06340480595827111 0.021078158169984818
v 0.03294334560632711 0.04772672057151801 0.09909871220588684
v 0.057992257177829847 2.6914760198337754e-08 0.09909871220588684
v 0.07482814788818373 0.0024806759320199524 0.021989788860082626
v 0.05756944045424472 0.006990221794694672 0.09909871220588684
v 0.07433981448411955 -0.008720749057829392 0.022039039060473442
v 0.057992257177829847 2.6914760198337754e-08 0.09909871220588684
v 0.057569447904825315 -0.0069901687093079186 0.09909871220588684
v 0.07482814788818373 0.0024806759320199524 0.021989788860082626
v 0.057992257177829847 2.6914760198337754e-08 0.09909871220588684
v 0.07433981448411955 -0.008720749057829392 0.022039039060473442
v 0.056307114660739996 0.01387848611921074 0.09909871220588684
v 0.05756944045424472 0.006990221794694672 0.09909871220588684
v 0.07356525212526334 0.013905170373618622 0.022014088928699493
v 0.07356525212526334 0.013905170373618622 0.022014088928699493
v 0.05756944045424472 0.006990221794694672 0.09909871220588684
v 0.07482814788818373 0.0024806759320199524 0.021989788860082626
v 0.06659387052059186 0.03553296625614171 0.01802738569676876
v 0.062325503677129857 0.04254253208637243 0.017765438184142113
v 0.06368425488471996 0.03947621583938604 0.021704666316509247
v 0.062325503677129857 0.04254253208637243 0.017765438184142113
v 0.05859604105353366 0.046728823333978715 0.021342111751437187
v 0.06368425488471996 0.03947621583938604 0.021704666316509247
v 0.062325503677129857 0.04254253208637243 0.017765438184142113
v 0.056824959814548597 0.04971295595169074 0.017883388325572014
v 0.05859604105353366 0.046728823333978715 0.021342111751437187
v 0.062325503677129857 0.04254253208637243 0.017765438184142113
v 0.06659387052059186 0.03553296625614171 0.01802738569676876
v 0.06395012885332119 0.04019120335578924 -8.66916816111285e-10
v 0.062325503677129857 0.04254253208637243 0.017765438184142113
v 0.06395012885332119 0.04019120335578924 -8.66916816111285e-10
v 0.059027485549450025 0.04707289114594466 -2.0576202963695778e-09
v 0.056824959814548597 0.04971295595169074 0.017883388325572014
v 0.062325503677129857 0.04254253208637243 0.017765438184142113
v 0.059027485549450025 0.04707289114594466 -2.0576202963695778e-09
v -0.07214830070734037 0.022090064361691503 0.017816297709941864
v -0.0742251425981523 0.013699306175112743 0.01806332916021347
v -0.07220782339572919 0.019742792472243337 0.021973222494125366
v -0.06968273222446454 0.027285888791084324 0.02191513404250145
v -0.0702796131372453 0.02748569659888748 0.017748016864061356
v -0.07214830070734037 0.022090064361691503 0.017816297709941864
v -0.07214830070734037 0.022090064361691503 0.017816297709941864
v -0.07220782339572919 0.019742792472243337 0.021973222494125366
v -0.06968273222446454 0.027285888791084324 0.02191513404250145
v -0.07214830070734037 0.022090064361691503 0.017816297709941864
v -0.0702796131372453 0.02748569659888748 0.017748016864061356
v -0.07128653675317777 0.024967344477772747 3.167962780992184e-09
v -0.07214830070734037 0.022090064361691503 0.017816297709941864
v -0.07128653675317777 0.024967344477772747 3.167962780992184e-09
v -0.07425349950790419 0.014016831293702145 -6.146414932572952e-09
v -0.0742251425981523 0.013699306175112743 0.01806332916021347
v -0.07214830070734037 0.022090064361691503 0.017816297709941864
v -0.07425349950790419 0.014016831293702145 -6.146414932572952e-09
v 0.06738276779651654 -0.032465171068906826 0.022100994363427162
v 0.054223712533712484 -0.02056431584060195 0.09909871220588684
v 0.051349613815546126 -0.02695032581686977 0.09909871220588684
v 0.0695665627717973 -0.027507895603776016 0.02208706922829151
v 0.054223712533712484 -0.02056431584060195 0.09909871220588684
v 0.06738276779651654 -0.032465171068906826 0.022100994363427162
v 0.054223712533712484 -0.02056431584060195 0.09909871220588684
v 0.0695665627717973 -0.027507895603776016 0.02208706922829151
v 0.07148420810699475 -0.021996418014168767 0.022087175399065018
v 0.054223712533712484 -0.02056431584060195 0.09909871220588684
v 0.07148420810699475 -0.021996418014168767 0.022087175399065018
v 0.05630712211132059 -0.01387843396514656 0.09909871220588684
v 0.07298436015844358 -0.016547255218029043 0.021906206384301186
v 0.05630712211132059 -0.01387843396514656 0.09909871220588684
v 0.07148420810699475 -0.021996418014168767 0.022087175399065018
v 0.07298436015844358 -0.016547255218029043 0.021906206384301186
v 0.07214437425136579 -0.022120911628007917 0.017783381044864655
v 0.07429470866918578 -0.013467332348227518 0.017790021374821663
v 0.07148420810699475 -0.021996418014168767 0.022087175399065018
v 0.07214437425136579 -0.022120911628007917 0.017783381044864655
v 0.07298436015844358 -0.016547255218029043 0.021906206384301186
v 0.07298436015844358 -0.016547255218029043 0.021906206384301186
v 0.07429470866918578 -0.013467332348227518 0.017790021374821663
v 0.07433981448411955 -0.008720749057829392 0.022039039060473442
v 0.057569447904825315 -0.0069901687093079186 0.09909871220588684
v 0.05630712211132059 -0.01387843396514656 0.09909871220588684
v 0.07298436015844358 -0.016547255218029043 0.021906206384301186
v 0.07298436015844358 -0.016547255218029043 0.021906206384301186
v 0.07433981448411955 -0.008720749057829392 0.022039039060473442
v 0.057569447904825315 -0.0069901687093079186 0.09909871220588684
v 0.003219673410058027 0.07480669766664515 0.021890264004468918
v -2.2583019898547758e-08 0.05799226090312012 0.09909871220588684
v 0.006990172900259507 0.057569451630115585 0.09909871220588684
v 0.01402637548744681 0.07351163029670725 0.022113772109150887
v 0.003219673410058027 0.07480669766664515 0.021890264004468918
v 0.006990172900259507 0.057569451630115585 0.09909871220588684
v -0.0053876871243119335 0.0746009498834611 0.02207230031490326
v -2.2583019898547758e-08 0.05799226090312012 0.09909871220588684
v 0.003219673410058027 0.07480669766664515 0.021890264004468918
v 0.019567923620343243 0.07295342534780512 4.0714738247515925e-09
v 0.011252504773437998 0.07465577125549326 -3.263306957990153e-09
v 0.013567280955612684 0.07425382733345041 0.017995508387684822
v 0.019567923620343243 0.07295342534780512 4.0714738247515925e-09
v 0.013567280955612684 0.07425382733345041 0.017995508387684822
v 0.02435300871729855 0.07146535813808451 0.017904173582792282
v 0.019567923620343243 0.07295342534780512 4.0714738247515925e-09
v 0.027582863345742274 0.0702800527215005 -3.072038401441546e-09
v 0.011252504773437998 0.07465577125549326 -3.263306957990153e-09
v 0.019567923620343243 0.07295342534780512 4.0714738247515925e-09
v 0.02435300871729855 0.07146535813808451 0.017904173582792282
v 0.027582863345742274 0.0702800527215005 -3.072038401441546e-09
v 0.026950329542160083 0.051349617540836404 0.09909871220588684
v 0.040143243968486855 0.06340480595827111 0.021078158169984818
v 0.032302636653184946 0.06743635982275017 0.022182008251547813
v 0.039888713508844445 0.06408233940601357 0.018054690212011337
v 0.03270424902439123 0.06800565868616114 0.017765475437045097
v 0.032302636653184946 0.06743635982275017 0.022182008251547813
v 0.032302636653184946 0.06743635982275017 0.022182008251547813
v 0.040143243968486855 0.06340480595827111 0.021078158169984818
v 0.039888713508844445 0.06408233940601357 0.018054690212011337
v 0.032302636653184946 0.06743635982275017 0.022182008251547813
v 0.020564321428537407 0.054223716259002755 0.09909871220588684
v 0.026950329542160083 0.051349617540836404 0.09909871220588684
v -0.03845599666237838 0.04340782761573797 0.09909871220588684
v -0.05284815654158602 0.05323040857911117 0.021241754293441772
v -0.04340785369277008 0.03845596686005597 0.09909871220588684
v -0.03845599666237838 0.04340782761573797 0.09909871220588684
v -0.0329433828592301 0.04772669449448592 0.09909871220588684
v -0.046728823333978736 0.05859604105353363 0.021342111751437187
v -0.05284815654158602 0.05323040857911117 0.021241754293441772
v -0.03845599666237838 0.04340782761573797 0.09909871220588684
v -0.046728823333978736 0.05859604105353363 0.021342111751437187
v 0.059953354299068555 -0.04487814009189612 0.021868571639060974
v 0.05271581560373315 -0.05335633084177978 0.02128666266798973
v 0.055322777479887106 -0.05130790174007423 0.017849070951342583
v 0.055322777479887106 -0.05130790174007423 0.017849070951342583
v 0.059023272246122464 -0.04701689630746848 0.01776549220085144
v 0.059953354299068555 -0.04487814009189612 0.021868571639060974
v 0.055322777479887106 -0.05130790174007423 0.017849070951342583
v 0.05271581560373315 -0.05335633084177978 0.02128666266798973
v 0.049538809806108565 -0.056953288614749985 0.01801123283803463
v 0.059023272246122464 -0.04701689630746848 0.01776549220085144
v 0.055322777479887106 -0.05130790174007423 0.017849070951342583
v 0.057255309075117215 -0.04926235601305968 3.026449979515178e-09
v 0.051352404057979674 -0.055344671010971146 2.4191932901374003e-09
v 0.057255309075117215 -0.04926235601305968 3.026449979515178e-09
v 0.055322777479887106 -0.05130790174007423 0.017849070951342583
v 0.055322777479887106 -0.05130790174007423 0.017849070951342583
v 0.049538809806108565 -0.056953288614749985 0.01801123283803463
v 0.051352404057979674 -0.055344671010971146 2.4191932901374003e-09
v 0.046628072857856834 0.058480259031057434 0.022078141570091248
v 0.03294334560632711 0.04772672057151801 0.09909871220588684
v 0.038455959409475396 0.04340785741806036 0.09909871220588684
v 0.038455959409475396 0.04340785741806036 0.09909871220588684
v 0.04340782389044769 0.03845600038766866 0.09909871220588684
v 0.05322809889912615 0.052872516214847634 0.021164046600461006
v 0.05322809889912615 0.052872516214847634 0.021164046600461006
v 0.046628072857856834 0.058480259031057434 0.022078141570091248
v 0.038455959409475396 0.04340785741806036 0.09909871220588684
v 0.07544745504856123 -0.002328725066035989 0.01802467182278633
v 0.07433981448411955 -0.008720749057829392 0.022039039060473442
v 0.07429470866918578 -0.013467332348227518 0.017790021374821663
v 0.07482814788818373 0.0024806759320199524 0.021989788860082626
v 0.07433981448411955 -0.008720749057829392 0.022039039060473442
v 0.07544745504856123 -0.002328725066035989 0.01802467182278633
v 0.07544745504856123 -0.002328725066035989 0.01802467182278633
v 0.07501850277185454 -0.008923535235226166 -1.4736091458189549e-08
v 0.07549902051687254 -2.74272604627868e-08 2.484016020898013e-15
v 0.07544745504856123 -0.002328725066035989 0.01802467182278633
v 0.07429470866918578 -0.013467332348227518 0.017790021374821663
v 0.07501850277185454 -0.008923535235226166 -1.4736091458189549e-08
v 0.056307114660739996 0.01387848611921074 0.09909871220588684
v 0.07356525212526334 0.013905170373618622 0.022014088928699493
v 0.07147522270679486 0.022016432136297254 0.022098300978541374
v 0.07147522270679486 0.022016432136297254 0.022098300978541374
v 0.05422369763255129 0.020564367994666127 0.09909871220588684
v 0.056307114660739996 0.01387848611921074 0.09909871220588684
v 0.07147522270679486 0.022016432136297254 0.022098300978541374
v 0.06964591145515454 0.02742405980825428 0.02188006415963173
v 0.05422369763255129 0.020564367994666127 0.09909871220588684
v 0.07147522270679486 0.022016432136297254 0.022098300978541374
v 0.07105179131031049 0.025543339550495182 0.01786176487803459
v 0.06964591145515454 0.02742405980825428 0.02188006415963173
v 0.07523138076066985 0.005795594770461329 0.01781635731458664
v 0.07356525212526334 0.013905170373618622 0.022014088928699493
v 0.07482814788818373 0.0024806759320199524 0.021989788860082626
v 0.07544745504856123 -0.002328725066035989 0.01802467182278633
v 0.07523138076066985 0.005795594770461329 0.01781635731458664
v 0.07482814788818373 0.0024806759320199524 0.021989788860082626
v 0.07501965016126647 0.008924303576350224 1.1924976561772382e-08
v 0.07523138076066985 0.005795594770461329 0.01781635731458664
v 0.07549902051687254 -2.74272604627868e-08 2.484016020898013e-15
v 0.07523138076066985 0.005795594770461329 0.01781635731458664
v 0.07544745504856123 -0.002328725066035989 0.01802467182278633
v 0.07549902051687254 -2.74272604627868e-08 2.484016020898013e-15
v 0.07406511902809156 0.014651916921138783 0.01790662109851837
v 0.07296095788478864 0.01953735202550891 5.6492384103989934e-09
v 0.07105179131031049 0.025543339550495182 0.01786176487803459
v 0.07147522270679486 0.022016432136297254 0.022098300978541374
v 0.07406511902809156 0.014651916921138783 0.01790662109851837
v 0.07105179131031049 0.025543339550495182 0.01786176487803459
v 0.07406511902809156 0.014651916921138783 0.01790662109851837
v 0.07147522270679486 0.022016432136297254 0.022098300978541374
v 0.07356525212526334 0.013905170373618622 0.022014088928699493
v 0.07406511902809156 0.014651916921138783 0.01790662109851837
v 0.07501965016126647 0.008924303576350224 1.1924976561772382e-08
v 0.07296095788478864 0.01953735202550891 5.6492384103989934e-09
v 0.07406511902809156 0.014651916921138783 0.01790662109851837
v 0.07523138076066985 0.005795594770461329 0.01781635731458664
v 0.07501965016126647 0.008924303576350224 1.1924976561772382e-08
v 0.07356525212526334 0.013905170373618622 0.022014088928699493
v 0.07523138076066985 0.005795594770461329 0.01781635731458664
v 0.07406511902809156 0.014651916921138783 0.01790662109851837
v 0.01402637548744681 0.07351163029670725 0.022113772109150887
v 0.013567280955612684 0.07425382733345041 0.017995508387684822
v 0.005512665025889883 0.07525792717933664 0.017783334478735924
v 0.005512665025889883 0.07525792717933664 0.017783334478735924
v 0.003219673410058027 0.07480669766664515 0.021890264004468918
v 0.01402637548744681 0.07351163029670725 0.022113772109150887
v 0.005512665025889883 0.07525792717933664 0.017783334478735924
v 0.011252504773437998 0.07465577125549326 -3.263306957990153e-09
v 0.0028523229993879847 0.07547910511493693 8.485878666419922e-09
v 0.005512665025889883 0.07525792717933664 0.017783334478735924
v 0.013567280955612684 0.07425382733345041 0.017995508387684822
v 0.011252504773437998 0.07465577125549326 -3.263306957990153e-09
v -0.008771496824920193 0.07496848702430735 0.018021544441580772
v -0.0053876871243119335 0.0746009498834611 0.02207230031490326
v -0.00017563618894200805 0.07544614374637613 0.01796085387468338
v -0.0053876871243119335 0.0746009498834611 0.02207230031490326
v 0.003219673410058027 0.07480669766664515 0.021890264004468918
v -0.00017563618894200805 0.07544614374637613 0.01796085387468338
v 0.003219673410058027 0.07480669766664515 0.021890264004468918
v 0.005512665025889883 0.07525792717933664 0.017783334478735924
v -0.00017563618894200805 0.07544614374637613 0.01796085387468338
v -0.00017563618894200805 0.07544614374637613 0.01796085387468338
v 0.005512665025889883 0.07525792717933664 0.017783334478735924
v 0.0028523229993879847 0.07547910511493693 8.485878666419922e-09
v -0.00017563618894200805 0.07544614374637613 0.01796085387468338
v -0.008517430163919941 0.075085110962391 -1.218577461159498e-09
v -0.008771496824920193 0.07496848702430735 0.018021544441580772
v -0.00017563618894200805 0.07544614374637613 0.01796085387468338
v 0.0028523229993879847 0.07547910511493693 8.485878666419922e-09
v -0.008517430163919941 0.075085110962391 -1.218577461159498e-09
v 0.013878437690436864 0.05630712956190117 0.09909871220588684
v 0.020564321428537407 0.054223716259002755 0.09909871220588684
v 0.025005523115396545 0.07056964188814173 0.022003989666700363
v 0.025005523115396545 0.07056964188814173 0.022003989666700363
v 0.02435300871729855 0.07146535813808451 0.017904173582792282
v 0.01402637548744681 0.07351163029670725 0.022113772109150887
v 0.01402637548744681 0.07351163029670725 0.022113772109150887
v 0.013878437690436864 0.05630712956190117 0.09909871220588684
v 0.025005523115396545 0.07056964188814173 0.022003989666700363
v 0.025005523115396545 0.07056964188814173 0.022003989666700363
v 0.020564321428537407 0.054223716259002755 0.09909871220588684
v 0.032302636653184946 0.06743635982275017 0.022182008251547813
v 0.025005523115396545 0.07056964188814173 0.022003989666700363
v 0.03270424902439123 0.06800565868616114 0.017765475437045097
v 0.02435300871729855 0.07146535813808451 0.017904173582792282
v 0.025005523115396545 0.07056964188814173 0.022003989666700363
v 0.032302636653184946 0.06743635982275017 0.022182008251547813
v 0.03270424902439123 0.06800565868616114 0.017765475437045097
v 0.038455959409475396 0.04340785741806036 0.09909871220588684
v -0.006990172900259507 -0.05756944417953499 0.09909871220588684
v 2.258301634583408e-08 -0.05799225345253952 0.09909871220588684
v 0.038455959409475396 0.04340785741806036 0.09909871220588684
v 0.04340785369277008 -0.03845595568418508 0.09909871220588684
v 0.04772671312093743 -0.0329433418810368 0.09909871220588684
v 0.038455959409475396 0.04340785741806036 0.09909871220588684
v 0.05756944045424472 0.006990221794694672 0.09909871220588684
v 0.056307114660739996 0.01387848611921074 0.09909871220588684
v 0.038455959409475396 0.04340785741806036 0.09909871220588684
v 0.04772671312093743 -0.0329433418810368 0.09909871220588684
v 0.051349613815546126 -0.02695032581686977 0.09909871220588684
v 0.038455959409475396 0.04340785741806036 0.09909871220588684
v -2.2583019898547758e-08 0.05799226090312012 0.09909871220588684
v -0.0069902176037430885 0.05756944417953499 0.09909871220588684
v -0.020564321428537407 -0.05422370880842216 0.09909871220588684
v 0.038455959409475396 0.04340785741806036 0.09909871220588684
v -0.026950329542160083 -0.05134961009025581 0.09909871220588684
v 0.038455959409475396 0.04340785741806036 0.09909871220588684
v -0.03845599666237838 0.04340782761573797 0.09909871220588684
v -0.04340785369277008 0.03845596686005597 0.09909871220588684
v 0.038455959409475396 0.04340785741806036 0.09909871220588684
v -0.057992257177829847 -1.8251276046044064e-08 0.09909871220588684
v -0.05756944045424472 -0.0069902134127915 0.09909871220588684
v 0.038455959409475396 0.04340785741806036 0.09909871220588684
v -0.03294334560632711 -0.04772670939564711 0.09909871220588684
v -0.026950329542160083 -0.05134961009025581 0.09909871220588684
v 0.038455959409475396 0.04340785741806036 0.09909871220588684
v 0.02056436240673069 -0.054223693907260964 0.09909871220588684
v 0.026950370520353366 -0.051349587738514016 0.09909871220588684
v 0.038455959409475396 0.04340785741806036 0.09909871220588684
v -0.051349613815546126 0.026950335130095517 0.09909871220588684
v -0.054223712533712484 0.020564325153827695 0.09909871220588684
v -0.054223712533712484 0.020564325153827695 0.09909871220588684
v -0.05630712211132059 0.013878442347049732 0.09909871220588684
v 0.038455959409475396 0.04340785741806036 0.09909871220588684
v 0.038455959409475396 0.04340785741806036 0.09909871220588684
v 0.05630712211132059 -0.01387843396514656 0.09909871220588684
v 0.057569447904825315 -0.0069901687093079186 0.09909871220588684
v 0.038455959409475396 0.04340785741806036 0.09909871220588684
v -0.026950370520353366 0.05134959518909461 0.09909871220588684
v -0.0329433828592301 0.04772669449448592 0.09909871220588684
v -0.05756944045424472 -0.0069902134127915 0.09909871220588684
v -0.056307114660739996 -0.013878477737307568 0.09909871220588684
v 0.038455959409475396 0.04340785741806036 0.09909871220588684
v -0.056307114660739996 -0.013878477737307568 0.09909871220588684
v -0.05422369763255129 -0.02056435868144038 0.09909871220588684
v 0.038455959409475396 0.04340785741806036 0.09909871220588684
v -0.04340782389044769 -0.03845598921179776 0.09909871220588684
v -0.038455959409475396 -0.04340784996747976 0.09909871220588684
v 0.038455959409475396 0.04340785741806036 0.09909871220588684
v -0.0069902176037430885 0.05756944417953499 0.09909871220588684
v -0.013878482393920446 0.056307118386030273 0.09909871220588684
v 0.038455959409475396 0.04340785741806036 0.09909871220588684
v 0.038455959409475396 0.04340785741806036 0.09909871220588684
v 0.056307114660739996 0.01387848611921074 0.09909871220588684
v 0.05422369763255129 0.020564367994666127 0.09909871220588684
v 0.038455959409475396 0.04340785741806036 0.09909871220588684
v 0.013878437690436864 0.05630712956190117 0.09909871220588684
v 0.006990172900259507 0.057569451630115585 0.09909871220588684
v -0.04772671312093743 0.0329433493316174 0.09909871220588684
v -0.051349613815546126 0.026950335130095517 0.09909871220588684
v 0.038455959409475396 0.04340785741806036 0.09909871220588684
v 0.038455959409475396 0.04340785741806036 0.09909871220588684
v -0.05630712211132059 0.013878442347049732 0.09909871220588684
v -0.057569447904825315 0.00699017709121109 0.09909871220588684
v 0.038455959409475396 0.04340785741806036 0.09909871220588684
v 0.020564321428537407 0.054223716259002755 0.09909871220588684
v 0.013878437690436864 0.05630712956190117 0.09909871220588684
v -0.02056436240673069 0.05422370135784156 0.09909871220588684
v -0.026950370520353366 0.05134959518909461 0.09909871220588684
v 0.038455959409475396 0.04340785741806036 0.09909871220588684
v 0.03845599666237838 -0.04340782761573797 0.09909871220588684
v 0.04340785369277008 -0.03845595568418508 0.09909871220588684
v 0.038455959409475396 0.04340785741806036 0.09909871220588684
v 0.026950370520353366 -0.051349587738514016 0.09909871220588684
v 0.0329433828592301 -0.04772668331861502 0.09909871220588684
v 0.038455959409475396 0.04340785741806036 0.09909871220588684
v 2.258301634583408e-08 -0.05799225345253952 0.09909871220588684
v 0.0069902176037430885 -0.05756943672895439 0.09909871220588684
v 0.038455959409475396 0.04340785741806036 0.09909871220588684
v -0.057569447904825315 0.00699017709121109 0.09909871220588684
v -0.057992257177829847 -1.8251276046044064e-08 0.09909871220588684
v 0.038455959409475396 0.04340785741806036 0.09909871220588684
v 0.038455959409475396 0.04340785741806036 0.09909871220588684
v -0.038455959409475396 -0.04340784996747976 0.09909871220588684
v -0.03294334560632711 -0.04772670939564711 0.09909871220588684
v 0.038455959409475396 0.04340785741806036 0.09909871220588684
v -0.020564321428537407 -0.05422370880842216 0.09909871220588684
v -0.013878437690436864 -0.056307118386030273 0.09909871220588684
v 0.038455959409475396 0.04340785741806036 0.09909871220588684
v 0.013878482393920446 -0.05630710721015938 0.09909871220588684
v 0.02056436240673069 -0.054223693907260964 0.09909871220588684
v 0.038455959409475396 0.04340785741806036 0.09909871220588684
v 0.05422369763255129 0.020564367994666127 0.09909871220588684
v 0.051349591463804335 0.02695037424564365 0.09909871220588684
v 0.038455959409475396 0.04340785741806036 0.09909871220588684
v 0.04772669076919564 0.03294338658452038 0.09909871220588684
v 0.04340782389044769 0.03845600038766866 0.09909871220588684
v 0.051349591463804335 0.02695037424564365 0.09909871220588684
v 0.04772669076919564 0.03294338658452038 0.09909871220588684
v 0.038455959409475396 0.04340785741806036 0.09909871220588684
v 0.038455959409475396 0.04340785741806036 0.09909871220588684
v -0.04772669076919564 -0.032943379133939785 0.09909871220588684
v -0.04340782389044769 -0.03845598921179776 0.09909871220588684
v 0.038455959409475396 0.04340785741806036 0.09909871220588684
v -0.04340785369277008 0.03845596686005597 0.09909871220588684
v -0.04772671312093743 0.0329433493316174 0.09909871220588684
v 0.038455959409475396 0.04340785741806036 0.09909871220588684
v -0.013878482393920446 0.056307118386030273 0.09909871220588684
v -0.02056436240673069 0.05422370135784156 0.09909871220588684
v 0.038455959409475396 0.04340785741806036 0.09909871220588684
v 0.0329433828592301 -0.04772668331861502 0.09909871220588684
v 0.03845599666237838 -0.04340782761573797 0.09909871220588684
v -0.006990172900259507 -0.05756944417953499 0.09909871220588684
v 0.038455959409475396 0.04340785741806036 0.09909871220588684
v -0.013878437690436864 -0.056307118386030273 0.09909871220588684
v 0.038455959409475396 0.04340785741806036 0.09909871220588684
v 0.0069902176037430885 -0.05756943672895439 0.09909871220588684
v 0.013878482393920446 -0.05630710721015938 0.09909871220588684
v 0.038455959409475396 0.04340785741806036 0.09909871220588684
v -0.05422369763255129 -0.02056435868144038 0.09909871220588684
v -0.051349591463804335 -0.026950364932417904 0.09909871220588684
v -0.051349591463804335 -0.026950364932417904 0.09909871220588684
v -0.04772669076919564 -0.032943379133939785 0.09909871220588684
v 0.038455959409475396 0.04340785741806036 0.09909871220588684
v 0.057569447904825315 -0.0069901687093079186 0.09909871220588684
v 0.057992257177829847 2.6914760198337754e-08 0.09909871220588684
v 0.038455959409475396 0.04340785741806036 0.09909871220588684
v 0.006990172900259507 0.057569451630115585 0.09909871220588684
v -2.2583019898547758e-08 0.05799226090312012 0.09909871220588684
v 0.038455959409475396 0.04340785741806036 0.09909871220588684
v 0.038455959409475396 0.04340785741806036 0.09909871220588684
v 0.054223712533712484 -0.02056431584060195 0.09909871220588684
v 0.05630712211132059 -0.01387843396514656 0.09909871220588684
v 0.038455959409475396 0.04340785741806036 0.09909871220588684
v 0.03294334560632711 0.04772672057151801 0.09909871220588684
v 0.026950329542160083 0.051349617540836404 0.09909871220588684
v 0.038455959409475396 0.04340785741806036 0.09909871220588684
v 0.057992257177829847 2.6914760198337754e-08 0.09909871220588684
v 0.05756944045424472 0.006990221794694672 0.09909871220588684
v 0.051349613815546126 -0.02695032581686977 0.09909871220588684
v 0.054223712533712484 -0.02056431584060195 0.09909871220588684
v 0.038455959409475396 0.04340785741806036 0.09909871220588684
v 0.038455959409475396 0.04340785741806036 0.09909871220588684
v 0.026950329542160083 0.051349617540836404 0.09909871220588684
v 0.020564321428537407 0.054223716259002755 0.09909871220588684
v -0.03845599666237838 0.04340782761573797 0.09909871220588684
v 0.038455959409475396 0.04340785741806036 0.09909871220588684
v -0.0329433828592301 0.04772669449448592 0.09909871220588684
usemtl DefaultMaterial
f 1 2 3
f 4 5 6
f 7 8 9
f 10 11 12
f 13 14 15
f 16 17 18
f 19 20 21
f 22 23 24
f 25 26 27
f 28 29 30
f 31 32 33
f 34 35 36
f 37 38 39
f 40 41 42
f 43 44 45
f 46 47 48
f 49 50 51
f 52 53 54
f 55 56 57
f 58 59 60
f 61 62 63
f 64 65 66
f 67 68 69
f 70 71 72
f 73 74 75
f 76 77 78
f 79 80 81
f 82 83 84
f 85 86 87
f 88 89 90
f 91 92 93
f 94 95 96
f 97 98 99
f 100 101 102
f 103 104 105
f 106 107 108
f 109 110 111
f 112 113 114
f 115 116 117
f 118 119 120
f 121 122 123
f 124 125 126
f 127 128 129
f 130 131 132
f 133 134 135
f 136 137 138
f 139 140 141
f 142 143 144
f 145 146 147
f 148 149 150
f 151 152 153
f 154 155 156
f 157 158 159
f 160 161 162
f 163 164 165
f 166 167 168
f 169 170 171
f 172 173 174
f 175 176 177
f 178 179 180
f 181 182 183
f 184 185 186
f 187 188 189
f 190 191 192
f 193 194 195
f 196 197 198
f 199 200 201
f 202 203 204
f 205 206 207
f 208 209 210
f 211 212 213
f 214 215 216
f 217 218 219
f 220 221 222
f 223 224 225
f 226 227 228
f 229 230 231
f 232 233 234
f 235 236 237
f 238 239 240
f 241 242 243
f 244 245 246
f 247 248 249
f 250 251 252
f 253 254 255
f 256 257 258
f 259 260 261
f 262 263 264
f 265 266 267
f 268 269 270
f 271 272 273
f 274 275 276
f 277 278 279
f 280 281 282
f 283 284 285
f 286 287 288
f 289 290 291
f 292 293 294
f 295 296 297
f 298 299 300
f 301 302 303
f 304 305 306
f 307 308 309
f 310 311 312
f 313 314 315
f 316 317 318
f 319 320 321
f 322 323 324
f 325 326 327
f 328 329 330
f 331 332 333
f 334 335 336
f 337 338 339
f 340 341 342
f 343 344 345
f 346 347 348
f 349 350 351
f 352 353 354
f 355 356 357
f 358 359 360
f 361 362 363
f 364 365 366
f 367 368 369
f 370 371 372
f 373 374 375
f 376 377 378
f 379 380 381
f 382 383 384
f 385 386 387
f 388 389 390
f 391 392 393
f 394 395 396
f 397 398 399
f 400 401 402
f 403 404 405
f 406 407 408
f 409 410 411
f 412 413 414
f 415 416 417
f 418 419 420
f 421 422 423
f 424 425 426
f 427 428 429
f 430 431 432
f 433 434 435
f 436 437 438
f 439 440 441
f 442 443 444
f 445 446 447
f 448 449 450
f 451 452 453
f 454 455 456
f 457 458 459
f 460 461 462
f 463 464 465
f 466 467 468
f 469 470 471
f 472 473 474
f 475 476 477
f 478 479 480
f 481 482 483
f 484 485 486
f 487 488 489
f 490 491 492
f 493 494 495
f 496 497 498
f 499 500 501
f 502 503 504
f 505 506 507
f 508 509 510
f 511 512 513
f 514 515 516
f 517 518 519
f 520 521 522
f 523 524 525
f 526 527 528
f 529 530 531
f 532 533 534
f 535 536 537
f 538 539 540
f 541 542 543
f 544 545 546
f 547 548 549
f 550 551 552
f 553 554 555
f 556 557 558
f 559 560 561
f 562 563 564
f 565 566 567
f 568 569 570
f 571 572 573
f 574 575 576
f 577 578 579
f 580 581 582
f 583 584 585
f 586 587 588
f 589 590 591
f 592 593 594
f 595 596 597
f 598 599 600
f 601 602 603
f 604 605 606
f 607 608 609
f 610 611 612
f 613 614 615
f 616 617 618
f 619 620 621
f 622 623 624
f 625 626 627
f 628 629 630
f 631 632 633
f 634 635 636
f 637 638 639
f 640 641 642
f 643 644 645
f 646 647 648
f 649 650 651
f 652 653 654
f 655 656 657
f 658 659 660
f 661 662 663
f 664 665 666
f 667 668 669
f 670 671 672
f 673 674 675
f 676 677 678
f 679 680 681
f 682 683 684
f 685 686 687
f 688 689 690
f 691 692 693
f 694 695 696
f 697 698 699
f 700 701 702
f 703 704 705
f 706 707 708
f 709 710 711
f 712 713 714
f 715 716 717
f 718 719 720
f 721 722 723
f 724 725 726
f 727 728 729
f 730 731 732
f 733 734 735
f 736 737 738
f 739 740 741
f 742 743 744
f 745 746 747
f 748 749 750
f 751 752 753
f 754 755 756
f 757 758 759
f 760 761 762
f 763 764 765
f 766 767 768
f 769 770 771
f 772 773 774
f 775 776 777
f 778 779 780
f 781 782 783
f 784 785 786
f 787 788 789
f 790 791 792
f 793 794 795
f 796 797 798
f 799 800 801
f 802 803 804
f 805 806 807
f 808 809 810
f 811 812 813
f 814 815 816
f 817 818 819
f 820 821 822
f 823 824 825
f 826 827 828
f 829 830 831
f 832 833 834
f 835 836 837
f 838 839 840
f 841 842 843
f 844 845 846
f 847 848 849
f 850 851 852
f 853 854 855
f 856 857 858
f 859 860 861
f 862 863 864
f 865 866 867
f 868 869 870
f 871 872 873
f 874 875 876
f 877 878 879
f 880 881 882
f 883 884 885
f 886 887 888
f 889 890 891
f 892 893 894
f 895 896 897
f 898 899 900
f 901 902 903
f 904 905 906
f 907 908 909
f 910 911 912
f 913 914 915
f 916 917 918
f 919 920 921
f 922 923 924
f 925 926 927
f 928 929 930
f 931 932 933
f 934 935 936
f 937 938 939
f 940 941 942
f 943 944 945
f 946 947 948
f 949 950 951
f 952 953 954
f 955 956 957
f 958 959 960
f 961 962 963
f 964 965 966
f 967 968 969
f 970 971 972
f 973 974 975
f 976 977 978
f 979 980 981
f 982 983 984
f 985 986 987
f 988 989 990
f 991 992 993
f 994 995 996
f 997 998 999
f 1000 1001 1002
f 1003 1004 1005
f 1006 1007 1008
f 1009 1010 1011
f 1012 1013 1014
f 1015 1016 1017
f 1018 1019 1020
f 1021 1022 1023
f 1024 1025 1026
f 1027 1028 1029
f 1030 1031 1032
f 1033 1034 1035
f 1036 1037 1038
f 1039 1040 1041
f 1042 1043 1044
f 1045 1046 1047
f 1048 1049 1050
f 1051 1052 1053
f 1054 1055 1056
f 1057 1058 1059
f 1060 1061 1062
f 1063 1064 1065
f 1066 1067 1068
f 1069 1070 1071
f 1072 1073 1074
f 1075 1076 1077
f 1078 1079 1080
f 1081 1082 1083
f 1084 1085 1086
f 1087 1088 1089
f 1090 1091 1092
f 1093 1094 1095
f 1096 1097 1098
f 1099 1100 1101
f 1102 1103 1104
f 1105 1106 1107
f 1108 1109 1110
f 1111 1112 1113
f 1114 1115 1116
f 1117 1118 1119
f 1120 1121 1122
f 1123 1124 1125
f 1126 1127 1128
f 1129 1130 1131
f 1132 1133 1134
f 1135 1136 1137
f 1138 1139 1140
f 1141 1142 1143
f 1144 1145 1146
f 1147 1148 1149
f 1150 1151 1152
f 1153 1154 1155
f 1156 1157 1158
f 1159 1160 1161
f 1162 1163 1164
f 1165 1166 1167
f 1168 1169 1170
f 1171 1172 1173
f 1174 1175 1176
f 1177 1178 1179
f 1180 1181 1182
f 1183 1184 1185
f 1186 1187 1188
f 1189 1190 1191
f 1192 1193 1194
f 1195 1196 1197
f 1198 1199 1200
f 1201 1202 1203
f 1204 1205 1206
f 1207 1208 1209
f 1210 1211 1212
f 1213 1214 1215
f 1216 1217 1218
f 1219 1220 1221
f 1222 1223 1224
f 1225 1226 1227
f 1228 1229 1230
f 1231 1232 1233
f 1234 1235 1236
f 1237 1238 1239
f 1240 1241 1242
f 1243 1244 1245
f 1246 1247 1248
f 1249 1250 1251
f 1252 1253 1254
f 1255 1256 1257
f 1258 1259 1260
