mtllib left_inner_finger_collisions_robotiq_arg2f_140_inner_finger_node_STL_BINARY__mesh.mtl
v 0.007300002034753563 0.0016234925715252757 0.00472908653318882
v 0.006800001021474602 0.0021413227077573538 0.005604887381196022
v 0.006800001021474602 0.00047550711315125227 0.005981128662824631
v 0.006800001021474602 0.0021413227077573538 0.005604887381196022
v 0.007300002034753563 0.0016234925715252757 0.00472908653318882
v 0.006800001021474602 0.04451548680663109 -0.01390114426612854
v -0.0076999985612928885 0.011094357818365097 -0.015892667695879936
v -0.0076999985612928885 0.004578869789838791 0.0020084772258996964
v -0.007199997548013927 0.04451548680663109 -0.01390114426612854
v -0.007199997548013927 0.04451548680663109 -0.023901144042611122
v -0.0076999985612928885 0.006515484303236008 -0.02290114387869835
v -0.0076999985612928885 0.008138980716466904 -0.022630229592323303
v -0.0076999985612928885 0.004891987890005112 -0.022630229592323303
v -0.0076999985612928885 0.006515484303236008 -0.02290114387869835
v -0.007199997548013927 0.0047112517058849335 -0.023623446002602577
v 0.006800001021474602 0.00047550711315125227 0.005981128662824631
v 0.007300002034753563 -3.847587581873313e-09 0.004999999888241291
v 0.007300002034753563 0.0016234925715252757 0.00472908653318882
v -0.0076999985612928885 -0.004846993833780289 -0.0012274272739887238
v -0.007199997548013927 -0.005638156086206436 -0.002052120864391327
v -0.007199997548013927 -0.005987916141748428 -0.00038054349715821445
v -0.007199997548013927 -0.005638156086206436 -0.002052120864391327
v -0.0076999985612928885 0.0016684791771695018 -0.019128572195768356
v -0.007199997548013927 0.0008773318259045482 -0.01995326392352581
v -0.007199997548013927 -0.005638156086206436 -0.002052120864391327
v -0.0076999985612928885 -0.004846993833780289 -0.0012274272739887238
v -0.0076999985612928885 0.0016684791771695018 -0.019128572195768356
v -0.0076999985612928885 0.0023797412868589163 0.004397368989884853
v -0.007199997548013927 0.0021413227077573538 0.005604887381196022
v -0.007199997548013927 0.04451548680663109 -0.01390114426612854
v -0.007199997548013927 0.0021413227077573538 0.005604887381196022
v -0.0076999985612928885 0.0023797412868589163 0.004397368989884853
v -0.0076999985612928885 0.0008229723898693919 0.0049318065866827965
v 0.007300002034753563 0.0016234925715252757 0.00472908653318882
v 0.007300002034753563 0.0030710657592862844 0.003945702686905861
v 0.006800001021474602 0.04451548680663109 -0.01390114426612854
v 0.006800001021474602 0.04451548680663109 -0.01390114426612854
v 0.007300002034753563 0.0030710657592862844 0.003945702686905861
v 0.007300002034753563 0.004185836762189865 0.002734741196036339
v 0.006800001021474602 -0.005987916141748428 -0.00038054349715821445
v 0.007300002034753563 -0.004982922226190567 -0.00041289671207778156
v 0.006800001021474602 -0.005852583795785904 0.0013218633830547333
v -0.007199997548013927 -0.0012288430007174611 0.005872814916074276
v -0.0076999985612928885 -0.0008229800732806325 0.0049318065866827965
v -0.0076999985612928885 -0.0023797343019396067 0.004397368989884853
v -0.0076999985612928885 0.0008229723898693919 0.0049318065866827965
v -0.007199997548013927 0.00047550711315125227 0.005981128662824631
v -0.007199997548013927 0.0021413227077573538 0.005604887381196022
v -0.0076999985612928885 -0.0008229800732806325 0.0049318065866827965
v -0.007199997548013927 0.00047550711315125227 0.005981128662824631
v -0.0076999985612928885 0.0008229723898693919 0.0049318065866827965
v -0.007199997548013927 -0.0012288430007174611 0.005872814916074276
v -0.007199997548013927 0.00047550711315125227 0.005981128662824631
v -0.0076999985612928885 -0.0008229800732806325 0.0049318065866827965
v -0.007199997548013927 -0.004208851605653763 0.004276164807379246
v -0.007199997548013927 -0.0028336236719042063 0.00528872013092041
v -0.0076999985612928885 -0.0023797343019396067 0.004397368989884853
v -0.007199997548013927 -0.0028336236719042063 0.00528872013092041
v -0.007199997548013927 -0.0012288430007174611 0.005872814916074276
v -0.0076999985612928885 -0.0023797343019396067 0.004397368989884853
v 0.007300002034753563 -3.847587581873313e-09 0.004999999888241291
v 0.006800001021474602 -0.0012288430007174611 0.005872814916074276
v 0.007300002034753563 -0.0016235002549365163 0.00472908653318882
v 0.007300002034753563 -3.847587581873313e-09 0.004999999888241291
v 0.006800001021474602 0.00047550711315125227 0.005981128662824631
v 0.006800001021474602 -0.0012288430007174611 0.005872814916074276
v 0.007300002034753563 0.004185836762189865 0.002734741196036339
v 0.007300002034753563 0.004847001284360886 0.0012274272739887238
v 0.006800001021474602 0.04451548680663109 -0.01390114426612854
v 0.006800001021474602 0.04451548680663109 -0.01390114426612854
v 0.007300002034753563 0.004847001284360886 0.0012274272739887238
v 0.007300002034753563 0.011362489312887192 -0.01667371578514576
v -0.0076999985612928885 0.006515484303236008 -0.02290114387869835
v -0.007199997548013927 0.006515484303236008 -0.023901144042611122
v -0.007199997548013927 0.0047112517058849335 -0.023623446002602577
v -0.0076999985612928885 0.006515484303236008 -0.02290114387869835
v -0.007199997548013927 0.04451548680663109 -0.023901144042611122
v -0.007199997548013927 0.006515484303236008 -0.023901144042611122
v -0.007199997548013927 0.04451548680663109 -0.023901144042611122
v -0.0076999985612928885 0.008138980716466904 -0.022630229592323303
v -0.0076999985612928885 0.009586554020643234 -0.021846845746040344
v -0.0076999985612928885 0.011498402804136276 -0.01748824678361416
v -0.0076999985612928885 0.011094357818365097 -0.015892667695879936
v -0.007199997548013927 0.04451548680663109 -0.01390114426612854
v -0.007199997548013927 0.04451548680663109 -0.023901144042611122
v -0.0076999985612928885 0.011498402804136276 -0.01748824678361416
v -0.007199997548013927 0.04451548680663109 -0.01390114426612854
v -0.0076999985612928885 0.011362489312887192 -0.019128572195768356
v -0.0076999985612928885 0.011498402804136276 -0.01748824678361416
v -0.007199997548013927 0.04451548680663109 -0.023901144042611122
v 0.007300002034753563 -0.004982922226190567 -0.00041289671207778156
v 0.006800001021474602 -0.005638156086206436 -0.002052120864391327
v 0.007300002034753563 -0.004578862339258194 -0.0020084772258996964
v 0.007300002034753563 -0.004982922226190567 -0.00041289671207778156
v 0.006800001021474602 -0.005987916141748428 -0.00038054349715821445
v 0.006800001021474602 -0.005638156086206436 -0.002052120864391327
v 0.006800001021474602 0.0008773318259045482 -0.01995326392352581
v 0.007300002034753563 0.0019366106716915965 -0.01990962028503418
v 0.006800001021474602 -0.005638156086206436 -0.002052120864391327
v 0.006800001021474602 -0.005638156086206436 -0.002052120864391327
v 0.007300002034753563 0.0019366106716915965 -0.01990962028503418
v 0.007300002034753563 -0.004578862339258194 -0.0020084772258996964
v -0.0076999985612928885 0.004891987890005112 -0.022630229592323303
v -0.007199997548013927 0.0047112517058849335 -0.023623446002602577
v -0.007199997548013927 0.00307403109036386 -0.02281605638563633
v 0.006800001021474602 0.0017553678480908275 -0.021553711965680122
v 0.007300002034753563 0.0019366106716915965 -0.01990962028503418
v 0.006800001021474602 0.0008773318259045482 -0.01995326392352581
v 0.007300002034753563 -0.004185829311609268 0.002734741196036339
v 0.007300002034753563 -0.003071058774366975 0.003945702686905861
v 0.006800001021474602 -0.004208851605653763 0.004276164807379246
v -0.007199997548013927 0.00307403109036386 -0.02281605638563633
v -0.0076999985612928885 0.0034444143529981375 -0.021846845746040344
v -0.0076999985612928885 0.004891987890005112 -0.022630229592323303
v -0.007199997548013927 0.0017553678480908275 -0.021553711965680122
v -0.0076999985612928885 0.0034444143529981375 -0.021846845746040344
v -0.007199997548013927 0.00307403109036386 -0.02281605638563633
v 0.006800001021474602 -0.005243096500635147 0.0029171807691454887
v 0.007300002034753563 -0.004185829311609268 0.002734741196036339
v 0.006800001021474602 -0.004208851605653763 0.004276164807379246
v -0.0076999985612928885 0.004578869789838791 0.0020084772258996964
v -0.0076999985612928885 0.003678615903481841 0.0033864080905914307
v -0.007199997548013927 0.04451548680663109 -0.01390114426612854
v -0.0076999985612928885 0.003678615903481841 0.0033864080905914307
v -0.0076999985612928885 0.0023797412868589163 0.004397368989884853
v -0.007199997548013927 0.04451548680663109 -0.01390114426612854
v 0.007300002034753563 -0.004982922226190567 -0.00041289671207778156
v 0.007300002034753563 -0.004846993833780289 0.0012274272739887238
v 0.006800001021474602 -0.005852583795785904 0.0013218633830547333
v 0.007300002034753563 -0.004846993833780289 0.0012274272739887238
v 0.006800001021474602 -0.005243096500635147 0.0029171807691454887
v 0.006800001021474602 -0.005852583795785904 0.0013218633830547333
v 0.006800001021474602 -0.005243096500635147 0.0029171807691454887
v 0.007300002034753563 -0.004846993833780289 0.0012274272739887238
v 0.007300002034753563 -0.004185829311609268 0.002734741196036339
v 0.006800001021474602 -0.0012288430007174611 0.005872814916074276
v 0.006800001021474602 -0.0028336236719042063 0.00528872013092041
v 0.007300002034753563 -0.0016235002549365163 0.00472908653318882
v 0.007300002034753563 -0.003071058774366975 0.003945702686905861
v 0.007300002034753563 -0.0016235002549365163 0.00472908653318882
v 0.006800001021474602 -0.0028336236719042063 0.00528872013092041
v 0.007300002034753563 -0.003071058774366975 0.003945702686905861
v 0.006800001021474602 -0.0028336236719042063 0.00528872013092041
v 0.006800001021474602 -0.004208851605653763 0.004276164807379246
v 0.007300002034753563 0.010194104164838791 -0.021287551149725914
v 0.006800001021474602 0.04451548680663109 -0.023901144042611122
v 0.007300002034753563 0.011094357818365097 -0.01990962028503418
v 0.006800001021474602 0.04451548680663109 -0.023901144042611122
v 0.007300002034753563 0.011498402804136276 -0.018314041197299957
v 0.007300002034753563 0.011094357818365097 -0.01990962028503418
v 0.006800001021474602 0.04451548680663109 -0.01390114426612854
v 0.007300002034753563 0.011498402804136276 -0.018314041197299957
v 0.006800001021474602 0.04451548680663109 -0.023901144042611122
v 0.007300002034753563 0.011362489312887192 -0.01667371578514576
v 0.007300002034753563 0.011498402804136276 -0.018314041197299957
v 0.006800001021474602 0.04451548680663109 -0.01390114426612854
v -0.0076999985612928885 0.010701309889554977 -0.020635884255170822
v -0.0076999985612928885 0.011362489312887192 -0.019128572195768356
v -0.007199997548013927 0.04451548680663109 -0.023901144042611122
v -0.0076999985612928885 0.009586554020643234 -0.021846845746040344
v -0.0076999985612928885 0.010701309889554977 -0.020635884255170822
v -0.007199997548013927 0.04451548680663109 -0.023901144042611122
v -0.0076999985612928885 0.0023296584840863943 -0.020635884255170822
v -0.0076999985612928885 0.0034444143529981375 -0.021846845746040344
v -0.007199997548013927 0.0017553678480908275 -0.021553711965680122
v -0.007199997548013927 0.0008773318259045482 -0.01995326392352581
v -0.0076999985612928885 0.0023296584840863943 -0.020635884255170822
v -0.007199997548013927 0.0017553678480908275 -0.021553711965680122
v -0.0076999985612928885 0.0016684791771695018 -0.019128572195768356
v -0.0076999985612928885 0.0023296584840863943 -0.020635884255170822
v -0.007199997548013927 0.0008773318259045482 -0.01995326392352581
v -0.0076999985612928885 -0.004578862339258194 0.0020084772258996964
v -0.0076999985612928885 -0.004982922226190567 0.00041289677028544247
v -0.007199997548013927 -0.005852583795785904 0.0013218633830547333
v -0.007199997548013927 -0.005852583795785904 0.0013218633830547333
v -0.0076999985612928885 -0.004982922226190567 0.00041289677028544247
v -0.007199997548013927 -0.005987916141748428 -0.00038054349715821445
v -0.0076999985612928885 -0.004982922226190567 0.00041289677028544247
v -0.0076999985612928885 -0.004846993833780289 -0.0012274272739887238
v -0.007199997548013927 -0.005987916141748428 -0.00038054349715821445
v -0.007199997548013927 -0.004208851605653763 0.004276164807379246
v -0.0076999985612928885 -0.0023797343019396067 0.004397368989884853
v -0.0076999985612928885 -0.0036786238197237253 0.0033864080905914307
v -0.007199997548013927 -0.005243096500635147 0.0029171807691454887
v -0.0076999985612928885 -0.004578862339258194 0.0020084772258996964
v -0.007199997548013927 -0.005852583795785904 0.0013218633830547333
v -0.007199997548013927 -0.005243096500635147 0.0029171807691454887
v -0.0076999985612928885 -0.0036786238197237253 0.0033864080905914307
v -0.0076999985612928885 -0.004578862339258194 0.0020084772258996964
v -0.0076999985612928885 -0.0036786238197237253 0.0033864080905914307
v -0.007199997548013927 -0.005243096500635147 0.0029171807691454887
v -0.007199997548013927 -0.004208851605653763 0.004276164807379246
v 0.006800001021474602 0.04451548680663109 -0.023901144042611122
v 0.007300002034753563 0.008895214647054672 -0.02229851298034191
v 0.007300002034753563 0.00733846053481102 -0.022832950577139854
v 0.007300002034753563 0.010194104164838791 -0.021287551149725914
v 0.007300002034753563 0.008895214647054672 -0.02229851298034191
v 0.006800001021474602 0.04451548680663109 -0.023901144042611122
v 0.007300002034753563 0.004135753959417343 -0.02229851298034191
v 0.006800001021474602 0.0047112517058849335 -0.023623446002602577
v 0.007300002034753563 0.0056925080716609955 -0.022832950577139854
v 0.006800001021474602 0.006515484303236008 -0.023901144042611122
v 0.007300002034753563 0.0056925080716609955 -0.022832950577139854
v 0.006800001021474602 0.0047112517058849335 -0.023623446002602577
v 0.007300002034753563 0.004135753959417343 -0.02229851298034191
v 0.006800001021474602 0.00307403109036386 -0.02281605638563633
v 0.006800001021474602 0.0047112517058849335 -0.023623446002602577
v 0.006800001021474602 0.0017553678480908275 -0.021553711965680122
v 0.007300002034753563 0.002836864208802581 -0.021287551149725914
v 0.007300002034753563 0.0019366106716915965 -0.01990962028503418
v 0.006800001021474602 0.00307403109036386 -0.02281605638563633
v 0.007300002034753563 0.002836864208802581 -0.021287551149725914
v 0.006800001021474602 0.0017553678480908275 -0.021553711965680122
v 0.006800001021474602 0.00307403109036386 -0.02281605638563633
v 0.007300002034753563 0.004135753959417343 -0.02229851298034191
v 0.007300002034753563 0.002836864208802581 -0.021287551149725914
v 0.006800001021474602 0.04451548680663109 -0.01390114426612854
v -0.007199997548013927 0.04451548680663109 -0.01390114426612854
v -0.007199997548013927 0.0021413227077573538 0.005604887381196022
v 0.006800001021474602 0.0021413227077573538 0.005604887381196022
v 0.006800001021474602 0.04451548680663109 -0.01390114426612854
v -0.007199997548013927 0.0021413227077573538 0.005604887381196022
v 0.006800001021474602 -0.005852583795785904 0.0013218633830547333
v -0.007199997548013927 -0.005852583795785904 0.0013218633830547333
v 0.006800001021474602 -0.005987916141748428 -0.00038054349715821445
v 0.006800001021474602 -0.005987916141748428 -0.00038054349715821445
v -0.007199997548013927 -0.005852583795785904 0.0013218633830547333
v -0.007199997548013927 -0.005987916141748428 -0.00038054349715821445
v -0.007199997548013927 0.0021413227077573538 0.005604887381196022
v -0.007199997548013927 0.00047550711315125227 0.005981128662824631
v 0.006800001021474602 0.0021413227077573538 0.005604887381196022
v 0.006800001021474602 0.0021413227077573538 0.005604887381196022
v -0.007199997548013927 0.00047550711315125227 0.005981128662824631
v 0.006800001021474602 0.00047550711315125227 0.005981128662824631
v -0.007199997548013927 0.00047550711315125227 0.005981128662824631
v 0.006800001021474602 -0.0012288430007174611 0.005872814916074276
v 0.006800001021474602 0.00047550711315125227 0.005981128662824631
v 0.006800001021474602 -0.0012288430007174611 0.005872814916074276
v -0.007199997548013927 0.00047550711315125227 0.005981128662824631
v -0.007199997548013927 -0.0012288430007174611 0.005872814916074276
v -0.007199997548013927 0.006515484303236008 -0.023901144042611122
v 0.006800001021474602 0.006515484303236008 -0.023901144042611122
v 0.006800001021474602 0.0047112517058849335 -0.023623446002602577
v -0.007199997548013927 0.0047112517058849335 -0.023623446002602577
v -0.007199997548013927 0.006515484303236008 -0.023901144042611122
v 0.006800001021474602 0.0047112517058849335 -0.023623446002602577
v 0.006800001021474602 0.04451548680663109 -0.01390114426612854
v 0.006800001021474602 0.04451548680663109 -0.023901144042611122
v -0.007199997548013927 0.04451548680663109 -0.01390114426612854
v -0.007199997548013927 0.04451548680663109 -0.023901144042611122
v -0.007199997548013927 0.04451548680663109 -0.01390114426612854
v 0.006800001021474602 0.04451548680663109 -0.023901144042611122
v -0.007199997548013927 0.006515484303236008 -0.023901144042611122
v 0.006800001021474602 0.04451548680663109 -0.023901144042611122
v 0.006800001021474602 0.006515484303236008 -0.023901144042611122
v -0.007199997548013927 0.006515484303236008 -0.023901144042611122
v -0.007199997548013927 0.04451548680663109 -0.023901144042611122
v 0.006800001021474602 0.04451548680663109 -0.023901144042611122
v -0.007199997548013927 -0.005987916141748428 -0.00038054349715821445
v 0.006800001021474602 -0.005638156086206436 -0.002052120864391327
v 0.006800001021474602 -0.005987916141748428 -0.00038054349715821445
v -0.007199997548013927 -0.005638156086206436 -0.002052120864391327
v 0.006800001021474602 -0.005638156086206436 -0.002052120864391327
v -0.007199997548013927 -0.005987916141748428 -0.00038054349715821445
v 0.006800001021474602 0.0008773318259045482 -0.01995326392352581
v 0.006800001021474602 -0.005638156086206436 -0.002052120864391327
v -0.007199997548013927 0.0008773318259045482 -0.01995326392352581
v 0.006800001021474602 -0.005638156086206436 -0.002052120864391327
v -0.007199997548013927 -0.005638156086206436 -0.002052120864391327
v -0.007199997548013927 0.0008773318259045482 -0.01995326392352581
v -0.007199997548013927 0.0008773318259045482 -0.01995326392352581
v 0.006800001021474602 0.0017553678480908275 -0.021553711965680122
v 0.006800001021474602 0.0008773318259045482 -0.01995326392352581
v -0.007199997548013927 0.0017553678480908275 -0.021553711965680122
v 0.006800001021474602 0.0017553678480908275 -0.021553711965680122
v -0.007199997548013927 0.0008773318259045482 -0.01995326392352581
v -0.007199997548013927 -0.0028336236719042063 0.00528872013092041
v -0.007199997548013927 -0.004208851605653763 0.004276164807379246
v 0.006800001021474602 -0.0028336236719042063 0.00528872013092041
v -0.007199997548013927 -0.004208851605653763 0.004276164807379246
v 0.006800001021474602 -0.004208851605653763 0.004276164807379246
v 0.006800001021474602 -0.0028336236719042063 0.00528872013092041
v 0.006800001021474602 -0.0028336236719042063 0.00528872013092041
v 0.006800001021474602 -0.0012288430007174611 0.005872814916074276
v -0.007199997548013927 -0.0012288430007174611 0.005872814916074276
v -0.007199997548013927 -0.0028336236719042063 0.00528872013092041
v 0.006800001021474602 -0.0028336236719042063 0.00528872013092041
v -0.007199997548013927 -0.0012288430007174611 0.005872814916074276
v -0.0076999985612928885 0.010701309889554977 -0.020635884255170822
v -0.0076999985612928885 0.009586554020643234 -0.021846845746040344
v -0.0076999985612928885 -0.0036786238197237253 0.0033864080905914307
v -0.0076999985612928885 0.003678615903481841 0.0033864080905914307
v -0.0076999985612928885 -0.0036786238197237253 0.0033864080905914307
v -0.0076999985612928885 0.0023797412868589163 0.004397368989884853
v -0.0076999985612928885 0.0023296584840863943 -0.020635884255170822
v -0.0076999985612928885 -0.0036786238197237253 0.0033864080905914307
v -0.0076999985612928885 0.0034444143529981375 -0.021846845746040344
v -0.0076999985612928885 0.004578869789838791 0.0020084772258996964
v -0.0076999985612928885 0.011094357818365097 -0.015892667695879936
v -0.0076999985612928885 -0.0036786238197237253 0.0033864080905914307
v -0.0076999985612928885 0.006515484303236008 -0.02290114387869835
v -0.0076999985612928885 0.004891987890005112 -0.022630229592323303
v -0.0076999985612928885 -0.0036786238197237253 0.0033864080905914307
v -0.0076999985612928885 0.0016684791771695018 -0.019128572195768356
v -0.0076999985612928885 -0.004846993833780289 -0.0012274272739887238
v -0.0076999985612928885 -0.0036786238197237253 0.0033864080905914307
v -0.0076999985612928885 -0.0008229800732806325 0.0049318065866827965
v -0.0076999985612928885 -0.0036786238197237253 0.0033864080905914307
v -0.0076999985612928885 -0.0023797343019396067 0.004397368989884853
v -0.0076999985612928885 0.006515484303236008 -0.02290114387869835
v -0.0076999985612928885 -0.0036786238197237253 0.0033864080905914307
v -0.0076999985612928885 0.008138980716466904 -0.022630229592323303
v -0.0076999985612928885 0.011498402804136276 -0.01748824678361416
v -0.0076999985612928885 0.011362489312887192 -0.019128572195768356
v -0.0076999985612928885 -0.0036786238197237253 0.0033864080905914307
v -0.0076999985612928885 0.0023797412868589163 0.004397368989884853
v -0.0076999985612928885 -0.0036786238197237253 0.0033864080905914307
v -0.0076999985612928885 0.0008229723898693919 0.0049318065866827965
v -0.0076999985612928885 -0.0036786238197237253 0.0033864080905914307
v -0.0076999985612928885 -0.0008229800732806325 0.0049318065866827965
v -0.0076999985612928885 0.0008229723898693919 0.0049318065866827965
v -0.0076999985612928885 0.009586554020643234 -0.021846845746040344
v -0.0076999985612928885 0.008138980716466904 -0.022630229592323303
v -0.0076999985612928885 -0.0036786238197237253 0.0033864080905914307
v -0.0076999985612928885 0.011498402804136276 -0.01748824678361416
v -0.0076999985612928885 -0.0036786238197237253 0.0033864080905914307
v -0.0076999985612928885 0.011094357818365097 -0.015892667695879936
v -0.0076999985612928885 0.0034444143529981375 -0.021846845746040344
v -0.0076999985612928885 -0.0036786238197237253 0.0033864080905914307
v -0.0076999985612928885 0.004891987890005112 -0.022630229592323303
v -0.0076999985612928885 -0.004982922226190567 0.00041289677028544247
v -0.0076999985612928885 -0.004578862339258194 0.0020084772258996964
v -0.0076999985612928885 -0.0036786238197237253 0.0033864080905914307
v -0.0076999985612928885 0.003678615903481841 0.0033864080905914307
v -0.0076999985612928885 0.004578869789838791 0.0020084772258996964
v -0.0076999985612928885 -0.0036786238197237253 0.0033864080905914307
v -0.0076999985612928885 0.010701309889554977 -0.020635884255170822
v -0.0076999985612928885 -0.0036786238197237253 0.0033864080905914307
v -0.0076999985612928885 0.011362489312887192 -0.019128572195768356
v -0.0076999985612928885 0.0023296584840863943 -0.020635884255170822
v -0.0076999985612928885 0.0016684791771695018 -0.019128572195768356
v -0.0076999985612928885 -0.0036786238197237253 0.0033864080905914307
v -0.0076999985612928885 -0.004982922226190567 0.00041289677028544247
v -0.0076999985612928885 -0.0036786238197237253 0.0033864080905914307
v -0.0076999985612928885 -0.004846993833780289 -0.0012274272739887238
v -0.007199997548013927 -0.004208851605653763 0.004276164807379246
v -0.007199997548013927 -0.005243096500635147 0.0029171807691454887
v 0.006800001021474602 -0.004208851605653763 0.004276164807379246
v 0.006800001021474602 -0.004208851605653763 0.004276164807379246
v -0.007199997548013927 -0.005243096500635147 0.0029171807691454887
v 0.006800001021474602 -0.005243096500635147 0.0029171807691454887
v -0.007199997548013927 -0.005852583795785904 0.0013218633830547333
v 0.006800001021474602 -0.005852583795785904 0.0013218633830547333
v -0.007199997548013927 -0.005243096500635147 0.0029171807691454887
v 0.006800001021474602 -0.005243096500635147 0.0029171807691454887
v -0.007199997548013927 -0.005243096500635147 0.0029171807691454887
v 0.006800001021474602 -0.005852583795785904 0.0013218633830547333
v 0.006800001021474602 0.04451548680663109 -0.023901144042611122
v 0.007300002034753563 0.0056925080716609955 -0.022832950577139854
v 0.006800001021474602 0.006515484303236008 -0.023901144042611122
v 0.007300002034753563 0.0056925080716609955 -0.022832950577139854
v 0.006800001021474602 0.04451548680663109 -0.023901144042611122
v 0.007300002034753563 0.00733846053481102 -0.022832950577139854
v 0.006800001021474602 0.0047112517058849335 -0.023623446002602577
v 0.006800001021474602 0.00307403109036386 -0.02281605638563633
v -0.007199997548013927 0.0047112517058849335 -0.023623446002602577
v 0.006800001021474602 0.00307403109036386 -0.02281605638563633
v -0.007199997548013927 0.00307403109036386 -0.02281605638563633
v -0.007199997548013927 0.0047112517058849335 -0.023623446002602577
v 0.006800001021474602 0.00307403109036386 -0.02281605638563633
v 0.006800001021474602 0.0017553678480908275 -0.021553711965680122
v -0.007199997548013927 0.0017553678480908275 -0.021553711965680122
v -0.007199997548013927 0.00307403109036386 -0.02281605638563633
v 0.006800001021474602 0.00307403109036386 -0.02281605638563633
v -0.007199997548013927 0.0017553678480908275 -0.021553711965680122
v 0.007300002034753563 0.004847001284360886 0.0012274272739887238
v 0.007300002034753563 0.002836864208802581 -0.021287551149725914
v 0.007300002034753563 0.011362489312887192 -0.01667371578514576
v 0.007300002034753563 -0.003071058774366975 0.003945702686905861
v 0.007300002034753563 -0.004185829311609268 0.002734741196036339
v 0.007300002034753563 0.002836864208802581 -0.021287551149725914
v 0.007300002034753563 -0.0016235002549365163 0.00472908653318882
v 0.007300002034753563 0.002836864208802581 -0.021287551149725914
v 0.007300002034753563 -3.847587581873313e-09 0.004999999888241291
v 0.007300002034753563 0.011094357818365097 -0.01990962028503418
v 0.007300002034753563 0.002836864208802581 -0.021287551149725914
v 0.007300002034753563 0.010194104164838791 -0.021287551149725914
v 0.007300002034753563 0.0030710657592862844 0.003945702686905861
v 0.007300002034753563 0.002836864208802581 -0.021287551149725914
v 0.007300002034753563 0.004185836762189865 0.002734741196036339
v 0.007300002034753563 -3.847587581873313e-09 0.004999999888241291
v 0.007300002034753563 0.002836864208802581 -0.021287551149725914
v 0.007300002034753563 0.0016234925715252757 0.00472908653318882
v 0.007300002034753563 0.0019366106716915965 -0.01990962028503418
v 0.007300002034753563 0.002836864208802581 -0.021287551149725914
v 0.007300002034753563 -0.004578862339258194 -0.0020084772258996964
v 0.007300002034753563 0.002836864208802581 -0.021287551149725914
v 0.007300002034753563 0.0030710657592862844 0.003945702686905861
v 0.007300002034753563 0.0016234925715252757 0.00472908653318882
v 0.007300002034753563 -0.004982922226190567 -0.00041289671207778156
v 0.007300002034753563 -0.004578862339258194 -0.0020084772258996964
v 0.007300002034753563 0.002836864208802581 -0.021287551149725914
v 0.007300002034753563 -0.004846993833780289 0.0012274272739887238
v 0.007300002034753563 -0.004982922226190567 -0.00041289671207778156
v 0.007300002034753563 0.002836864208802581 -0.021287551149725914
v 0.007300002034753563 0.004185836762189865 0.002734741196036339
v 0.007300002034753563 0.002836864208802581 -0.021287551149725914
v 0.007300002034753563 0.004847001284360886 0.0012274272739887238
v 0.007300002034753563 0.011498402804136276 -0.018314041197299957
v 0.007300002034753563 0.002836864208802581 -0.021287551149725914
v 0.007300002034753563 0.011094357818365097 -0.01990962028503418
v 0.007300002034753563 -0.003071058774366975 0.003945702686905861
v 0.007300002034753563 0.002836864208802581 -0.021287551149725914
v 0.007300002034753563 -0.0016235002549365163 0.00472908653318882
v 0.007300002034753563 -0.004846993833780289 0.0012274272739887238
v 0.007300002034753563 0.002836864208802581 -0.021287551149725914
v 0.007300002034753563 -0.004185829311609268 0.002734741196036339
v 0.007300002034753563 0.0056925080716609955 -0.022832950577139854
v 0.007300002034753563 0.002836864208802581 -0.021287551149725914
v 0.007300002034753563 0.004135753959417343 -0.02229851298034191
v 0.007300002034753563 0.002836864208802581 -0.021287551149725914
v 0.007300002034753563 0.011498402804136276 -0.018314041197299957
v 0.007300002034753563 0.011362489312887192 -0.01667371578514576
v 0.007300002034753563 0.002836864208802581 -0.021287551149725914
v 0.007300002034753563 0.008895214647054672 -0.02229851298034191
v 0.007300002034753563 0.010194104164838791 -0.021287551149725914
v 0.007300002034753563 0.008895214647054672 -0.02229851298034191
v 0.007300002034753563 0.002836864208802581 -0.021287551149725914
v 0.007300002034753563 0.00733846053481102 -0.022832950577139854
v 0.007300002034753563 0.002836864208802581 -0.021287551149725914
v 0.007300002034753563 0.0056925080716609955 -0.022832950577139854
v 0.007300002034753563 0.00733846053481102 -0.022832950577139854
usemtl DefaultMaterial
f 1 2 3
f 4 5 6
f 7 8 9
f 10 11 12
f 13 14 15
f 16 17 18
f 19 20 21
f 22 23 24
f 25 26 27
f 28 29 30
f 31 32 33
f 34 35 36
f 37 38 39
f 40 41 42
f 43 44 45
f 46 47 48
f 49 50 51
f 52 53 54
f 55 56 57
f 58 59 60
f 61 62 63
f 64 65 66
f 67 68 69
f 70 71 72
f 73 74 75
f 76 77 78
f 79 80 81
f 82 83 84
f 85 86 87
f 88 89 90
f 91 92 93
f 94 95 96
f 97 98 99
f 100 101 102
f 103 104 105
f 106 107 108
f 109 110 111
f 112 113 114
f 115 116 117
f 118 119 120
f 121 122 123
f 124 125 126
f 127 128 129
f 130 131 132
f 133 134 135
f 136 137 138
f 139 140 141
f 142 143 144
f 145 146 147
f 148 149 150
f 151 152 153
f 154 155 156
f 157 158 159
f 160 161 162
f 163 164 165
f 166 167 168
f 169 170 171
f 172 173 174
f 175 176 177
f 178 179 180
f 181 182 183
f 184 185 186
f 187 188 189
f 190 191 192
f 193 194 195
f 196 197 198
f 199 200 201
f 202 203 204
f 205 206 207
f 208 209 210
f 211 212 213
f 214 215 216
f 217 218 219
f 220 221 222
f 223 224 225
f 226 227 228
f 229 230 231
f 232 233 234
f 235 236 237
f 238 239 240
f 241 242 243
f 244 245 246
f 247 248 249
f 250 251 252
f 253 254 255
f 256 257 258
f 259 260 261
f 262 263 264
f 265 266 267
f 268 269 270
f 271 272 273
f 274 275 276
f 277 278 279
f 280 281 282
f 283 284 285
f 286 287 288
f 289 290 291
f 292 293 294
f 295 296 297
f 298 299 300
f 301 302 303
f 304 305 306
f 307 308 309
f 310 311 312
f 313 314 315
f 316 317 318
f 319 320 321
f 322 323 324
f 325 326 327
f 328 329 330
f 331 332 333
f 334 335 336
f 337 338 339
f 340 341 342
f 343 344 345
f 346 347 348
f 349 350 351
f 352 353 354
f 355 356 357
f 358 359 360
f 361 362 363
f 364 365 366
f 367 368 369
f 370 371 372
f 373 374 375
f 376 377 378
f 379 380 381
f 382 383 384
f 385 386 387
f 388 389 390
f 391 392 393
f 394 395 396
f 397 398 399
f 400 401 402
f 403 404 405
f 406 407 408
f 409 410 411
f 412 413 414
f 415 416 417
f 418 419 420
f 421 422 423
f 424 425 426
f 427 428 429
f 430 431 432
