mtllib left_outer_knuckle_Finger1.mtl
v -0.0363292470574379 0.050063151866197586 0.004699999932199717
v -0.03498509153723717 0.048819202929735184 0.004699999932199717
v -0.03498509153723717 0.048819202929735184 -0.004699999932199717
v -0.03733184188604355 0.0515957809984684 0.004699999932199717
v -0.0363292470574379 0.050063151866197586 -0.004699999932199717
v -0.03793308511376381 0.05332571268081665 0.004699999932199717
v -0.03733184188604355 0.0515957809984684 -0.004699999932199717
v -0.03809713199734688 0.05514978617429733 0.004699999932199717
v -0.03793308511376381 0.05332571268081665 -0.004699999932199717
v -0.037814196199178696 0.056959234178066254 0.004699999932199717
v -0.03809713199734688 0.05514978617429733 -0.004699999932199717
v -0.037101153284311295 0.05864616110920906 0.004699999932199717
v -0.037814196199178696 0.056959234178066254 -0.004699999932199717
v -0.036000512540340424 0.060109976679086685 0.004699999932199717
v -0.037101153284311295 0.05864616110920906 -0.004699999932199717
v -0.036000512540340424 0.060109976679086685 -0.004699999932199717
v -0.03654112294316292 0.05966050550341606 0.004699999932199717
v -0.037166837602853775 0.05933993682265282 0.004699999932199717
v -0.03654112294316292 0.05966050550341606 -0.004699999932199717
v -0.037847451865673065 0.059163741767406464 0.004699999932199717
v -0.037166837602853775 0.05933993682265282 -0.004699999932199717
v -0.037847451865673065 0.059163741767406464 -0.004699999932199717
v -0.04462127014994621 0.058186791837215424 -0.004699999932199717
v -0.04462127014994621 0.058186791837215424 0.004699999932199717
v -0.04536399617791176 0.05816682428121567 0.004699999932199717
v -0.04609131067991257 0.05831867456436157 0.004699999932199717
v -0.04536399617791176 0.05816682428121567 -0.004699999932199717
v -0.04676399752497673 0.05863416567444801 0.004699999932199717
v -0.04609131067991257 0.05831867456436157 -0.004699999932199717
v -0.04676399752497673 0.05863416567444801 -0.004699999932199717
v -0.05598838999867439 0.06435200572013855 0.004699999932199717
v -0.05598838999867439 0.06435200572013855 -0.004699999932199717
v -0.0562627911567688 0.06447746604681015 -0.004699999932199717
v -0.0562627911567688 0.06447746604681015 0.004699999932199717
v -0.056559816002845764 0.06453051418066025 -0.004699999932199717
v -0.056559816002845764 0.06453051418066025 0.004699999932199717
v -0.056860681623220444 0.06450780481100082 -0.004699999932199717
v -0.056860681623220444 0.06450780481100082 0.004699999932199717
v -0.05714637041091919 0.0644107460975647 -0.004699999932199717
v -0.05714637041091919 0.0644107460975647 0.004699999932199717
v -0.05739882215857506 0.06424551457166672 -0.004699999932199717
v -0.05739882215857506 0.06424551457166672 0.004699999932199717
v -0.05760207399725914 0.06402251869440079 -0.004699999932199717
v -0.05760207399725914 0.06402251869440079 0.004699999932199717
v -0.05774328112602234 0.06375586986541748 -0.004699999932199717
v -0.05774328112602234 0.06375586986541748 0.004699999932199717
v -0.05781351029872894 0.06346243619918823 -0.004699999932199717
v -0.05781351029872894 0.06346243619918823 0.004699999932199717
v -0.057808324694633484 0.06316076219081879 -0.004699999932199717
v -0.057808324694633484 0.06316076219081879 0.004699999932199717
v -0.057400722056627274 0.06033455580472946 -0.004699999932199717
v -0.057400722056627274 0.06033455580472946 0.004699999932199717
v -0.05739041417837143 0.05949925258755684 0.004699999932199717
v -0.05759664997458458 0.05868974328041077 0.004699999932199717
v -0.05739041417837143 0.05949925258755684 -0.004699999932199717
v -0.058005377650260925 0.05796119570732117 0.004699999932199717
v -0.05759664997458458 0.05868974328041077 -0.004699999932199717
v -0.05858873948454857 0.05736325681209564 0.004699999932199717
v -0.058005377650260925 0.05796119570732117 -0.004699999932199717
v -0.05930698290467262 0.056936681270599365 0.004699999932199717
v -0.05858873948454857 0.05736325681209564 -0.004699999932199717
v -0.0601111575961113 0.056710533797740936 0.004699999932199717
v -0.05930698290467262 0.056936681270599365 -0.004699999932199717
v -0.0601111575961113 0.056710533797740936 -0.004699999932199717
v -0.06288248300552368 0.05631083995103836 -0.004699999932199717
v -0.06288248300552368 0.05631083995103836 0.004699999932199717
v -0.06431424617767334 0.05591881275177002 -0.004699999932199717
v -0.06431424617767334 0.05591881275177002 0.004699999932199717
v -0.06560593843460083 0.05518726631999016 -0.004699999932199717
v -0.06560593843460083 0.05518726631999016 0.004699999932199717
v -0.0666785016655922 0.054160986095666885 -0.004699999932199717
v -0.0666785016655922 0.054160986095666885 0.004699999932199717
v -0.06746627390384674 0.052902791649103165 -0.004699999932199717
v -0.06746627390384674 0.052902791649103165 0.004699999932199717
v -0.06792103499174118 0.0514896996319294 -0.004699999932199717
v -0.06792103499174118 0.0514896996319294 0.004699999932199717
v -0.06801494210958481 0.05000821128487587 -0.004699999932199717
v -0.06801494210958481 0.05000821128487587 0.004699999932199717
v -0.067742258310318 0.04854900762438774 -0.004699999932199717
v -0.067742258310318 0.04854900762438774 0.004699999932199717
v -0.06711967289447784 0.04720140993595123 -0.004699999932199717
v -0.06711967289447784 0.04720140993595123 0.004699999932199717
v -0.06618529558181763 0.04604790732264519 -0.004699999932199717
v -0.06618529558181763 0.04604790732264519 0.004699999932199717
v -0.06499632447957993 0.04515911266207695 -0.004699999932199717
v -0.06499632447957993 0.04515911266207695 0.004699999932199717
v -0.0636255145072937 0.04458942264318466 -0.004699999932199717
v -0.0636255145072937 0.04458942264318466 0.004699999932199717
v -0.062156807631254196 0.04437371343374252 -0.004699999932199717
v -0.062156807631254196 0.04437371343374252 0.004699999932199717
v -0.060680091381073 0.04452519118785858 -0.004699999932199717
v -0.060680091381073 0.04452519118785858 0.004699999932199717
v -0.059285763651132584 0.04503457993268967 -0.004699999932199717
v -0.059285763651132584 0.04503457993268967 0.004699999932199717
v -0.05805916711688042 0.04587070271372795 -0.004699999932199717
v -0.05805916711688042 0.04587070271372795 0.004699999932199717
v -0.03731236606836319 0.0493900328874588 -0.004699999932199717
v -0.0575593039393425 0.046231966465711594 -0.004699999932199717
v -0.05699942260980606 0.0464906319975853 -0.004699999932199717
v -0.05640031769871712 0.04663708806037903 -0.004699999932199717
v -0.03649599105119705 0.049402542412281036 -0.004699999932199717
v -0.03570302575826645 0.04920804128050804 -0.004699999932199717
v -0.05699942260980606 0.0464906319975853 0.004699999932199717
v -0.0575593039393425 0.046231966465711594 0.004699999932199717
v -0.03731236606836319 0.0493900328874588 0.004699999932199717
v -0.03649599105119705 0.049402542412281036 0.004699999932199717
v -0.05640031769871712 0.04663708806037903 0.004699999932199717
v -0.03570302575826645 0.04920804128050804 0.004699999932199717
usemtl Pumice
f 16 14 15
f 14 12 15
f 15 12 13
f 12 10 13
f 13 10 11
f 10 8 11
f 11 8 9
f 8 6 9
f 9 6 7
f 6 4 7
f 7 4 5
f 4 1 5
f 5 1 3
f 1 2 3
f 95 96 94
f 95 94 93
f 94 92 93
f 93 92 91
f 92 90 91
f 91 90 89
f 90 88 89
f 89 88 87
f 88 86 87
f 87 86 85
f 86 84 85
f 85 84 83
f 84 82 83
f 83 82 81
f 82 80 81
f 81 80 79
f 80 78 79
f 79 78 77
f 78 76 77
f 77 76 75
f 76 74 75
f 75 74 73
f 74 72 73
f 73 72 71
f 72 70 71
f 71 70 69
f 70 68 69
f 69 68 67
f 68 66 67
f 67 66 65
f 49 50 48
f 49 48 47
f 48 46 47
f 47 46 45
f 46 44 45
f 45 44 43
f 44 42 43
f 43 42 41
f 42 40 41
f 41 40 39
f 40 38 39
f 39 38 37
f 38 36 37
f 37 36 35
f 36 34 35
f 35 34 33
f 34 31 33
f 33 31 32
f 22 20 21
f 20 18 21
f 21 18 19
f 18 17 19
f 19 17 16
f 17 14 16
f 20 22 24
f 22 23 24
f 30 28 29
f 28 26 29
f 29 26 27
f 26 25 27
f 27 25 23
f 25 24 23
f 32 31 30
f 31 28 30
f 49 51 50
f 51 52 50
f 64 62 63
f 62 60 63
f 63 60 61
f 60 58 61
f 61 58 59
f 58 56 59
f 59 56 57
f 56 54 57
f 57 54 55
f 54 53 55
f 55 53 51
f 53 52 51
f 29 27 55
f 59 97 61
f 97 100 61
f 5 3 102
f 67 65 98
f 11 9 57
f 9 7 57
f 57 7 5
f 98 65 99
f 65 64 99
f 99 64 100
f 64 63 100
f 100 63 61
f 59 57 97
f 57 5 97
f 97 5 101
f 5 102 101
f 29 55 30
f 55 51 30
f 30 51 49
f 23 22 15
f 98 95 67
f 95 93 67
f 67 93 69
f 93 71 69
f 22 21 15
f 21 19 15
f 15 19 16
f 15 13 23
f 13 11 23
f 23 11 27
f 11 57 27
f 27 57 55
f 81 79 77
f 89 87 73
f 87 85 73
f 73 85 75
f 71 93 73
f 93 91 73
f 73 91 89
f 75 85 77
f 85 83 77
f 77 83 81
f 45 43 41
f 37 35 47
f 35 33 47
f 47 33 49
f 33 32 49
f 49 32 30
f 45 41 47
f 41 39 47
f 47 39 37
f 105 106 1
f 106 108 1
f 1 108 2
f 25 26 53
f 26 28 53
f 53 28 52
f 54 6 8
f 107 105 56
f 105 1 56
f 56 1 54
f 1 4 54
f 54 4 6
f 12 14 17
f 52 28 50
f 28 31 50
f 50 31 34
f 53 54 25
f 54 8 25
f 25 8 24
f 8 10 24
f 24 10 20
f 10 12 20
f 20 12 18
f 12 17 18
f 56 58 107
f 58 60 107
f 107 60 103
f 60 62 103
f 103 62 104
f 62 66 104
f 104 66 96
f 66 68 96
f 96 68 94
f 68 70 94
f 94 70 72
f 72 74 94
f 74 76 94
f 94 76 78
f 78 80 82
f 44 46 34
f 46 48 34
f 34 48 50
f 82 84 78
f 84 86 78
f 78 86 88
f 34 36 44
f 36 38 44
f 44 38 42
f 38 40 42
f 88 90 78
f 90 92 78
f 78 92 94
f 3 2 102
f 2 108 102
f 102 108 101
f 108 106 101
f 101 106 97
f 106 105 97
f 97 105 100
f 105 107 100
f 100 107 99
f 107 103 99
f 99 103 98
f 103 104 98
f 98 104 95
f 104 96 95
f 62 64 66
f 64 65 66
