mtllib left_inner_knuckle_collisions_robotiq_arg2f_140_inner_knuckle_node_STL_BINARY__mesh.mtl
v 0.01695000380277634 0.032509017735719695 -0.006722875870764253
v 0.013901217840611938 0.03711143881082536 -0.006825007032603023
v 0.01945000141859055 0.09984227269887928 -0.008217048831284043
v 0.01695000380277634 0.032509017735719695 -0.006722875870764253
v 0.01945000141859055 -0.00013311191287357366 -0.00599852344021201
v 0.013901217840611938 0.03711143881082536 -0.006825007032603023
v 0.01945000141859055 0.09984227269887928 -0.008217048831284043
v 0.01945000141859055 -0.00013311191287357366 -0.00599852344021201
v 0.01695000380277634 0.032509017735719695 -0.006722875870764253
v -0.013550006784498695 0.10011171549558644 -0.004714805632829664
v -0.012049996294081215 0.09984227269887928 -0.008217048831284043
v -0.01955000311136246 0.007092697080224756 -0.0061588692478835565
v -0.014001213945448402 0.03711143881082536 -0.006825007032603023
v -0.012049996294081215 0.09984227269887928 -0.008217048831284043
v -0.007121280767023565 0.08844507485628132 -0.007964137010276314
v -0.017050005495548252 0.032509017735719695 -0.006722875870764253
v -0.014001213945448402 0.03711143881082536 -0.006825007032603023
v -0.01955000311136246 -0.00013311191287357366 -0.00599852344021201
v -0.017050005495548252 0.032509017735719695 -0.006722875870764253
v -0.012049996294081215 0.09984227269887928 -0.008217048831284043
v -0.014001213945448402 0.03711143881082536 -0.006825007032603023
v -0.017050005495548252 0.032509017735719695 -0.006722875870764253
v -0.01955000311136246 -0.00013311191287357366 -0.00599852344021201
v -0.01955000311136246 0.007092697080224756 -0.0061588692478835565
v -0.012049996294081215 0.09984227269887928 -0.008217048831284043
v -0.017050005495548252 0.032509017735719695 -0.006722875870764253
v -0.01955000311136246 0.007092697080224756 -0.0061588692478835565
v -0.012049996294081215 0.10214795172214512 -0.007811377756297586
v -0.012049996294081215 0.09984227269887928 -0.008217048831284043
v -0.013550006784498695 0.10011171549558644 -0.004714805632829664
v 0.007021284662187101 0.08844507485628132 -0.007964137010276314
v 0.01945000141859055 0.09984227269887928 -0.008217048831284043
v 0.013901217840611938 0.03711143881082536 -0.006825007032603023
v -0.012049996294081215 0.10010850429534916 0.0037799992132931935
v -0.012749993242323402 0.10075633227825169 0.0026188420597463838
v -0.01955000311136246 0.007358917966485027 0.00583817809820175
v -0.01049999985843897 0.029697116464376463 0.005342477932572363
v -0.012049996294081215 0.10010850429534916 0.0037799992132931935
v -0.01955000311136246 0.007358917966485027 0.00583817809820175
v -0.013550006784498695 0.10247166454792027 -0.0020821960642933837
v -0.01955000311136246 0.007358917966485027 0.00583817809820175
v -0.013550006784498695 0.10206906497478489 -0.0008523208089172837
v -0.013550006784498695 0.10247166454792027 -0.0020821960642933837
v -0.01955000311136246 0.007092697080224756 -0.0061588692478835565
v -0.01955000311136246 0.007358917966485027 0.00583817809820175
v -0.013550006784498695 0.10247166454792027 -0.0020821960642933837
v -0.013550006784498695 0.1022053956985474 -0.0033486012835055577
v -0.01955000311136246 0.007092697080224756 -0.0061588692478835565
v -0.013550006784498695 0.10134159028530125 -0.004312203265726565
v -0.013550006784498695 0.10011171549558644 -0.004714805632829664
v -0.01955000311136246 0.007092697080224756 -0.0061588692478835565
v -0.01955000311136246 0.007092697080224756 -0.0061588692478835565
v -0.013550006784498695 0.1022053956985474 -0.0033486012835055577
v -0.013550006784498695 0.10134159028530125 -0.004312203265726565
v -0.013550006784498695 0.10134159028530125 -0.004312203265726565
v -0.012049996294081215 0.10214795172214512 -0.007811377756297586
v -0.013550006784498695 0.10011171549558644 -0.004714805632829664
v -0.01955000311136246 0.007358917966485027 0.00583817809820175
v -0.013550006784498695 0.10110545903444294 1.1481241017463614e-05
v -0.013550006784498695 0.10206906497478489 -0.0008523208089172837
v -0.013550006784498695 0.10110545903444294 1.1481241017463614e-05
v -0.01955000311136246 0.007358917966485027 0.00583817809820175
v -0.012749993242323402 0.10075633227825169 0.0026188420597463838
v -0.012749993242323402 0.10201268643140797 0.0021827660966664544
v -0.013550006784498695 0.10206906497478489 -0.0008523208089172837
v -0.013550006784498695 0.10110545903444294 1.1481241017463614e-05
v -0.013550006784498695 0.10134159028530125 -0.004312203265726565
v -0.012049996294081215 0.10412285476922993 -0.006554245948791501
v -0.012049996294081215 0.10214795172214512 -0.007811377756297586
v -0.012049996294081215 0.10412285476922993 -0.006554245948791501
v -0.013550006784498695 0.1022053956985474 -0.0033486012835055577
v -0.012049996294081215 0.10546635836362843 -0.004637039266526697
v -0.012049996294081215 0.10412285476922993 -0.006554245948791501
v -0.013550006784498695 0.10134159028530125 -0.004312203265726565
v -0.013550006784498695 0.1022053956985474 -0.0033486012835055577
v -0.012749993242323402 0.10176309198141102 0.002343726344406604
v -0.013550006784498695 0.10110545903444294 1.1481241017463614e-05
v -0.012749993242323402 0.10075633227825169 0.0026188420597463838
v -0.012749993242323402 0.10176309198141102 0.002343726344406604
v -0.012749993242323402 0.10201268643140797 0.0021827660966664544
v -0.013550006784498695 0.10110545903444294 1.1481241017463614e-05
v -0.013550006784498695 0.10206906497478489 -0.0008523208089172837
v -0.012749993242323402 0.10201268643140797 0.0021827660966664544
v -0.012049996294081215 0.1043111085891724 0.0019289467018097633
v 0.01039999630302191 0.029697116464376463 0.005342477932572363
v 0.01945000141859055 0.007358917966485027 0.00583817809820175
v 0.01945000141859055 0.10010850429534916 0.0037799992132931935
v -0.012049996294081215 0.10239390283823017 0.003272448433563112
v -0.012749993242323402 0.10075633227825169 0.0026188420597463838
v -0.012049996294081215 0.10010850429534916 0.0037799992132931935
v -0.012049996294081215 0.10239390283823017 0.003272448433563112
v -0.012749993242323402 0.10176309198141102 0.002343726344406604
v -0.012749993242323402 0.10075633227825169 0.0026188420597463838
v -0.012749993242323402 0.10201268643140797 0.0021827660966664544
v -0.012749993242323402 0.10176309198141102 0.002343726344406604
v -0.012049996294081215 0.10239390283823017 0.003272448433563112
v -0.012049996294081215 0.10239390283823017 0.003272448433563112
v -0.012049996294081215 0.1043111085891724 0.0019289467018097633
v -0.012749993242323402 0.10201268643140797 0.0021827660966664544
v -0.012049996294081215 0.10597391426563267 -0.0023516372311860314
v -0.012049996294081215 0.10546635836362843 -0.004637039266526697
v -0.013550006784498695 0.1022053956985474 -0.0033486012835055577
v -0.013550006784498695 0.1022053956985474 -0.0033486012835055577
v -0.013550006784498695 0.10247166454792027 -0.0020821960642933837
v -0.012049996294081215 0.10597391426563267 -0.0023516372311860314
v -0.013550006784498695 0.10206906497478489 -0.0008523208089172837
v -0.012049996294081215 0.1043111085891724 0.0019289467018097633
v -0.012049996294081215 0.10556823760271077 -4.5969009079271914e-05
v -0.012049996294081215 0.10556823760271077 -4.5969009079271914e-05
v -0.013550006784498695 0.10247166454792027 -0.0020821960642933837
v -0.013550006784498695 0.10206906497478489 -0.0008523208089172837
v -0.012049996294081215 0.10556823760271077 -4.5969009079271914e-05
v -0.012049996294081215 0.10597391426563267 -0.0023516372311860314
v -0.013550006784498695 0.10247166454792027 -0.0020821960642933837
v -0.01955000311136246 -0.00013311191287357366 -0.00599852344021201
v -0.014001213945448402 0.03711143881082536 -0.006825007032603023
v 0.013901217840611938 0.03711143881082536 -0.006825007032603023
v 0.01945000141859055 -0.00013311191287357366 -0.00599852344021201
v -0.01955000311136246 -0.00013311191287357366 -0.00599852344021201
v 0.013901217840611938 0.03711143881082536 -0.006825007032603023
v 0.007021284662187101 0.08844507485628132 -0.007964137010276314
v -0.007121280767023565 0.08844507485628132 -0.007964137010276314
v -0.012049996294081215 0.09984227269887928 -0.008217048831284043
v 0.007021284662187101 0.08844507485628132 -0.007964137010276314
v -0.012049996294081215 0.09984227269887928 -0.008217048831284043
v 0.01945000141859055 0.09984227269887928 -0.008217048831284043
v 0.007021284662187101 0.08844507485628132 -0.007964137010276314
v 0.013901217840611938 0.03711143881082536 -0.006825007032603023
v -0.014001213945448402 0.03711143881082536 -0.006825007032603023
v -0.014001213945448402 0.03711143881082536 -0.006825007032603023
v -0.007121280767023565 0.08844507485628132 -0.007964137010276314
v 0.007021284662187101 0.08844507485628132 -0.007964137010276314
v -0.01955000311136246 -0.00433572242036462 -0.004147472791373728
v 0.01945000141859055 -0.00433572242036462 -0.004147472791373728
v -0.01955000311136246 -0.005592852830886843 -0.0021725569386035195
v 0.01945000141859055 -0.00433572242036462 -0.004147472791373728
v 0.01945000141859055 -0.005592852830886843 -0.0021725569386035195
v -0.01955000311136246 -0.005592852830886843 -0.0021725569386035195
v 0.01945000141859055 0.007358917966485027 0.00583817809820175
v -0.01955000311136246 0.007358917966485027 0.00583817809820175
v -0.01955000311136246 0.0001331129169557244 0.005998522974550722
v 0.01945000141859055 0.0001331129169557244 0.005998522974550722
v 0.01945000141859055 0.007358917966485027 0.00583817809820175
v -0.01955000311136246 0.0001331129169557244 0.005998522974550722
v -0.01955000311136246 -0.0021725574042648086 0.005592852365225552
v 0.01945000141859055 -0.0021725574042648086 0.005592852365225552
v 0.01945000141859055 0.0001331129169557244 0.005998522974550722
v -0.01955000311136246 -0.0021725574042648086 0.005592852365225552
v 0.01945000141859055 0.0001331129169557244 0.005998522974550722
v -0.01955000311136246 0.0001331129169557244 0.005998522974550722
v 0.01945000141859055 -0.002418515970930458 -0.005490973126143215
v -0.01955000311136246 -0.00013311191287357366 -0.00599852344021201
v 0.01945000141859055 -0.00013311191287357366 -0.00599852344021201
v 0.01945000141859055 -0.002418515970930458 -0.005490973126143215
v -0.01955000311136246 -0.002418515970930458 -0.005490973126143215
v -0.01955000311136246 -0.00013311191287357366 -0.00599852344021201
v -0.01955000311136246 -0.00433572242036462 -0.004147472791373728
v -0.01955000311136246 -0.002418515970930458 -0.005490973126143215
v 0.01945000141859055 -0.002418515970930458 -0.005490973126143215
v 0.01945000141859055 -0.002418515970930458 -0.005490973126143215
v 0.01945000141859055 -0.00433572242036462 -0.004147472791373728
v -0.01955000311136246 -0.00433572242036462 -0.004147472791373728
v 0.01945000141859055 0.09984227269887928 -0.008217048831284043
v -0.012049996294081215 0.09984227269887928 -0.008217048831284043
v 0.01945000141859055 0.10214795172214512 -0.007811377756297586
v -0.012049996294081215 0.10214795172214512 -0.007811377756297586
v 0.01945000141859055 0.10214795172214512 -0.007811377756297586
v -0.012049996294081215 0.09984227269887928 -0.008217048831284043
v -0.012049996294081215 0.10412285476922993 -0.006554245948791501
v 0.01945000141859055 0.10412285476922993 -0.006554245948791501
v 0.01945000141859055 0.10214795172214512 -0.007811377756297586
v -0.012049996294081215 0.10412285476922993 -0.006554245948791501
v 0.01945000141859055 0.10214795172214512 -0.007811377756297586
v -0.012049996294081215 0.10214795172214512 -0.007811377756297586
v 0.01945000141859055 0.10412285476922993 -0.006554245948791501
v -0.012049996294081215 0.10412285476922993 -0.006554245948791501
v 0.01945000141859055 0.10546635836362843 -0.004637039266526697
v 0.01945000141859055 0.10546635836362843 -0.004637039266526697
v -0.012049996294081215 0.10412285476922993 -0.006554245948791501
v -0.012049996294081215 0.10546635836362843 -0.004637039266526697
v -0.012049996294081215 0.10010850429534916 0.0037799992132931935
v -0.01049999985843897 0.029697116464376463 0.005342477932572363
v 0.01039999630302191 0.029697116464376463 0.005342477932572363
v 0.01039999630302191 0.029697116464376463 0.005342477932572363
v 0.01945000141859055 0.10010850429534916 0.0037799992132931935
v -0.012049996294081215 0.10010850429534916 0.0037799992132931935
v -0.01955000311136246 0.007358917966485027 0.00583817809820175
v 0.01945000141859055 0.007358917966485027 0.00583817809820175
v 0.01039999630302191 0.029697116464376463 0.005342477932572363
v 0.01039999630302191 0.029697116464376463 0.005342477932572363
v -0.01049999985843897 0.029697116464376463 0.005342477932572363
v -0.01955000311136246 0.007358917966485027 0.00583817809820175
v -0.01955000311136246 -0.005490974523127082 0.002418513409793376
v -0.01955000311136246 0.0001331129169557244 0.005998522974550722
v -0.01955000311136246 0.007358917966485027 0.00583817809820175
v -0.01955000311136246 0.007092697080224756 -0.0061588692478835565
v -0.01955000311136246 -0.00013311191287357366 -0.00599852344021201
v -0.01955000311136246 -0.005490974523127082 0.002418513409793376
v -0.01955000311136246 -0.005490974523127082 0.002418513409793376
v -0.01955000311136246 0.007358917966485027 0.00583817809820175
v -0.01955000311136246 0.007092697080224756 -0.0061588692478835565
v -0.01955000311136246 -0.005490974523127082 0.002418513409793376
v -0.01955000311136246 -0.002418515970930458 -0.005490973126143215
v -0.01955000311136246 -0.00433572242036462 -0.004147472791373728
v -0.01955000311136246 -0.0021725574042648086 0.005592852365225552
v -0.01955000311136246 -0.005490974523127082 0.002418513409793376
v -0.01955000311136246 -0.004147474188357593 0.00433572009205818
v -0.01955000311136246 -0.005998524837195876 0.00013311141810845578
v -0.01955000311136246 -0.005490974523127082 0.002418513409793376
v -0.01955000311136246 -0.005592852830886843 -0.0021725569386035195
v -0.01955000311136246 -0.005490974523127082 0.002418513409793376
v -0.01955000311136246 -0.00433572242036462 -0.004147472791373728
v -0.01955000311136246 -0.005592852830886843 -0.0021725569386035195
v -0.01955000311136246 -0.005490974523127082 0.002418513409793376
v -0.01955000311136246 -0.00013311191287357366 -0.00599852344021201
v -0.01955000311136246 -0.002418515970930458 -0.005490973126143215
v -0.01955000311136246 -0.005490974523127082 0.002418513409793376
v -0.01955000311136246 -0.0021725574042648086 0.005592852365225552
v -0.01955000311136246 0.0001331129169557244 0.005998522974550722
v 0.01945000141859055 -0.004147474188357593 0.00433572009205818
v -0.01955000311136246 -0.0021725574042648086 0.005592852365225552
v -0.01955000311136246 -0.004147474188357593 0.00433572009205818
v 0.01945000141859055 -0.0021725574042648086 0.005592852365225552
v -0.01955000311136246 -0.0021725574042648086 0.005592852365225552
v 0.01945000141859055 -0.004147474188357593 0.00433572009205818
v 0.01945000141859055 -0.004147474188357593 0.00433572009205818
v -0.01955000311136246 -0.004147474188357593 0.00433572009205818
v -0.01955000311136246 -0.005490974523127082 0.002418513409793376
v 0.01945000141859055 -0.004147474188357593 0.00433572009205818
v -0.01955000311136246 -0.005490974523127082 0.002418513409793376
v 0.01945000141859055 -0.005490974523127082 0.002418513409793376
v 0.01945000141859055 0.0001331129169557244 0.005998522974550722
v 0.01945000141859055 -0.0021725574042648086 0.005592852365225552
v 0.01945000141859055 -0.005998524837195876 0.00013311141810845578
v 0.01945000141859055 -0.005998524837195876 0.00013311141810845578
v 0.01945000141859055 -0.00013311191287357366 -0.00599852344021201
v 0.01945000141859055 0.09984227269887928 -0.008217048831284043
v 0.01945000141859055 0.1043111085891724 0.0019289467018097633
v 0.01945000141859055 0.10239390283823017 0.003272448433563112
v 0.01945000141859055 -0.005998524837195876 0.00013311141810845578
v 0.01945000141859055 -0.005998524837195876 0.00013311141810845578
v 0.01945000141859055 0.10214795172214512 -0.007811377756297586
v 0.01945000141859055 0.10412285476922993 -0.006554245948791501
v 0.01945000141859055 -0.005998524837195876 0.00013311141810845578
v 0.01945000141859055 0.10556823760271077 -4.5969009079271914e-05
v 0.01945000141859055 0.1043111085891724 0.0019289467018097633
v 0.01945000141859055 -0.005998524837195876 0.00013311141810845578
v 0.01945000141859055 0.007358917966485027 0.00583817809820175
v 0.01945000141859055 0.0001331129169557244 0.005998522974550722
v 0.01945000141859055 -0.005592852830886843 -0.0021725569386035195
v 0.01945000141859055 -0.00433572242036462 -0.004147472791373728
v 0.01945000141859055 -0.005998524837195876 0.00013311141810845578
v 0.01945000141859055 -0.00433572242036462 -0.004147472791373728
v 0.01945000141859055 -0.002418515970930458 -0.005490973126143215
v 0.01945000141859055 -0.005998524837195876 0.00013311141810845578
v 0.01945000141859055 0.10412285476922993 -0.006554245948791501
v 0.01945000141859055 0.10546635836362843 -0.004637039266526697
v 0.01945000141859055 -0.005998524837195876 0.00013311141810845578
v 0.01945000141859055 0.10010850429534916 0.0037799992132931935
v 0.01945000141859055 0.007358917966485027 0.00583817809820175
v 0.01945000141859055 -0.005998524837195876 0.00013311141810845578
v 0.01945000141859055 -0.005998524837195876 0.00013311141810845578
v 0.01945000141859055 -0.004147474188357593 0.00433572009205818
v 0.01945000141859055 -0.005490974523127082 0.002418513409793376
v 0.01945000141859055 -0.005998524837195876 0.00013311141810845578
v 0.01945000141859055 -0.002418515970930458 -0.005490973126143215
v 0.01945000141859055 -0.00013311191287357366 -0.00599852344021201
v 0.01945000141859055 0.09984227269887928 -0.008217048831284043
v 0.01945000141859055 0.10214795172214512 -0.007811377756297586
v 0.01945000141859055 -0.005998524837195876 0.00013311141810845578
v 0.01945000141859055 -0.005998524837195876 0.00013311141810845578
v 0.01945000141859055 0.10546635836362843 -0.004637039266526697
v 0.01945000141859055 0.10597391426563267 -0.0023516372311860314
v 0.01945000141859055 -0.005998524837195876 0.00013311141810845578
v 0.01945000141859055 0.10239390283823017 0.003272448433563112
v 0.01945000141859055 0.10010850429534916 0.0037799992132931935
v 0.01945000141859055 0.10597391426563267 -0.0023516372311860314
v 0.01945000141859055 0.10556823760271077 -4.5969009079271914e-05
v 0.01945000141859055 -0.005998524837195876 0.00013311141810845578
v 0.01945000141859055 -0.0021725574042648086 0.005592852365225552
v 0.01945000141859055 -0.004147474188357593 0.00433572009205818
v 0.01945000141859055 -0.005998524837195876 0.00013311141810845578
v 0.01945000141859055 -0.005998524837195876 0.00013311141810845578
v -0.01955000311136246 -0.005998524837195876 0.00013311141810845578
v -0.01955000311136246 -0.005592852830886843 -0.0021725569386035195
v 0.01945000141859055 -0.005998524837195876 0.00013311141810845578
v -0.01955000311136246 -0.005592852830886843 -0.0021725569386035195
v 0.01945000141859055 -0.005592852830886843 -0.0021725569386035195
v 0.01945000141859055 -0.005998524837195876 0.00013311141810845578
v -0.01955000311136246 -0.005490974523127082 0.002418513409793376
v -0.01955000311136246 -0.005998524837195876 0.00013311141810845578
v 0.01945000141859055 -0.005490974523127082 0.002418513409793376
v -0.01955000311136246 -0.005490974523127082 0.002418513409793376
v 0.01945000141859055 -0.005998524837195876 0.00013311141810845578
v -0.012049996294081215 0.10239390283823017 0.003272448433563112
v 0.01945000141859055 0.10010850429534916 0.0037799992132931935
v 0.01945000141859055 0.10239390283823017 0.003272448433563112
v -0.012049996294081215 0.10239390283823017 0.003272448433563112
v -0.012049996294081215 0.10010850429534916 0.0037799992132931935
v 0.01945000141859055 0.10010850429534916 0.0037799992132931935
v -0.012049996294081215 0.10239390283823017 0.003272448433563112
v 0.01945000141859055 0.10239390283823017 0.003272448433563112
v 0.01945000141859055 0.1043111085891724 0.0019289467018097633
v -0.012049996294081215 0.10239390283823017 0.003272448433563112
v 0.01945000141859055 0.1043111085891724 0.0019289467018097633
v -0.012049996294081215 0.1043111085891724 0.0019289467018097633
v -0.012049996294081215 0.10597391426563267 -0.0023516372311860314
v 0.01945000141859055 0.10597391426563267 -0.0023516372311860314
v 0.01945000141859055 0.10546635836362843 -0.004637039266526697
v -0.012049996294081215 0.10597391426563267 -0.0023516372311860314
v 0.01945000141859055 0.10546635836362843 -0.004637039266526697
v -0.012049996294081215 0.10546635836362843 -0.004637039266526697
v -0.012049996294081215 0.10556823760271077 -4.5969009079271914e-05
v 0.01945000141859055 0.1043111085891724 0.0019289467018097633
v 0.01945000141859055 0.10556823760271077 -4.5969009079271914e-05
v -0.012049996294081215 0.10556823760271077 -4.5969009079271914e-05
v -0.012049996294081215 0.1043111085891724 0.0019289467018097633
v 0.01945000141859055 0.1043111085891724 0.0019289467018097633
v -0.012049996294081215 0.10556823760271077 -4.5969009079271914e-05
v 0.01945000141859055 0.10556823760271077 -4.5969009079271914e-05
v 0.01945000141859055 0.10597391426563267 -0.0023516372311860314
v -0.012049996294081215 0.10597391426563267 -0.0023516372311860314
v -0.012049996294081215 0.10556823760271077 -4.5969009079271914e-05
v 0.01945000141859055 0.10597391426563267 -0.0023516372311860314
usemtl DefaultMaterial
f 1 2 3
f 4 5 6
f 7 8 9
f 10 11 12
f 13 14 15
f 16 17 18
f 19 20 21
f 22 23 24
f 25 26 27
f 28 29 30
f 31 32 33
f 34 35 36
f 37 38 39
f 40 41 42
f 43 44 45
f 46 47 48
f 49 50 51
f 52 53 54
f 55 56 57
f 58 59 60
f 61 62 63
f 64 65 66
f 67 68 69
f 70 71 72
f 73 74 75
f 76 77 78
f 79 80 81
f 82 83 84
f 85 86 87
f 88 89 90
f 91 92 93
f 94 95 96
f 97 98 99
f 100 101 102
f 103 104 105
f 106 107 108
f 109 110 111
f 112 113 114
f 115 116 117
f 118 119 120
f 121 122 123
f 124 125 126
f 127 128 129
f 130 131 132
f 133 134 135
f 136 137 138
f 139 140 141
f 142 143 144
f 145 146 147
f 148 149 150
f 151 152 153
f 154 155 156
f 157 158 159
f 160 161 162
f 163 164 165
f 166 167 168
f 169 170 171
f 172 173 174
f 175 176 177
f 178 179 180
f 181 182 183
f 184 185 186
f 187 188 189
f 190 191 192
f 193 194 195
f 196 197 198
f 199 200 201
f 202 203 204
f 205 206 207
f 208 209 210
f 211 212 213
f 214 215 216
f 217 218 219
f 220 221 222
f 223 224 225
f 226 227 228
f 229 230 231
f 232 233 234
f 235 236 237
f 238 239 240
f 241 242 243
f 244 245 246
f 247 248 249
f 250 251 252
f 253 254 255
f 256 257 258
f 259 260 261
f 262 263 264
f 265 266 267
f 268 269 270
f 271 272 273
f 274 275 276
f 277 278 279
f 280 281 282
f 283 284 285
f 286 287 288
f 289 290 291
f 292 293 294
f 295 296 297
f 298 299 300
f 301 302 303
f 304 305 306
f 307 308 309
f 310 311 312
f 313 314 315
f 316 317 318
f 319 320 321
f 322 323 324
