mtllib left_outer_finger_collisions_robotiq_arg2f_140_outer_finger_node_STL_BINARY__mesh.mtl
v -0.013700003735721115 0.08150847256183628 -0.03070811927318572
v -0.013749997131526474 -0.0002469291794113816 -0.002487776102498173
v -0.013749997131526474 0.0010300395078957085 -0.0022779409773647777
v 0.013249997980892662 0.0002469281025696547 0.002487775404006242
v 0.011799995787441734 0.00130065146367997 0.005857331212610005
v 0.011799995787441734 -0.0010398620506748561 0.0059092054143547994
v 0.011799995787441734 0.00130065146367997 0.005857331212610005
v 0.013300006277859214 0.08200232684612278 -0.025732569396495812
v 0.011799995787441734 0.08331030607223515 -0.022425323724746697
v 0.013300006277859214 0.08200232684612278 -0.025732569396495812
v 0.011799995787441734 0.00130065146367997 0.005857331212610005
v 0.013249997980892662 0.0002469281025696547 0.002487775404006242
v 0.013249997980892662 0.0002469281025696547 0.002487775404006242
v 0.011799995787441734 -0.0010398620506748561 0.0059092054143547994
v 0.013249997980892662 -0.0010300406720489268 0.0022779402788728467
v 0.011799995787441734 0.08020050078630452 -0.03401536494493483
v 0.013300006277859214 0.08150847256183628 -0.03070811927318572
v 0.011799995787441734 0.01876803673803807 -0.01753196492791175
v 0.013300006277859214 0.080297663807869 -0.030251357704401006
v 0.013249997980892662 -0.0002469291794113816 -0.002487776102498173
v 0.013300006277859214 0.08150847256183628 -0.03070811927318572
v 0.013249997980892662 -0.0002469291794113816 -0.002487776102498173
v 0.013300006277859214 0.080297663807869 -0.030251357704401006
v 0.013249997980892662 -0.001457733451388777 -0.00203101267106831
v -0.012200000695884231 0.00130065146367997 0.005857331212610005
v -0.012200000695884231 0.08331030607223515 -0.022425323724746697
v -0.013749997131526474 0.0002469281025696547 0.002487775404006242
v -0.013700003735721115 0.08200232684612278 -0.025732569396495812
v -0.013749997131526474 0.0002469281025696547 0.002487775404006242
v -0.012200000695884231 0.08331030607223515 -0.022425323724746697
v -0.013749997131526474 0.0002469281025696547 0.002487775404006242
v -0.012200000695884231 -0.0010398620506748561 0.0059092054143547994
v -0.012200000695884231 0.00130065146367997 0.005857331212610005
v 0.013249997980892662 -0.0010300406720489268 0.0022779402788728467
v 0.011799995787441734 -0.0010398620506748561 0.0059092054143547994
v 0.011799995787441734 -0.0032220601569861187 0.005061457864940165
v 0.013249997980892662 -0.0010300406720489268 0.0022779402788728467
v 0.011799995787441734 -0.0032220601569861187 0.005061457864940165
v 0.013249997980892662 -0.0020310136023908862 0.0014577335678040977
v 0.011799995787441734 -0.004913729615509513 0.003443146357312797
v 0.013249997980892662 -0.0020310136023908862 0.0014577335678040977
v 0.011799995787441734 -0.0032220601569861187 0.005061457864940165
v 0.012400005944073204 -0.00461466144770384 0.0016476974124088877
v 0.011799995787441734 -0.005857331212610009 0.0013006505323573943
v 0.012400005944073204 -0.004858938511461021 0.000633018964435905
v 0.012400005944073204 -0.00461466144770384 0.0016476974124088877
v 0.011799995787441734 -0.004913729615509513 0.003443146357312797
v 0.011799995787441734 -0.005857331212610009 0.0013006505323573943
v 0.012499992735683921 0.08596276491880421 -0.025708744302392
v 0.013300006277859214 0.08321312814950947 -0.02618933282792567
v 0.013300006277859214 0.08403334021568303 -0.027190303429961194
v 0.013300006277859214 0.08200232684612278 -0.025732569396495812
v 0.013300006277859214 0.08321312814950947 -0.02618933282792567
v 0.011799995787441734 0.08331030607223515 -0.022425323724746697
v 0.011799995787441734 0.08331030607223515 -0.022425323724746697
v 0.013300006277859214 0.08321312814950947 -0.02618933282792567
v 0.011799995787441734 0.0854096114635468 -0.023461479693651192
v 0.013300006277859214 0.080297663807869 -0.030251357704401006
v 0.013249997980892662 -0.0022779421415179977 -0.0010300413705408569
v 0.013249997980892662 -0.001457733451388777 -0.00203101267106831
v -0.012200000695884231 -0.003443148452788593 -0.004913730081170796
v -0.012200000695884231 -0.005061454139649871 -0.0032220594584941855
v -0.013749997131526474 -0.001457733451388777 -0.00203101267106831
v 0.011799995787441734 -0.003443148452788593 -0.004913730081170796
v 0.011799995787441734 0.006179760675877335 -0.011656687594950196
v 0.013249997980892662 -0.001457733451388777 -0.00203101267106831
v 0.011799995787441734 0.006179760675877335 -0.011656687594950196
v 0.011799995787441734 0.010137962177395826 -0.014100021682679648
v 0.013249997980892662 -0.001457733451388777 -0.00203101267106831
v -0.012200000695884231 -0.0010398620506748561 0.0059092054143547994
v -0.013749997131526474 -0.0010300406720489268 0.0022779402788728467
v -0.012200000695884231 -0.0032220601569861187 0.005061457864940165
v -0.012200000695884231 -0.0010398620506748561 0.0059092054143547994
v -0.013749997131526474 0.0002469281025696547 0.002487775404006242
v -0.013749997131526474 -0.0010300406720489268 0.0022779402788728467
v 0.011799995787441734 -0.004913729615509513 0.003443146357312797
v 0.012400005944073204 -0.004461388103663923 0.0019020865438506
v 0.013249997980892662 -0.0020310136023908862 0.0014577335678040977
v 0.013249997980892662 -0.0020310136023908862 0.0014577335678040977
v 0.012400005944073204 -0.004461388103663923 0.0019020865438506
v 0.012400005944073204 -0.00461466144770384 0.0016476974124088877
v 0.012400005944073204 -0.00461466144770384 0.0016476974124088877
v 0.012400005944073204 -0.004461388103663923 0.0019020865438506
v 0.011799995787441734 -0.004913729615509513 0.003443146357312797
v 0.012499992735683921 0.0863992422819138 -0.026656758040189733
v 0.012499992735683921 0.08596276491880421 -0.025708744302392
v 0.013300006277859214 0.08403334021568303 -0.027190303429961194
v 0.011799995787441734 0.0854096114635468 -0.023461479693651192
v 0.012499992735683921 0.08576305210590367 -0.02548892050981521
v 0.012499992735683921 0.08596276491880421 -0.025708744302392
v 0.012499992735683921 0.08576305210590367 -0.02548892050981521
v 0.013300006277859214 0.08321312814950947 -0.02618933282792567
v 0.012499992735683921 0.08596276491880421 -0.025708744302392
v 0.013300006277859214 0.08321312814950947 -0.02618933282792567
v 0.012499992735683921 0.08576305210590367 -0.02548892050981521
v 0.011799995787441734 0.0854096114635468 -0.023461479693651192
v -0.013700003735721115 0.08321312814950947 -0.02618933282792567
v -0.013700003735721115 0.08200232684612278 -0.025732569396495812
v -0.012200000695884231 0.08331030607223515 -0.022425323724746697
v 0.007300002034753563 0.0649402663111687 -0.029920781031250943
v 0.011799995787441734 0.08020050078630452 -0.03401536494493483
v 0.011799995787441734 0.01876803673803807 -0.01753196492791175
v -0.0076999985612928885 0.0649402663111687 -0.029920781031250943
v -0.012200000695884231 0.01876803673803807 -0.01753196492791175
v -0.012200000695884231 0.08020050078630452 -0.03401536494493483
v -0.013700003735721115 0.08150847256183628 -0.03070811927318572
v -0.012200000695884231 0.08020050078630452 -0.03401536494493483
v -0.012200000695884231 0.01876803673803807 -0.01753196492791175
v -0.012200000695884231 0.08253651857376103 -0.03416928276419638
v -0.012200000695884231 0.08020050078630452 -0.03401536494493483
v -0.013700003735721115 0.08150847256183628 -0.03070811927318572
v 0.011799995787441734 0.08475361019372944 -0.033417526632547365
v 0.011799995787441734 0.08651426434516911 -0.031874548643827424
v 0.013300006277859214 0.08378641307353978 -0.02967807836830615
v 0.011799995787441734 0.08651426434516911 -0.031874548643827424
v 0.012499992735683921 0.0866051092743874 -0.028268424794077863
v 0.013300006277859214 0.08378641307353978 -0.02967807836830615
v 0.013300006277859214 0.08378641307353978 -0.02967807836830615
v 0.012499992735683921 0.0866051092743874 -0.028268424794077863
v 0.013300006277859214 0.08424317091703419 -0.028467273339629163
v 0.013300006277859214 0.08424317091703419 -0.028467273339629163
v 0.012499992735683921 0.0866051092743874 -0.028268424794077863
v 0.012499992735683921 0.08664923906326298 -0.027974726632237424
v 0.012400005944073204 -0.00461466144770384 0.0016476974124088877
v 0.013249997980892662 -0.002487773541361095 0.00024692885926924635
v 0.013249997980892662 -0.0020310136023908862 0.0014577335678040977
v 0.012400005944073204 -0.00461466144770384 0.0016476974124088877
v 0.012400005944073204 -0.004858938511461021 0.000633018964435905
v 0.013249997980892662 -0.002487773541361095 0.00024692885926924635
v 0.013249997980892662 -0.002487773541361095 0.00024692885926924635
v 0.013300006277859214 0.07972438633441929 -0.02676261030137538
v 0.013249997980892662 -0.0020310136023908862 0.0014577335678040977
v 0.013249997980892662 -0.0020310136023908862 0.0014577335678040977
v 0.013300006277859214 0.08072535693645481 -0.025942403823137276
v 0.013249997980892662 -0.0010300406720489268 0.0022779402788728467
v 0.013300006277859214 0.07972438633441929 -0.02676261030137538
v 0.013300006277859214 0.08072535693645481 -0.025942403823137276
v 0.013249997980892662 -0.0020310136023908862 0.0014577335678040977
v 0.013300006277859214 0.08072535693645481 -0.025942403823137276
v 0.013300006277859214 0.08200232684612278 -0.025732569396495812
v 0.013249997980892662 0.0002469281025696547 0.002487775404006242
v 0.013249997980892662 -0.0010300406720489268 0.0022779402788728467
v 0.013300006277859214 0.08072535693645481 -0.025942403823137276
v 0.013249997980892662 0.0002469281025696547 0.002487775404006242
v 0.013300006277859214 0.080297663807869 -0.030251357704401006
v 0.013300006277859214 0.07947745919227604 -0.029250385239720334
v 0.013249997980892662 -0.0022779421415179977 -0.0010300413705408569
v 0.013249997980892662 -0.0022779421415179977 -0.0010300413705408569
v 0.013300006277859214 0.07947745919227604 -0.029250385239720334
v 0.013249997980892662 -0.002487773541361095 0.00024692885926924635
v -0.012200000695884231 -0.005061454139649871 -0.0032220594584941855
v -0.012200000695884231 -0.005909205414354804 -0.0010398591402918096
v -0.012849996797740463 -0.004748245701193811 -0.0009879670105874534
v 0.011799995787441734 -0.005909205414354804 -0.0010398591402918096
v 0.011799995787441734 -0.005061454139649871 -0.0032220594584941855
v 0.012400005944073204 -0.004748245701193811 -0.0009879670105874534
v 0.012400005944073204 -0.004748245701193811 -0.0009879670105874534
v 0.011799995787441734 -0.005061454139649871 -0.0032220594584941855
v 0.013249997980892662 -0.0022779421415179977 -0.0010300413705408569
v 0.011799995787441734 -0.003443148452788593 -0.004913730081170796
v 0.013249997980892662 -0.001457733451388777 -0.00203101267106831
v 0.011799995787441734 -0.005061454139649871 -0.0032220594584941855
v 0.013249997980892662 -0.0022779421415179977 -0.0010300413705408569
v 0.011799995787441734 -0.005061454139649871 -0.0032220594584941855
v 0.013249997980892662 -0.001457733451388777 -0.00203101267106831
v -0.012200000695884231 0.014353055506944663 -0.01606731489300727
v -0.012200000695884231 0.010137962177395826 -0.014100021682679648
v -0.013749997131526474 -0.001457733451388777 -0.00203101267106831
v -0.013749997131526474 -0.0002469291794113816 -0.002487776102498173
v -0.012200000695884231 0.014353055506944663 -0.01606731489300727
v -0.013749997131526474 -0.001457733451388777 -0.00203101267106831
v -0.013700003735721115 0.08150847256183628 -0.03070811927318572
v -0.012200000695884231 0.01876803673803807 -0.01753196492791175
v -0.012200000695884231 0.014353055506944663 -0.01606731489300727
v -0.013700003735721115 0.08150847256183628 -0.03070811927318572
v -0.012200000695884231 0.014353055506944663 -0.01606731489300727
v -0.013749997131526474 -0.0002469291794113816 -0.002487776102498173
v 0.011799995787441734 0.010137962177395826 -0.014100021682679648
v 0.011799995787441734 0.014353055506944663 -0.01606731489300727
v 0.013249997980892662 -0.001457733451388777 -0.00203101267106831
v 0.013249997980892662 -0.001457733451388777 -0.00203101267106831
v 0.011799995787441734 0.014353055506944663 -0.01606731489300727
v 0.013249997980892662 -0.0002469291794113816 -0.002487776102498173
v 0.013300006277859214 0.08150847256183628 -0.03070811927318572
v 0.011799995787441734 0.014353055506944663 -0.01606731489300727
v 0.011799995787441734 0.01876803673803807 -0.01753196492791175
v 0.013249997980892662 -0.0002469291794113816 -0.002487776102498173
v 0.011799995787441734 0.014353055506944663 -0.01606731489300727
v 0.013300006277859214 0.08150847256183628 -0.03070811927318572
v -0.013749997131526474 -0.001457733451388777 -0.00203101267106831
v -0.012200000695884231 0.006179760675877335 -0.011656687594950196
v -0.012200000695884231 -0.003443148452788593 -0.004913730081170796
v -0.012200000695884231 0.010137962177395826 -0.014100021682679648
v -0.012200000695884231 0.006179760675877335 -0.011656687594950196
v -0.013749997131526474 -0.001457733451388777 -0.00203101267106831
v -0.013749997131526474 -0.0010300406720489268 0.0022779402788728467
v -0.013749997131526474 -0.0020310136023908862 0.0014577335678040977
v -0.012200000695884231 -0.0032220601569861187 0.005061457864940165
v 0.011799995787441734 0.08770433813333516 -0.027439231052994718
v 0.012499992735683921 0.08648621290922169 -0.02694386988878249
v 0.012499992735683921 0.08664923906326298 -0.027974726632237424
v 0.012499992735683921 0.0863992422819138 -0.026656758040189733
v 0.012499992735683921 0.08648621290922169 -0.02694386988878249
v 0.011799995787441734 0.08770433813333516 -0.027439231052994718
v 0.013300006277859214 0.08403334021568303 -0.027190303429961194
v 0.012499992735683921 0.08648621290922169 -0.02694386988878249
v 0.012499992735683921 0.0863992422819138 -0.026656758040189733
v 0.013300006277859214 0.08424317091703419 -0.028467273339629163
v 0.012499992735683921 0.08648621290922169 -0.02694386988878249
v 0.013300006277859214 0.08403334021568303 -0.027190303429961194
v 0.012499992735683921 0.08664923906326298 -0.027974726632237424
v 0.012499992735683921 0.08648621290922169 -0.02694386988878249
v 0.013300006277859214 0.08424317091703419 -0.028467273339629163
v -0.012200000695884231 0.08331030607223515 -0.022425323724746697
v -0.012200000695884231 0.0854096114635468 -0.023461479693651192
v -0.013700003735721115 0.08321312814950947 -0.02618933282792567
v -0.012899997644126419 0.08596276491880421 -0.025708744302392
v -0.012200000695884231 0.0854096114635468 -0.023461479693651192
v -0.012200000695884231 0.08695258200168614 -0.02522213011980056
v -0.013749997131526474 0.0014577324036508805 0.0020310117397457353
v -0.013749997131526474 0.0002469281025696547 0.002487775404006242
v -0.013700003735721115 0.08200232684612278 -0.025732569396495812
v -0.013700003735721115 0.08321312814950947 -0.02618933282792567
v -0.013749997131526474 0.0014577324036508805 0.0020310117397457353
v -0.013700003735721115 0.08200232684612278 -0.025732569396495812
v 0.011799995787441734 0.0854096114635468 -0.023461479693651192
v 0.012499992735683921 0.08596276491880421 -0.025708744302392
v 0.011799995787441734 0.08695258200168614 -0.02522213011980056
v 0.012499992735683921 0.0863992422819138 -0.026656758040189733
v 0.011799995787441734 0.08770433813333516 -0.027439231052994718
v 0.011799995787441734 0.08695258200168614 -0.02522213011980056
v 0.012499992735683921 0.0863992422819138 -0.026656758040189733
v 0.011799995787441734 0.08695258200168614 -0.02522213011980056
v 0.012499992735683921 0.08596276491880421 -0.025708744302392
v 0.013300006277859214 0.08278543502092366 -0.030498284846544255
v 0.011799995787441734 0.08475361019372944 -0.033417526632547365
v 0.013300006277859214 0.08378641307353978 -0.02967807836830615
v 0.011799995787441734 0.08020050078630452 -0.03401536494493483
v 0.011799995787441734 0.08253651857376103 -0.03416928276419638
v 0.013300006277859214 0.08150847256183628 -0.03070811927318572
v 0.013300006277859214 0.08278543502092366 -0.030498284846544255
v 0.013300006277859214 0.08150847256183628 -0.03070811927318572
v 0.011799995787441734 0.08253651857376103 -0.03416928276419638
v 0.013300006277859214 0.08278543502092366 -0.030498284846544255
v 0.011799995787441734 0.08253651857376103 -0.03416928276419638
v 0.011799995787441734 0.08475361019372944 -0.033417526632547365
v 0.011799995787441734 0.0875504165887833 -0.02977524884045123
v 0.012499992735683921 0.0866051092743874 -0.028268424794077863
v 0.011799995787441734 0.08651426434516911 -0.031874548643827424
v 0.012499992735683921 0.08664923906326298 -0.027974726632237424
v 0.011799995787441734 0.0875504165887833 -0.02977524884045123
v 0.011799995787441734 0.08770433813333516 -0.027439231052994718
v 0.012499992735683921 0.0866051092743874 -0.028268424794077863
v 0.011799995787441734 0.0875504165887833 -0.02977524884045123
v 0.012499992735683921 0.08664923906326298 -0.027974726632237424
v 0.013249997980892662 -0.002487773541361095 0.00024692885926924635
v 0.012400005944073204 -0.004858938511461021 0.000633018964435905
v 0.012400005944073204 -0.004888569470494988 0.0003344864526297896
v 0.011799995787441734 -0.005909205414354804 -0.0010398591402918096
v 0.012400005944073204 -0.004888569470494988 0.0003344864526297896
v 0.011799995787441734 -0.005857331212610009 0.0013006505323573943
v 0.011799995787441734 -0.005857331212610009 0.0013006505323573943
v 0.012400005944073204 -0.004888569470494988 0.0003344864526297896
v 0.012400005944073204 -0.004858938511461021 0.000633018964435905
v 0.013249997980892662 -0.0022779421415179977 -0.0010300413705408569
v 0.012400005944073204 -0.00484852120280266 -0.0007084113894961772
v 0.012400005944073204 -0.004748245701193811 -0.0009879670105874534
v 0.013249997980892662 -0.002487773541361095 0.00024692885926924635
v 0.012400005944073204 -0.00484852120280266 -0.0007084113894961772
v 0.013249997980892662 -0.0022779421415179977 -0.0010300413705408569
v 0.012400005944073204 -0.004888569470494988 0.0003344864526297896
v 0.012400005944073204 -0.00484852120280266 -0.0007084113894961772
v 0.013249997980892662 -0.002487773541361095 0.00024692885926924635
v 0.012400005944073204 -0.004748245701193811 -0.0009879670105874534
v 0.012400005944073204 -0.00484852120280266 -0.0007084113894961772
v 0.011799995787441734 -0.005909205414354804 -0.0010398591402918096
v 0.011799995787441734 -0.005909205414354804 -0.0010398591402918096
v 0.012400005944073204 -0.00484852120280266 -0.0007084113894961772
v 0.012400005944073204 -0.004888569470494988 0.0003344864526297896
v 0.013249997980892662 -0.002487773541361095 0.00024692885926924635
v 0.013300006277859214 0.07926762849092488 -0.027973415330052365
v 0.013300006277859214 0.07972438633441929 -0.02676261030137538
v 0.013300006277859214 0.07947745919227604 -0.029250385239720334
v 0.013300006277859214 0.07926762849092488 -0.027973415330052365
v 0.013249997980892662 -0.002487773541361095 0.00024692885926924635
v -0.012200000695884231 -0.005857331212610009 0.0013006505323573943
v -0.012849996797740463 -0.004888569470494988 0.0003344864526297896
v -0.012200000695884231 -0.005909205414354804 -0.0010398591402918096
v -0.012200000695884231 0.006179760675877335 -0.011656687594950196
v -0.012200000695884231 0.010137962177395826 -0.014100021682679648
v -0.005200000945478679 0.008744204416871074 -0.013311471790075297
v -0.012200000695884231 -0.005061454139649871 -0.0032220594584941855
v -0.013749997131526474 -0.0022779421415179977 -0.0010300413705408569
v -0.013749997131526474 -0.001457733451388777 -0.00203101267106831
v -0.012849996797740463 -0.004748245701193811 -0.0009879670105874534
v -0.013749997131526474 -0.0022779421415179977 -0.0010300413705408569
v -0.012200000695884231 -0.005061454139649871 -0.0032220594584941855
v -0.013700003735721115 0.08321312814950947 -0.02618933282792567
v -0.012899997644126419 0.08576305210590367 -0.02548892050981521
v -0.012899997644126419 0.08596276491880421 -0.025708744302392
v -0.012899997644126419 0.08576305210590367 -0.02548892050981521
v -0.012200000695884231 0.0854096114635468 -0.023461479693651192
v -0.012899997644126419 0.08596276491880421 -0.025708744302392
v -0.012200000695884231 0.0854096114635468 -0.023461479693651192
v -0.012899997644126419 0.08576305210590367 -0.02548892050981521
v -0.013700003735721115 0.08321312814950947 -0.02618933282792567
v -0.013700003735721115 0.08321312814950947 -0.02618933282792567
v -0.012899997644126419 0.08596276491880421 -0.025708744302392
v -0.013700003735721115 0.08403334021568303 -0.027190303429961194
v -0.013749997131526474 0.0014577324036508805 0.0020310117397457353
v -0.013700003735721115 0.08403334021568303 -0.027190303429961194
v -0.013749997131526474 0.002277941210195423 0.0010300404392182823
v -0.013749997131526474 0.0014577324036508805 0.0020310117397457353
v -0.013700003735721115 0.08321312814950947 -0.02618933282792567
v -0.013700003735721115 0.08403334021568303 -0.027190303429961194
v -0.013749997131526474 0.002277941210195423 0.0010300404392182823
v -0.013700003735721115 0.08403334021568303 -0.027190303429961194
v -0.013749997131526474 0.00248777261003852 -0.0002469278697390108
v -0.013749997131526474 0.00248777261003852 -0.0002469278697390108
v -0.013700003735721115 0.08403334021568303 -0.027190303429961194
v -0.013700003735721115 0.08424317091703419 -0.028467273339629163
v -0.012200000695884231 0.08651426434516911 -0.031874548643827424
v -0.012899997644126419 0.0866051092743874 -0.028268424794077863
v -0.012200000695884231 0.0875504165887833 -0.02977524884045123
v -0.012200000695884231 0.08475361019372944 -0.033417526632547365
v -0.013700003735721115 0.08378641307353978 -0.02967807836830615
v -0.012200000695884231 0.08651426434516911 -0.031874548643827424
v -0.012899997644126419 0.0866051092743874 -0.028268424794077863
v -0.012200000695884231 0.08651426434516911 -0.031874548643827424
v -0.013700003735721115 0.08378641307353978 -0.02967807836830615
v -0.012899997644126419 0.0866051092743874 -0.028268424794077863
v -0.013700003735721115 0.08378641307353978 -0.02967807836830615
v -0.013700003735721115 0.08424317091703419 -0.028467273339629163
v -0.013749997131526474 0.002031012438237668 -0.0014577343827113505
v -0.013700003735721115 0.08378641307353978 -0.02967807836830615
v -0.013749997131526474 0.0010300395078957085 -0.0022779409773647777
v -0.013749997131526474 0.00248777261003852 -0.0002469278697390108
v -0.013700003735721115 0.08378641307353978 -0.02967807836830615
v -0.013749997131526474 0.002031012438237668 -0.0014577343827113505
v -0.013700003735721115 0.08424317091703419 -0.028467273339629163
v -0.013700003735721115 0.08378641307353978 -0.02967807836830615
v -0.013749997131526474 0.00248777261003852 -0.0002469278697390108
v -0.012849996797740463 -0.004748245701193811 -0.0009879670105874534
v -0.012200000695884231 -0.005909205414354804 -0.0010398591402918096
v -0.012849996797740463 -0.00484852120280266 -0.0007084113894961772
v -0.012849996797740463 -0.004888569470494988 0.0003344864526297896
v -0.012849996797740463 -0.00484852120280266 -0.0007084113894961772
v -0.012200000695884231 -0.005909205414354804 -0.0010398591402918096
v -0.013749997131526474 -0.0022779421415179977 -0.0010300413705408569
v -0.012849996797740463 -0.004748245701193811 -0.0009879670105874534
v -0.012849996797740463 -0.00484852120280266 -0.0007084113894961772
v -0.012849996797740463 -0.00461466144770384 0.0016476974124088877
v -0.012200000695884231 -0.005857331212610009 0.0013006505323573943
v -0.012200000695884231 -0.004913729615509513 0.003443146357312797
v 0.011799995787441734 0.014353055506944663 -0.01606731489300727
v 0.0024279777426272635 0.01148090604692698 -0.01479230355471372
v 0.0016000022878870372 0.011579957790672784 -0.014840847812592978
v 0.011799995787441734 0.014353055506944663 -0.01606731489300727
v 0.011799995787441734 0.010137962177395826 -0.014100021682679648
v 0.0024279777426272635 0.01148090604692698 -0.01479230355471372
v 0.0016000022878870372 0.011579957790672784 -0.014840847812592978
v 0.0024279777426272635 0.01148090604692698 -0.01479230355471372
v -0.0019999991636723284 0.011579957790672784 -0.014840847812592978
v -0.005200000945478679 0.008744204416871074 -0.013311471790075297
v -0.004956411663442851 0.009811700321733957 -0.013921996578574175
v 0.004690950270742179 0.009463840164244178 -0.013727815821766848
v -0.004956411663442851 0.009811700321733957 -0.013921996578574175
v -0.005200000945478679 0.008744204416871074 -0.013311471790075297
v -0.012200000695884231 0.010137962177395826 -0.014100021682679648
v 0.004690950270742179 0.009463840164244178 -0.013727815821766848
v -0.004956411663442851 0.009811700321733957 -0.013921996578574175
v 0.011799995787441734 0.010137962177395826 -0.014100021682679648
v 0.011799995787441734 0.010137962177395826 -0.014100021682679648
v -0.004956411663442851 0.009811700321733957 -0.013921996578574175
v -0.012200000695884231 0.010137962177395826 -0.014100021682679648
v -0.005200000945478679 0.008744204416871074 -0.013311471790075297
v 0.004690950270742179 0.009463840164244178 -0.013727815821766848
v 0.004799996968358756 0.008744204416871074 -0.013311471790075297
v 0.011799995787441734 0.010137962177395826 -0.014100021682679648
v 0.004799996968358756 0.008744204416871074 -0.013311471790075297
v 0.004690950270742179 0.009463840164244178 -0.013727815821766848
v 0.011799995787441734 0.006179760675877335 -0.011656687594950196
v 0.004799996968358756 0.008744204416871074 -0.013311471790075297
v 0.011799995787441734 0.010137962177395826 -0.014100021682679648
v -0.012899997644126419 0.08664923906326298 -0.027974726632237424
v -0.012200000695884231 0.08770433813333516 -0.027439231052994718
v -0.012200000695884231 0.0875504165887833 -0.02977524884045123
v -0.012899997644126419 0.0866051092743874 -0.028268424794077863
v -0.012899997644126419 0.08664923906326298 -0.027974726632237424
v -0.012200000695884231 0.0875504165887833 -0.02977524884045123
v -0.013700003735721115 0.08424317091703419 -0.028467273339629163
v -0.012899997644126419 0.08664923906326298 -0.027974726632237424
v -0.012899997644126419 0.0866051092743874 -0.028268424794077863
v -0.012200000695884231 0.08475361019372944 -0.033417526632547365
v -0.013700003735721115 0.08278543502092366 -0.030498284846544255
v -0.013700003735721115 0.08378641307353978 -0.02967807836830615
v -0.013700003735721115 0.08278543502092366 -0.030498284846544255
v -0.012200000695884231 0.08475361019372944 -0.033417526632547365
v -0.012200000695884231 0.08253651857376103 -0.03416928276419638
v -0.013700003735721115 0.08278543502092366 -0.030498284846544255
v -0.012200000695884231 0.08253651857376103 -0.03416928276419638
v -0.013700003735721115 0.08150847256183628 -0.03070811927318572
v -0.013749997131526474 0.0010300395078957085 -0.0022779409773647777
v -0.013700003735721115 0.08278543502092366 -0.030498284846544255
v -0.013700003735721115 0.08150847256183628 -0.03070811927318572
v -0.013700003735721115 0.08378641307353978 -0.02967807836830615
v -0.013700003735721115 0.08278543502092366 -0.030498284846544255
v -0.013749997131526474 0.0010300395078957085 -0.0022779409773647777
v -0.012849996797740463 -0.004888569470494988 0.0003344864526297896
v -0.013749997131526474 -0.002487773541361095 0.00024692885926924635
v -0.012849996797740463 -0.00484852120280266 -0.0007084113894961772
v -0.012849996797740463 -0.00484852120280266 -0.0007084113894961772
v -0.013749997131526474 -0.002487773541361095 0.00024692885926924635
v -0.013749997131526474 -0.0022779421415179977 -0.0010300413705408569
v -0.012849996797740463 -0.00461466144770384 0.0016476974124088877
v -0.013749997131526474 -0.0020310136023908862 0.0014577335678040977
v -0.013749997131526474 -0.002487773541361095 0.00024692885926924635
v -0.012849996797740463 -0.004888569470494988 0.0003344864526297896
v -0.012200000695884231 -0.005857331212610009 0.0013006505323573943
v -0.012849996797740463 -0.004858938511461021 0.000633018964435905
v -0.012849996797740463 -0.00461466144770384 0.0016476974124088877
v -0.012849996797740463 -0.004858938511461021 0.000633018964435905
v -0.012200000695884231 -0.005857331212610009 0.0013006505323573943
v -0.012849996797740463 -0.004858938511461021 0.000633018964435905
v -0.013749997131526474 -0.002487773541361095 0.00024692885926924635
v -0.012849996797740463 -0.004888569470494988 0.0003344864526297896
v -0.013749997131526474 -0.002487773541361095 0.00024692885926924635
v -0.012849996797740463 -0.004858938511461021 0.000633018964435905
v -0.012849996797740463 -0.00461466144770384 0.0016476974124088877
v -0.012849996797740463 -0.00461466144770384 0.0016476974124088877
v -0.012200000695884231 -0.004913729615509513 0.003443146357312797
v -0.012849996797740463 -0.004461388103663923 0.0019020865438506
v -0.012849996797740463 -0.00461466144770384 0.0016476974124088877
v -0.012849996797740463 -0.004461388103663923 0.0019020865438506
v -0.013749997131526474 -0.0020310136023908862 0.0014577335678040977
v -0.012200000695884231 -0.0032220601569861187 0.005061457864940165
v -0.012849996797740463 -0.004461388103663923 0.0019020865438506
v -0.012200000695884231 -0.004913729615509513 0.003443146357312797
v -0.013749997131526474 -0.0020310136023908862 0.0014577335678040977
v -0.012849996797740463 -0.004461388103663923 0.0019020865438506
v -0.012200000695884231 -0.0032220601569861187 0.005061457864940165
v -0.012200000695884231 0.010137962177395826 -0.014100021682679648
v 0.00437056040391326 0.010142863728106027 -0.014102615416049952
v 0.011799995787441734 0.010137962177395826 -0.014100021682679648
v 0.00437056040391326 0.010142863728106027 -0.014102615416049952
v 0.0038634289521723994 0.010733202099800115 -0.014414798468351359
v 0.011799995787441734 0.010137962177395826 -0.014100021682679648
v -0.004262740258127452 0.010733821429312234 -0.014415116980671877
v 0.0038634289521723994 0.010733202099800115 -0.014414798468351359
v -0.012200000695884231 0.010137962177395826 -0.014100021682679648
v -0.012200000695884231 0.010137962177395826 -0.014100021682679648
v 0.0038634289521723994 0.010733202099800115 -0.014414798468351359
v 0.00437056040391326 0.010142863728106027 -0.014102615416049952
v 0.0024279777426272635 0.01148090604692698 -0.01479230355471372
v -0.003224584041163326 0.01135880127549172 -0.014731991104781622
v -0.0019999991636723284 0.011579957790672784 -0.014840847812592978
v -0.003224584041163326 0.01135880127549172 -0.014731991104781622
v -0.004262740258127452 0.010733821429312234 -0.014415116980671877
v -0.012200000695884231 0.010137962177395826 -0.014100021682679648
v -0.0019999991636723284 0.011579957790672784 -0.014840847812592978
v -0.003224584041163326 0.01135880127549172 -0.014731991104781622
v -0.012200000695884231 0.014353055506944663 -0.01606731489300727
v -0.012200000695884231 0.014353055506944663 -0.01606731489300727
v -0.003224584041163326 0.01135880127549172 -0.014731991104781622
v -0.012200000695884231 0.010137962177395826 -0.014100021682679648
v -0.012200000695884231 0.08770433813333516 -0.027439231052994718
v -0.012899997644126419 0.0863992422819138 -0.026656758040189733
v -0.012200000695884231 0.08695258200168614 -0.02522213011980056
v -0.012200000695884231 0.08695258200168614 -0.02522213011980056
v -0.012899997644126419 0.0863992422819138 -0.026656758040189733
v -0.012899997644126419 0.08596276491880421 -0.025708744302392
v -0.013700003735721115 0.08403334021568303 -0.027190303429961194
v -0.012899997644126419 0.08596276491880421 -0.025708744302392
v -0.012899997644126419 0.0863992422819138 -0.026656758040189733
v -0.003224584041163326 0.01135880127549172 -0.014731991104781622
v 0.0024279777426272635 0.01148090604692698 -0.01479230355471372
v 0.003199999453499914 0.01119130570441485 -0.014648415148258204
v 0.0024279777426272635 0.01148090604692698 -0.01479230355471372
v 0.011799995787441734 0.010137962177395826 -0.014100021682679648
v 0.003199999453499914 0.01119130570441485 -0.014648415148258204
v 0.0038634289521723994 0.010733202099800115 -0.014414798468351359
v 0.003199999453499914 0.01119130570441485 -0.014648415148258204
v 0.011799995787441734 0.010137962177395826 -0.014100021682679648
v 0.003199999453499914 0.01119130570441485 -0.014648415148258204
v 0.0038634289521723994 0.010733202099800115 -0.014414798468351359
v -0.004262740258127452 0.010733821429312234 -0.014415116980671877
v -0.003224584041163326 0.01135880127549172 -0.014731991104781622
v 0.003199999453499914 0.01119130570441485 -0.014648415148258204
v -0.004262740258127452 0.010733821429312234 -0.014415116980671877
v -0.012899997644126419 0.08664923906326298 -0.027974726632237424
v -0.012899997644126419 0.08648621290922169 -0.02694386988878249
v -0.012200000695884231 0.08770433813333516 -0.027439231052994718
v -0.012899997644126419 0.0863992422819138 -0.026656758040189733
v -0.012200000695884231 0.08770433813333516 -0.027439231052994718
v -0.012899997644126419 0.08648621290922169 -0.02694386988878249
v -0.012899997644126419 0.0863992422819138 -0.026656758040189733
v -0.012899997644126419 0.08648621290922169 -0.02694386988878249
v -0.013700003735721115 0.08403334021568303 -0.027190303429961194
v -0.013700003735721115 0.08403334021568303 -0.027190303429961194
v -0.012899997644126419 0.08648621290922169 -0.02694386988878249
v -0.013700003735721115 0.08424317091703419 -0.028467273339629163
v -0.012899997644126419 0.08664923906326298 -0.027974726632237424
v -0.013700003735721115 0.08424317091703419 -0.028467273339629163
v -0.012899997644126419 0.08648621290922169 -0.02694386988878249
v -0.012200000695884231 0.00130065146367997 0.005857331212610005
v 0.011799995787441734 0.00130065146367997 0.005857331212610005
v -0.012200000695884231 0.08331030607223515 -0.022425323724746697
v -0.012200000695884231 0.08331030607223515 -0.022425323724746697
v 0.011799995787441734 0.00130065146367997 0.005857331212610005
v 0.011799995787441734 0.08331030607223515 -0.022425323724746697
v 0.011799995787441734 0.00130065146367997 0.005857331212610005
v -0.012200000695884231 0.00130065146367997 0.005857331212610005
v -0.012200000695884231 -0.0010398620506748561 0.0059092054143547994
v 0.011799995787441734 0.00130065146367997 0.005857331212610005
v -0.012200000695884231 -0.0010398620506748561 0.0059092054143547994
v 0.011799995787441734 -0.0010398620506748561 0.0059092054143547994
v -0.012200000695884231 -0.004913729615509513 0.003443146357312797
v 0.011799995787441734 -0.004913729615509513 0.003443146357312797
v 0.011799995787441734 -0.0032220601569861187 0.005061457864940165
v -0.012200000695884231 -0.004913729615509513 0.003443146357312797
v 0.011799995787441734 -0.0032220601569861187 0.005061457864940165
v -0.012200000695884231 -0.0032220601569861187 0.005061457864940165
v -0.012200000695884231 -0.0010398620506748561 0.0059092054143547994
v 0.011799995787441734 -0.0032220601569861187 0.005061457864940165
v 0.011799995787441734 -0.0010398620506748561 0.0059092054143547994
v 0.011799995787441734 -0.0032220601569861187 0.005061457864940165
v -0.012200000695884231 -0.0010398620506748561 0.0059092054143547994
v -0.012200000695884231 -0.0032220601569861187 0.005061457864940165
v -0.012200000695884231 -0.005857331212610009 0.0013006505323573943
v -0.012200000695884231 -0.005909205414354804 -0.0010398591402918096
v 0.011799995787441734 -0.005909205414354804 -0.0010398591402918096
v 0.011799995787441734 -0.005857331212610009 0.0013006505323573943
v -0.012200000695884231 -0.005857331212610009 0.0013006505323573943
v 0.011799995787441734 -0.005909205414354804 -0.0010398591402918096
v 0.011799995787441734 -0.005857331212610009 0.0013006505323573943
v 0.011799995787441734 -0.004913729615509513 0.003443146357312797
v -0.012200000695884231 -0.005857331212610009 0.0013006505323573943
v -0.012200000695884231 -0.004913729615509513 0.003443146357312797
v -0.012200000695884231 -0.005857331212610009 0.0013006505323573943
v 0.011799995787441734 -0.004913729615509513 0.003443146357312797
v 0.007300002034753563 0.0649402663111687 -0.029920781031250943
v 0.011799995787441734 0.01876803673803807 -0.01753196492791175
v -0.012200000695884231 0.01876803673803807 -0.01753196492791175
v -0.0076999985612928885 0.0649402663111687 -0.029920781031250943
v 0.007300002034753563 0.0649402663111687 -0.029920781031250943
v -0.012200000695884231 0.01876803673803807 -0.01753196492791175
v 0.007300002034753563 0.0649402663111687 -0.029920781031250943
v -0.0076999985612928885 0.0649402663111687 -0.029920781031250943
v -0.012200000695884231 0.08020050078630452 -0.03401536494493483
v 0.007300002034753563 0.0649402663111687 -0.029920781031250943
v -0.012200000695884231 0.08020050078630452 -0.03401536494493483
v 0.011799995787441734 0.08020050078630452 -0.03401536494493483
v -0.012200000695884231 -0.005909205414354804 -0.0010398591402918096
v 0.011799995787441734 -0.005061454139649871 -0.0032220594584941855
v 0.011799995787441734 -0.005909205414354804 -0.0010398591402918096
v -0.012200000695884231 -0.005061454139649871 -0.0032220594584941855
v 0.011799995787441734 -0.005061454139649871 -0.0032220594584941855
v -0.012200000695884231 -0.005909205414354804 -0.0010398591402918096
v 0.011799995787441734 -0.003443148452788593 -0.004913730081170796
v 0.011799995787441734 -0.005061454139649871 -0.0032220594584941855
v -0.012200000695884231 -0.003443148452788593 -0.004913730081170796
v -0.012200000695884231 -0.003443148452788593 -0.004913730081170796
v 0.011799995787441734 -0.005061454139649871 -0.0032220594584941855
v -0.012200000695884231 -0.005061454139649871 -0.0032220594584941855
v 0.011799995787441734 0.01876803673803807 -0.01753196492791175
v 0.011799995787441734 0.014353055506944663 -0.01606731489300727
v -0.012200000695884231 0.01876803673803807 -0.01753196492791175
v 0.011799995787441734 0.014353055506944663 -0.01606731489300727
v -0.012200000695884231 0.014353055506944663 -0.01606731489300727
v -0.012200000695884231 0.01876803673803807 -0.01753196492791175
v 0.011799995787441734 -0.003443148452788593 -0.004913730081170796
v -0.012200000695884231 -0.003443148452788593 -0.004913730081170796
v -0.012200000695884231 0.006179760675877335 -0.011656687594950196
v 0.011799995787441734 0.006179760675877335 -0.011656687594950196
v 0.011799995787441734 -0.003443148452788593 -0.004913730081170796
v -0.012200000695884231 0.006179760675877335 -0.011656687594950196
v 0.011799995787441734 0.08331030607223515 -0.022425323724746697
v -0.012200000695884231 0.0854096114635468 -0.023461479693651192
v -0.012200000695884231 0.08331030607223515 -0.022425323724746697
v 0.011799995787441734 0.0854096114635468 -0.023461479693651192
v -0.012200000695884231 0.0854096114635468 -0.023461479693651192
v 0.011799995787441734 0.08331030607223515 -0.022425323724746697
v -0.012200000695884231 0.0854096114635468 -0.023461479693651192
v 0.011799995787441734 0.0854096114635468 -0.023461479693651192
v 0.011799995787441734 0.08695258200168614 -0.02522213011980056
v -0.012200000695884231 0.0854096114635468 -0.023461479693651192
v 0.011799995787441734 0.08695258200168614 -0.02522213011980056
v -0.012200000695884231 0.08695258200168614 -0.02522213011980056
v 0.011799995787441734 0.08695258200168614 -0.02522213011980056
v -0.012200000695884231 0.08770433813333516 -0.027439231052994718
v -0.012200000695884231 0.08695258200168614 -0.02522213011980056
v 0.011799995787441734 0.08695258200168614 -0.02522213011980056
v 0.011799995787441734 0.08770433813333516 -0.027439231052994718
v -0.012200000695884231 0.08770433813333516 -0.027439231052994718
v -0.012200000695884231 0.08020050078630452 -0.03401536494493483
v 0.011799995787441734 0.08253651857376103 -0.03416928276419638
v 0.011799995787441734 0.08020050078630452 -0.03401536494493483
v 0.011799995787441734 0.08253651857376103 -0.03416928276419638
v -0.012200000695884231 0.08020050078630452 -0.03401536494493483
v -0.012200000695884231 0.08253651857376103 -0.03416928276419638
v -0.012200000695884231 0.08475361019372944 -0.033417526632547365
v 0.011799995787441734 0.08253651857376103 -0.03416928276419638
v -0.012200000695884231 0.08253651857376103 -0.03416928276419638
v 0.011799995787441734 0.08253651857376103 -0.03416928276419638
v -0.012200000695884231 0.08475361019372944 -0.033417526632547365
v 0.011799995787441734 0.08475361019372944 -0.033417526632547365
v -0.012200000695884231 0.08651426434516911 -0.031874548643827424
v 0.011799995787441734 0.08651426434516911 -0.031874548643827424
v -0.012200000695884231 0.08475361019372944 -0.033417526632547365
v 0.011799995787441734 0.08475361019372944 -0.033417526632547365
v -0.012200000695884231 0.08475361019372944 -0.033417526632547365
v 0.011799995787441734 0.08651426434516911 -0.031874548643827424
v -0.012200000695884231 0.08770433813333516 -0.027439231052994718
v 0.011799995787441734 0.08770433813333516 -0.027439231052994718
v 0.011799995787441734 0.0875504165887833 -0.02977524884045123
v -0.012200000695884231 0.08770433813333516 -0.027439231052994718
v 0.011799995787441734 0.0875504165887833 -0.02977524884045123
v -0.012200000695884231 0.0875504165887833 -0.02977524884045123
v -0.012200000695884231 0.08651426434516911 -0.031874548643827424
v 0.011799995787441734 0.0875504165887833 -0.02977524884045123
v 0.011799995787441734 0.08651426434516911 -0.031874548643827424
v -0.012200000695884231 0.08651426434516911 -0.031874548643827424
v -0.012200000695884231 0.0875504165887833 -0.02977524884045123
v 0.011799995787441734 0.0875504165887833 -0.02977524884045123
v 0.013300006277859214 0.08278543502092366 -0.030498284846544255
v 0.013300006277859214 0.08378641307353978 -0.02967807836830615
v 0.013300006277859214 0.07926762849092488 -0.027973415330052365
v 0.013300006277859214 0.08321312814950947 -0.02618933282792567
v 0.013300006277859214 0.08200232684612278 -0.025732569396495812
v 0.013300006277859214 0.07926762849092488 -0.027973415330052365
v 0.013300006277859214 0.08072535693645481 -0.025942403823137276
v 0.013300006277859214 0.07972438633441929 -0.02676261030137538
v 0.013300006277859214 0.07926762849092488 -0.027973415330052365
v 0.013300006277859214 0.08150847256183628 -0.03070811927318572
v 0.013300006277859214 0.07926762849092488 -0.027973415330052365
v 0.013300006277859214 0.080297663807869 -0.030251357704401006
v 0.013300006277859214 0.08321312814950947 -0.02618933282792567
v 0.013300006277859214 0.07926762849092488 -0.027973415330052365
v 0.013300006277859214 0.08403334021568303 -0.027190303429961194
v 0.013300006277859214 0.08424317091703419 -0.028467273339629163
v 0.013300006277859214 0.07926762849092488 -0.027973415330052365
v 0.013300006277859214 0.08378641307353978 -0.02967807836830615
v 0.013300006277859214 0.08424317091703419 -0.028467273339629163
v 0.013300006277859214 0.08403334021568303 -0.027190303429961194
v 0.013300006277859214 0.07926762849092488 -0.027973415330052365
v 0.013300006277859214 0.08072535693645481 -0.025942403823137276
v 0.013300006277859214 0.07926762849092488 -0.027973415330052365
v 0.013300006277859214 0.08200232684612278 -0.025732569396495812
v 0.013300006277859214 0.07947745919227604 -0.029250385239720334
v 0.013300006277859214 0.080297663807869 -0.030251357704401006
v 0.013300006277859214 0.07926762849092488 -0.027973415330052365
v 0.013300006277859214 0.08278543502092366 -0.030498284846544255
v 0.013300006277859214 0.07926762849092488 -0.027973415330052365
v 0.013300006277859214 0.08150847256183628 -0.03070811927318572
v 0.011799995787441734 0.014353055506944663 -0.01606731489300727
v -0.0019999991636723284 0.011579957790672784 -0.014840847812592978
v -0.012200000695884231 0.014353055506944663 -0.01606731489300727
v 0.0016000022878870372 0.011579957790672784 -0.014840847812592978
v -0.0019999991636723284 0.011579957790672784 -0.014840847812592978
v 0.011799995787441734 0.014353055506944663 -0.01606731489300727
v -0.012200000695884231 0.006179760675877335 -0.011656687594950196
v 0.004799996968358756 0.008744204416871074 -0.013311471790075297
v 0.011799995787441734 0.006179760675877335 -0.011656687594950196
v -0.005200000945478679 0.008744204416871074 -0.013311471790075297
v 0.004799996968358756 0.008744204416871074 -0.013311471790075297
v -0.012200000695884231 0.006179760675877335 -0.011656687594950196
v -0.013749997131526474 -0.002487773541361095 0.00024692885926924635
v -0.013749997131526474 -0.0002469291794113816 -0.002487776102498173
v -0.013749997131526474 -0.001457733451388777 -0.00203101267106831
v -0.013749997131526474 -0.0002469291794113816 -0.002487776102498173
v -0.013749997131526474 -0.002487773541361095 0.00024692885926924635
v -0.013749997131526474 0.0010300395078957085 -0.0022779409773647777
v -0.013749997131526474 0.002031012438237668 -0.0014577343827113505
v -0.013749997131526474 -0.002487773541361095 0.00024692885926924635
v -0.013749997131526474 0.00248777261003852 -0.0002469278697390108
v -0.013749997131526474 -0.0020310136023908862 0.0014577335678040977
v -0.013749997131526474 -0.0010300406720489268 0.0022779402788728467
v -0.013749997131526474 -0.002487773541361095 0.00024692885926924635
v -0.013749997131526474 0.002031012438237668 -0.0014577343827113505
v -0.013749997131526474 0.0010300395078957085 -0.0022779409773647777
v -0.013749997131526474 -0.002487773541361095 0.00024692885926924635
v -0.013749997131526474 0.002277941210195423 0.0010300404392182823
v -0.013749997131526474 0.00248777261003852 -0.0002469278697390108
v -0.013749997131526474 -0.002487773541361095 0.00024692885926924635
v -0.013749997131526474 -0.0010300406720489268 0.0022779402788728467
v -0.013749997131526474 0.0002469281025696547 0.002487775404006242
v -0.013749997131526474 -0.002487773541361095 0.00024692885926924635
v -0.013749997131526474 0.0014577324036508805 0.0020310117397457353
v -0.013749997131526474 0.002277941210195423 0.0010300404392182823
v -0.013749997131526474 -0.002487773541361095 0.00024692885926924635
v -0.013749997131526474 0.0014577324036508805 0.0020310117397457353
v -0.013749997131526474 -0.002487773541361095 0.00024692885926924635
v -0.013749997131526474 0.0002469281025696547 0.002487775404006242
v -0.013749997131526474 -0.0022779421415179977 -0.0010300413705408569
v -0.013749997131526474 -0.002487773541361095 0.00024692885926924635
v -0.013749997131526474 -0.001457733451388777 -0.00203101267106831
usemtl DefaultMaterial
f 1 2 3
f 4 5 6
f 7 8 9
f 10 11 12
f 13 14 15
f 16 17 18
f 19 20 21
f 22 23 24
f 25 26 27
f 28 29 30
f 31 32 33
f 34 35 36
f 37 38 39
f 40 41 42
f 43 44 45
f 46 47 48
f 49 50 51
f 52 53 54
f 55 56 57
f 58 59 60
f 61 62 63
f 64 65 66
f 67 68 69
f 70 71 72
f 73 74 75
f 76 77 78
f 79 80 81
f 82 83 84
f 85 86 87
f 88 89 90
f 91 92 93
f 94 95 96
f 97 98 99
f 100 101 102
f 103 104 105
f 106 107 108
f 109 110 111
f 112 113 114
f 115 116 117
f 118 119 120
f 121 122 123
f 124 125 126
f 127 128 129
f 130 131 132
f 133 134 135
f 136 137 138
f 139 140 141
f 142 143 144
f 145 146 147
f 148 149 150
f 151 152 153
f 154 155 156
f 157 158 159
f 160 161 162
f 163 164 165
f 166 167 168
f 169 170 171
f 172 173 174
f 175 176 177
f 178 179 180
f 181 182 183
f 184 185 186
f 187 188 189
f 190 191 192
f 193 194 195
f 196 197 198
f 199 200 201
f 202 203 204
f 205 206 207
f 208 209 210
f 211 212 213
f 214 215 216
f 217 218 219
f 220 221 222
f 223 224 225
f 226 227 228
f 229 230 231
f 232 233 234
f 235 236 237
f 238 239 240
f 241 242 243
f 244 245 246
f 247 248 249
f 250 251 252
f 253 254 255
f 256 257 258
f 259 260 261
f 262 263 264
f 265 266 267
f 268 269 270
f 271 272 273
f 274 275 276
f 277 278 279
f 280 281 282
f 283 284 285
f 286 287 288
f 289 290 291
f 292 293 294
f 295 296 297
f 298 299 300
f 301 302 303
f 304 305 306
f 307 308 309
f 310 311 312
f 313 314 315
f 316 317 318
f 319 320 321
f 322 323 324
f 325 326 327
f 328 329 330
f 331 332 333
f 334 335 336
f 337 338 339
f 340 341 342
f 343 344 345
f 346 347 348
f 349 350 351
f 352 353 354
f 355 356 357
f 358 359 360
f 361 362 363
f 364 365 366
f 367 368 369
f 370 371 372
f 373 374 375
f 376 377 378
f 379 380 381
f 382 383 384
f 385 386 387
f 388 389 390
f 391 392 393
f 394 395 396
f 397 398 399
f 400 401 402
f 403 404 405
f 406 407 408
f 409 410 411
f 412 413 414
f 415 416 417
f 418 419 420
f 421 422 423
f 424 425 426
f 427 428 429
f 430 431 432
f 433 434 435
f 436 437 438
f 439 440 441
f 442 443 444
f 445 446 447
f 448 449 450
f 451 452 453
f 454 455 456
f 457 458 459
f 460 461 462
f 463 464 465
f 466 467 468
f 469 470 471
f 472 473 474
f 475 476 477
f 478 479 480
f 481 482 483
f 484 485 486
f 487 488 489
f 490 491 492
f 493 494 495
f 496 497 498
f 499 500 501
f 502 503 504
f 505 506 507
f 508 509 510
f 511 512 513
f 514 515 516
f 517 518 519
f 520 521 522
f 523 524 525
f 526 527 528
f 529 530 531
f 532 533 534
f 535 536 537
f 538 539 540
f 541 542 543
f 544 545 546
f 547 548 549
f 550 551 552
f 553 554 555
f 556 557 558
f 559 560 561
f 562 563 564
f 565 566 567
f 568 569 570
f 571 572 573
f 574 575 576
f 577 578 579
f 580 581 582
f 583 584 585
f 586 587 588
f 589 590 591
f 592 593 594
f 595 596 597
f 598 599 600
f 601 602 603
f 604 605 606
f 607 608 609
f 610 611 612
f 613 614 615
f 616 617 618
f 619 620 621
f 622 623 624
f 625 626 627
f 628 629 630
f 631 632 633
f 634 635 636
f 637 638 639
f 640 641 642
f 643 644 645
f 646 647 648
f 649 650 651
f 652 653 654
f 655 656 657
f 658 659 660
f 661 662 663
f 664 665 666
f 667 668 669
f 670 671 672
f 673 674 675
f 676 677 678
f 679 680 681
f 682 683 684
f 685 686 687
f 688 689 690
f 691 692 693
f 694 695 696
