mtllib left_outer_knuckle_collisions_robotiq_arg2f_140_outer_knuckle_node_STL_BINARY__mesh.mtl
v 0.004300002474337817 0.03120258636772634 0.023872485384345048
v 0.004300002474337817 0.029852678999304785 0.025176970288157456
v 0.011800002306699756 0.02419481985270978 0.014488724060356612
v 0.004800003487616778 0.018713843077421195 0.030977370217442502
v 0.004300002474337817 0.020016485825181018 0.03172655403614043
v 0.004300002474337817 0.018201708793640144 0.03200179338455199
v -0.004700000863522292 0.025551224127411853 0.009013938717544075
v -0.004700000863522292 -0.01374616194516421 -0.020548593252897256
v -0.011700000613927843 0.02335571125149728 0.01113526243716478
v -0.012200001627206806 0.0230995323508978 0.011564652435481545
v -0.011700000613927843 0.02335571125149728 0.01113526243716478
v -0.004700000863522292 -0.01374616194516421 -0.020548593252897256
v 0.004300002474337817 0.013430319726467138 0.029615556821227063
v 0.004300002474337817 -0.005288871936500075 0.005317690316587685
v 0.008049998432397844 -0.002525326563045384 0.0027722257655113927
v 0.004800003487616778 0.015232943929731853 0.030011504888534535
v 0.004300002474337817 0.014746961183846004 0.030894478783011426
v 0.004300002474337817 0.013430319726467138 0.029615556821227063
v 0.004300002474337817 0.01638863794505597 0.03171550109982489
v 0.004300002474337817 0.014746961183846004 0.030894478783011426
v 0.004800003487616778 0.015232943929731853 0.030011504888534535
v 0.011800002306699756 0.0230995323508978 0.011564652435481545
v 0.004300002474337817 -0.015225363895297057 -0.021058158949017518
v 0.004300002474337817 -0.01374616194516421 -0.020548593252897256
v 0.004300002474337817 -0.01678292080760003 -0.02091084793210029
v 0.011800002306699756 0.020888159051537524 0.011391225270926949
v 0.008049998432397844 -0.0011381544172763829 -0.003573108464479445
v -0.012200001627206806 0.02419481985270978 0.014488724060356612
v -0.004700000863522292 0.029852678999304785 0.025176970288157456
v -0.004700000863522292 0.03120258636772634 0.023872485384345048
v -0.012200001627206806 0.021737955510616313 0.016210298985242837
v -0.004700000863522292 0.029852678999304785 0.025176970288157456
v -0.012200001627206806 0.02419481985270978 0.014488724060356612
v -0.004700000863522292 0.021663133054971705 0.030915549024939527
v -0.004700000863522292 0.029852678999304785 0.025176970288157456
v -0.012200001627206806 0.021737955510616313 0.016210298985242837
v 0.011800002306699756 0.02419481985270978 0.014488724060356612
v 0.004300002474337817 0.032083321362733855 0.022214701399207108
v 0.004300002474337817 0.03120258636772634 0.023872485384345048
v 0.004300002474337817 0.03240865841507913 0.020365893840789788
v 0.004300002474337817 0.032083321362733855 0.022214701399207108
v 0.011800002306699756 0.02419481985270978 0.014488724060356612
v -0.004700000863522292 0.03120258636772634 0.023872485384345048
v -0.004700000863522292 0.032083321362733855 0.022214701399207108
v -0.012200001627206806 0.02419481985270978 0.014488724060356612
v 0.008049998432397844 -0.002525326563045384 0.0027722257655113927
v 0.004300002474337817 -0.016468118876218803 -0.009313625283539292
v 0.004300002474337817 -0.018006326630711562 -0.011435749940574166
v 0.004300002474337817 -0.005288871936500075 0.005317690316587685
v 0.004300002474337817 -0.016468118876218803 -0.009313625283539292
v 0.008049998432397844 -0.002525326563045384 0.0027722257655113927
v 0.004300002474337817 0.01638863794505597 0.03171550109982489
v 0.004800003487616778 0.015232943929731853 0.030011504888534535
v 0.004800003487616778 0.01688311807811261 0.030819784849882115
v 0.011800002306699756 0.020704403519630443 0.015949549153447144
v 0.004800003487616778 0.01688311807811261 0.030819784849882115
v 0.004800003487616778 0.015232943929731853 0.030011504888534535
v 0.004300002474337817 0.01638863794505597 0.03171550109982489
v 0.004800003487616778 0.01688311807811261 0.030819784849882115
v 0.004300002474337817 0.018201708793640144 0.03200179338455199
v 0.004800003487616778 0.018713843077421195 0.030977370217442502
v 0.004300002474337817 0.018201708793640144 0.03200179338455199
v 0.004800003487616778 0.01688311807811261 0.030819784849882115
v 0.004300002474337817 0.020016485825181018 0.03172655403614043
v 0.011800002306699756 0.021737955510616313 0.016210298985242837
v 0.004300002474337817 0.021663133054971705 0.030915549024939527
v 0.004300002474337817 0.020016485825181018 0.03172655403614043
v 0.004800003487616778 0.018713843077421195 0.030977370217442502
v 0.011800002306699756 0.021737955510616313 0.016210298985242837
v 0.011800002306699756 0.021737955510616313 0.016210298985242837
v 0.004300002474337817 0.029852678999304785 0.025176970288157456
v 0.004300002474337817 0.021663133054971705 0.030915549024939527
v 0.004300002474337817 0.029852678999304785 0.025176970288157456
v 0.011800002306699756 0.021737955510616313 0.016210298985242837
v 0.011800002306699756 0.02419481985270978 0.014488724060356612
v 0.004800003487616778 0.01688311807811261 0.030819784849882115
v 0.011800002306699756 0.021737955510616313 0.016210298985242837
v 0.004800003487616778 0.018713843077421195 0.030977370217442502
v 0.011800002306699756 0.020704403519630443 0.015949549153447144
v 0.011800002306699756 0.021737955510616313 0.016210298985242837
v 0.004800003487616778 0.01688311807811261 0.030819784849882115
v -0.004700000863522292 0.014746961183846004 0.030894478783011426
v -0.012200001627206806 0.020704403519630443 0.015949549153447144
v -0.012200001627206806 0.019827229902148257 0.01522294152528047
v 0.011800002306699756 0.0230995323508978 0.011564652435481545
v 0.004300002474337817 -0.01374616194516421 -0.020548593252897256
v 0.011299993842840196 0.02335571125149728 0.01113526243716478
v 0.004300002474337817 0.025551224127411853 0.009013938717544075
v 0.011299993842840196 0.02335571125149728 0.01113526243716478
v 0.004300002474337817 -0.01374616194516421 -0.020548593252897256
v 0.004300002474337817 0.025551224127411853 0.009013938717544075
v 0.011299993842840196 0.02433912828564645 0.012084545567631718
v 0.011299993842840196 0.02335571125149728 0.01113526243716478
v 0.011800002306699756 0.0230995323508978 0.011564652435481545
v 0.011299993842840196 0.02335571125149728 0.01113526243716478
v 0.011800002306699756 0.02391905151307584 0.01235572155565023
v 0.011800002306699756 0.02391905151307584 0.01235572155565023
v 0.011299993842840196 0.02335571125149728 0.01113526243716478
v 0.011299993842840196 0.02433912828564645 0.012084545567631718
v -0.004700000863522292 0.018201708793640144 0.03200179338455199
v -0.005200001876801253 0.01779117994010449 0.030983397737145413
v -0.004700000863522292 0.01638863794505597 0.03171550109982489
v -0.012200001627206806 0.021737955510616313 0.016210298985242837
v -0.005200001876801253 0.01779117994010449 0.030983397737145413
v -0.004700000863522292 0.018201708793640144 0.03200179338455199
v -0.012200001627206806 0.020704403519630443 0.015949549153447144
v -0.005200001876801253 0.01779117994010449 0.030983397737145413
v -0.012200001627206806 0.021737955510616313 0.016210298985242837
v -0.012200001627206806 0.021737955510616313 0.016210298985242837
v -0.004700000863522292 0.020016485825181018 0.03172655403614043
v -0.004700000863522292 0.021663133054971705 0.030915549024939527
v 0.004300002474337817 -0.018140356987714774 -0.020132994279265397
v 0.008049998432397844 -0.0024930688086897148 -0.0028012676630169145
v 0.004300002474337817 -0.01900902763009072 -0.01906271278858184
v 0.004300002474337817 -0.01678292080760003 -0.02091084793210029
v 0.008049998432397844 -0.0024930688086897148 -0.0028012676630169145
v 0.004300002474337817 -0.018140356987714774 -0.020132994279265397
v 0.008049998432397844 -0.0011381544172763829 -0.003573108464479445
v 0.008049998432397844 -0.0024930688086897148 -0.0028012676630169145
v 0.004300002474337817 -0.01678292080760003 -0.02091084793210029
v 0.011800002306699756 0.019955340772867213 0.012044868431985375
v 0.008049998432397844 -0.0024930688086897148 -0.0028012676630169145
v 0.011800002306699756 0.020888159051537524 0.011391225270926949
v 0.011800002306699756 0.020888159051537524 0.011391225270926949
v 0.008049998432397844 -0.0024930688086897148 -0.0028012676630169145
v 0.008049998432397844 -0.0011381544172763829 -0.003573108464479445
v 0.004300002474337817 -0.015225363895297057 -0.021058158949017518
v 0.011800002306699756 0.0230995323508978 0.011564652435481545
v 0.011800002306699756 0.022014137357473384 0.011219254694879052
v 0.004300002474337817 -0.015225363895297057 -0.021058158949017518
v 0.011800002306699756 0.022014137357473384 0.011219254694879052
v 0.004300002474337817 -0.01678292080760003 -0.02091084793210029
v 0.011800002306699756 0.022014137357473384 0.011219254694879052
v 0.011800002306699756 0.020888159051537524 0.011391225270926949
v 0.004300002474337817 -0.01678292080760003 -0.02091084793210029
v -0.012200001627206806 0.0230995323508978 0.011564652435481545
v -0.004700000863522292 -0.01374616194516421 -0.020548593252897256
v -0.004700000863522292 -0.015225363895297057 -0.021058158949017518
v -0.008449997752904894 -0.0018561749020591387 -0.0032583912834525095
v -0.012200001627206806 0.020888159051537524 0.011391225270926949
v -0.004700000863522292 -0.01678292080760003 -0.02091084793210029
v -0.012200001627206806 0.019955340772867213 0.012044868431985375
v -0.012200001627206806 0.020888159051537524 0.011391225270926949
v -0.008449997752904894 -0.0018561749020591387 -0.0032583912834525095
v -0.004700000863522292 0.032083321362733855 0.022214701399207108
v -0.004700000863522292 0.03240865841507913 0.020365893840789788
v -0.012200001627206806 0.02419481985270978 0.014488724060356612
v -0.011700000613927843 0.02335571125149728 0.01113526243716478
v -0.012200001627206806 0.0230995323508978 0.011564652435481545
v -0.012200001627206806 0.02391905151307584 0.01235572155565023
v -0.008449997752904894 -0.0030465177260339273 0.0021866010501980773
v -0.008200000971555712 -0.003249619156122209 0.002332374453544616
v -0.004700000863522292 0.013430319726467138 0.029615556821227063
v -0.008449997752904894 -0.0030465177260339273 0.0021866010501980773
v -0.004700000863522292 -0.019062733277678497 -0.013834397308528418
v -0.004700000863522292 -0.018006326630711562 -0.011435749940574166
v -0.008200000971555712 -0.003249619156122209 0.002332374453544616
v -0.004700000863522292 -0.005288871936500075 0.005317690316587685
v -0.004700000863522292 0.013430319726467138 0.029615556821227063
v -0.012200001627206806 0.019955340772867213 0.012044868431985375
v -0.008449997752904894 -0.0018561749020591387 -0.0032583912834525095
v -0.008449997752904894 -0.003021009033545853 -0.0022217142395675174
v -0.008449997752904894 -0.003021009033545853 -0.0022217142395675174
v -0.012200001627206806 0.01940932124853135 0.01304449792951345
v -0.012200001627206806 0.019955340772867213 0.012044868431985375
v -0.008449997752904894 -0.003021009033545853 -0.0022217142395675174
v -0.008449997752904894 -0.0036634791176766174 -0.0008008828153833745
v -0.012200001627206806 0.01940932124853135 0.01304449792951345
v 0.004300002474337817 0.013430319726467138 0.029615556821227063
v 0.008049998432397844 -0.002525326563045384 0.0027722257655113927
v 0.011800002306699756 0.019827229902148257 0.01522294152528047
v 0.011800002306699756 0.019827229902148257 0.01522294152528047
v 0.004800003487616778 0.015232943929731853 0.030011504888534535
v 0.004300002474337817 0.013430319726467138 0.029615556821227063
v 0.011800002306699756 0.019827229902148257 0.01522294152528047
v 0.011800002306699756 0.020704403519630443 0.015949549153447144
v 0.004800003487616778 0.015232943929731853 0.030011504888534535
v -0.004700000863522292 0.014746961183846004 0.030894478783011426
v -0.004700000863522292 0.01638863794505597 0.03171550109982489
v -0.005200001876801253 0.01602057926356793 0.03049210086464881
v -0.004700000863522292 0.014746961183846004 0.030894478783011426
v -0.005200001876801253 0.01602057926356793 0.03049210086464881
v -0.012200001627206806 0.020704403519630443 0.015949549153447144
v -0.005200001876801253 0.01779117994010449 0.030983397737145413
v -0.005200001876801253 0.01602057926356793 0.03049210086464881
v -0.004700000863522292 0.01638863794505597 0.03171550109982489
v -0.005200001876801253 0.01602057926356793 0.03049210086464881
v -0.005200001876801253 0.01779117994010449 0.030983397737145413
v -0.012200001627206806 0.020704403519630443 0.015949549153447144
v -0.004700000863522292 0.014746961183846004 0.030894478783011426
v -0.005200001876801253 0.014547027647495277 0.029394365847110738
v -0.004700000863522292 0.013430319726467138 0.029615556821227063
v -0.012200001627206806 0.019827229902148257 0.01522294152528047
v -0.005200001876801253 0.014547027647495277 0.029394365847110738
v -0.004700000863522292 0.014746961183846004 0.030894478783011426
v -0.008449997752904894 -0.0030465177260339273 0.0021866010501980773
v -0.004700000863522292 0.013430319726467138 0.029615556821227063
v -0.005200001876801253 0.014547027647495277 0.029394365847110738
v -0.008449997752904894 -0.0030465177260339273 0.0021866010501980773
v -0.005200001876801253 0.014547027647495277 0.029394365847110738
v -0.012200001627206806 0.019827229902148257 0.01522294152528047
v 0.011800002306699756 0.02391905151307584 0.01235572155565023
v 0.011299993842840196 0.02433912828564645 0.012084545567631718
v 0.011299993842840196 0.024799343198537837 0.01337157748639583
v 0.011299993842840196 0.02433912828564645 0.012084545567631718
v 0.004300002474337817 0.02673240378499032 0.010268454439938065
v 0.004300002474337817 0.03132326900959016 0.016820093616843217
v 0.004300002474337817 0.025551224127411853 0.009013938717544075
v 0.004300002474337817 0.02673240378499032 0.010268454439938065
v 0.011299993842840196 0.02433912828564645 0.012084545567631718
v -0.004700000863522292 0.020016485825181018 0.03172655403614043
v -0.005200001876801253 0.019619686529040347 0.030801905319094647
v -0.004700000863522292 0.018201708793640144 0.03200179338455199
v -0.004700000863522292 0.018201708793640144 0.03200179338455199
v -0.005200001876801253 0.019619686529040347 0.030801905319094647
v -0.012200001627206806 0.021737955510616313 0.016210298985242837
v -0.005200001876801253 0.019619686529040347 0.030801905319094647
v -0.004700000863522292 0.020016485825181018 0.03172655403614043
v -0.012200001627206806 0.021737955510616313 0.016210298985242837
v 0.004300002474337817 -0.01950818672776223 -0.01777782663702964
v 0.004300002474337817 -0.01900902763009072 -0.01906271278858184
v 0.008049998432397844 -0.003416910767555238 -0.0015450619393959637
v 0.008049998432397844 -0.0024930688086897148 -0.0028012676630169145
v 0.008049998432397844 -0.003416910767555238 -0.0015450619393959637
v 0.004300002474337817 -0.01900902763009072 -0.01906271278858184
v 0.008049998432397844 -0.0024930688086897148 -0.0028012676630169145
v 0.011800002306699756 0.019955340772867213 0.012044868431985375
v 0.008049998432397844 -0.003416910767555238 -0.0015450619393959637
v -0.004700000863522292 -0.01678292080760003 -0.02091084793210029
v -0.012200001627206806 0.022014137357473384 0.011219254694879052
v -0.004700000863522292 -0.015225363895297057 -0.021058158949017518
v -0.012200001627206806 0.020888159051537524 0.011391225270926949
v -0.012200001627206806 0.022014137357473384 0.011219254694879052
v -0.004700000863522292 -0.01678292080760003 -0.02091084793210029
v -0.004700000863522292 -0.015225363895297057 -0.021058158949017518
v -0.012200001627206806 0.022014137357473384 0.011219254694879052
v -0.012200001627206806 0.0230995323508978 0.011564652435481545
v -0.004700000863522292 0.03214675933122636 0.018507039174437516
v -0.011700000613927843 0.024799343198537837 0.01337157748639583
v -0.004700000863522292 0.03240865841507913 0.020365893840789788
v -0.012200001627206806 0.02391905151307584 0.01235572155565023
v -0.011700000613927843 0.02433912828564645 0.012084545567631718
v -0.011700000613927843 0.02335571125149728 0.01113526243716478
v -0.011700000613927843 0.02335571125149728 0.01113526243716478
v -0.011700000613927843 0.02433912828564645 0.012084545567631718
v -0.004700000863522292 0.025551224127411853 0.009013938717544075
v -0.011700000613927843 0.024799343198537837 0.01337157748639583
v -0.011700000613927843 0.02433912828564645 0.012084545567631718
v -0.012200001627206806 0.02391905151307584 0.01235572155565023
v -0.011700000613927843 0.02433912828564645 0.012084545567631718
v -0.011700000613927843 0.024799343198537837 0.01337157748639583
v -0.004700000863522292 0.03214675933122636 0.018507039174437516
v -0.004700000863522292 0.03132326900959016 0.016820093616843217
v -0.011700000613927843 0.02433912828564645 0.012084545567631718
v -0.004700000863522292 0.03214675933122636 0.018507039174437516
v -0.008449997752904894 -0.0036725040990859287 0.0007584288832731543
v -0.008449997752904894 -0.0036634791176766174 -0.0008008828153833745
v -0.004700000863522292 -0.019589871168136607 -0.016401812434196465
v -0.004700000863522292 -0.019062733277678497 -0.013834397308528418
v -0.008449997752904894 -0.0036725040990859287 0.0007584288832731543
v -0.004700000863522292 -0.019589871168136607 -0.016401812434196465
v -0.004700000863522292 -0.019062733277678497 -0.013834397308528418
v -0.008449997752904894 -0.0030465177260339273 0.0021866010501980773
v -0.008449997752904894 -0.0036725040990859287 0.0007584288832731543
v -0.004700000863522292 -0.005288871936500075 0.005317690316587685
v -0.008200000971555712 -0.003249619156122209 0.002332374453544616
v -0.004700000863522292 -0.016468118876218803 -0.009313625283539292
v -0.004700000863522292 -0.018006326630711562 -0.011435749940574166
v -0.004700000863522292 -0.016468118876218803 -0.009313625283539292
v -0.008449997752904894 -0.0030465177260339273 0.0021866010501980773
v -0.008200000971555712 -0.003249619156122209 0.002332374453544616
v -0.008449997752904894 -0.0030465177260339273 0.0021866010501980773
v -0.004700000863522292 -0.016468118876218803 -0.009313625283539292
v -0.008449997752904894 -0.003021009033545853 -0.0022217142395675174
v -0.004700000863522292 -0.01900902763009072 -0.01906271278858184
v -0.008449997752904894 -0.0036634791176766174 -0.0008008828153833745
v 0.011299993842840196 0.024799343198537837 0.01337157748639583
v 0.011800002306699756 0.024302562698721896 0.013428248465061183
v 0.011800002306699756 0.02391905151307584 0.01235572155565023
v 0.004300002474337817 0.03240865841507913 0.020365893840789788
v 0.011800002306699756 0.02419481985270978 0.014488724060356612
v 0.011800002306699756 0.024302562698721896 0.013428248465061183
v 0.004300002474337817 0.03240865841507913 0.020365893840789788
v 0.011800002306699756 0.024302562698721896 0.013428248465061183
v 0.011299993842840196 0.024799343198537837 0.01337157748639583
v 0.011299993842840196 0.024799343198537837 0.01337157748639583
v 0.004300002474337817 0.03214675933122636 0.018507039174437516
v 0.004300002474337817 0.03240865841507913 0.020365893840789788
v 0.011299993842840196 0.02433912828564645 0.012084545567631718
v 0.004300002474337817 0.03132326900959016 0.016820093616843217
v 0.004300002474337817 0.03214675933122636 0.018507039174437516
v 0.011299993842840196 0.024799343198537837 0.01337157748639583
v 0.011299993842840196 0.02433912828564645 0.012084545567631718
v 0.004300002474337817 0.03214675933122636 0.018507039174437516
v -0.011700000613927843 0.02433912828564645 0.012084545567631718
v -0.004700000863522292 0.02673240378499032 0.010268454439938065
v -0.004700000863522292 0.025551224127411853 0.009013938717544075
v -0.004700000863522292 0.02673240378499032 0.010268454439938065
v -0.011700000613927843 0.02433912828564645 0.012084545567631718
v -0.004700000863522292 0.03132326900959016 0.016820093616843217
v 0.004300002474337817 -0.01950818672776223 -0.01777782663702964
v 0.008049998432397844 -0.003749937284737827 -2.170114385080523e-05
v 0.004300002474337817 -0.019589871168136607 -0.016401812434196465
v 0.008049998432397844 -0.003416910767555238 -0.0015450619393959637
v 0.008049998432397844 -0.003749937284737827 -2.170114385080523e-05
v 0.004300002474337817 -0.01950818672776223 -0.01777782663702964
v 0.004300002474337817 -0.019062733277678497 -0.013834397308528418
v 0.004300002474337817 -0.019589871168136607 -0.016401812434196465
v 0.008049998432397844 -0.003749937284737827 -2.170114385080523e-05
v 0.008049998432397844 -0.003416910767555238 -0.0015450619393959637
v 0.011800002306699756 0.019955340772867213 0.012044868431985375
v 0.011800002306699756 0.01940932124853135 0.01304449792951345
v 0.008049998432397844 -0.003749937284737827 -2.170114385080523e-05
v 0.011800002306699756 0.01940932124853135 0.01304449792951345
v 0.011800002306699756 0.01936344616115094 0.014182606711983676
v 0.008049998432397844 -0.003749937284737827 -2.170114385080523e-05
v 0.008049998432397844 -0.003416910767555238 -0.0015450619393959637
v 0.011800002306699756 0.01940932124853135 0.01304449792951345
v -0.011700000613927843 0.024799343198537837 0.01337157748639583
v -0.012200001627206806 0.02391905151307584 0.01235572155565023
v -0.012200001627206806 0.024302562698721896 0.013428248465061183
v -0.004700000863522292 0.03240865841507913 0.020365893840789788
v -0.012200001627206806 0.024302562698721896 0.013428248465061183
v -0.012200001627206806 0.02419481985270978 0.014488724060356612
v -0.011700000613927843 0.024799343198537837 0.01337157748639583
v -0.012200001627206806 0.024302562698721896 0.013428248465061183
v -0.004700000863522292 0.03240865841507913 0.020365893840789788
v -0.012200001627206806 0.019827229902148257 0.01522294152528047
v -0.012200001627206806 0.01936344616115094 0.014182606711983676
v -0.008449997752904894 -0.0030465177260339273 0.0021866010501980773
v -0.008449997752904894 -0.0036725040990859287 0.0007584288832731543
v -0.008449997752904894 -0.0030465177260339273 0.0021866010501980773
v -0.012200001627206806 0.01936344616115094 0.014182606711983676
v -0.012200001627206806 0.01940932124853135 0.01304449792951345
v -0.008449997752904894 -0.0036634791176766174 -0.0008008828153833745
v -0.012200001627206806 0.01936344616115094 0.014182606711983676
v -0.008449997752904894 -0.0036725040990859287 0.0007584288832731543
v -0.012200001627206806 0.01936344616115094 0.014182606711983676
v -0.008449997752904894 -0.0036634791176766174 -0.0008008828153833745
v -0.008449997752904894 -0.0036634791176766174 -0.0008008828153833745
v -0.004700000863522292 -0.01950818672776223 -0.01777782663702964
v -0.004700000863522292 -0.019589871168136607 -0.016401812434196465
v -0.004700000863522292 -0.01900902763009072 -0.01906271278858184
v -0.004700000863522292 -0.01950818672776223 -0.01777782663702964
v -0.008449997752904894 -0.0036634791176766174 -0.0008008828153833745
v -0.008449997752904894 -0.003021009033545853 -0.0022217142395675174
v -0.008449997752904894 -0.0018561749020591387 -0.0032583912834525095
v -0.004700000863522292 -0.018140356987714774 -0.020132994279265397
v -0.004700000863522292 -0.01900902763009072 -0.01906271278858184
v -0.008449997752904894 -0.003021009033545853 -0.0022217142395675174
v -0.004700000863522292 -0.018140356987714774 -0.020132994279265397
v -0.004700000863522292 -0.01678292080760003 -0.02091084793210029
v -0.004700000863522292 -0.018140356987714774 -0.020132994279265397
v -0.008449997752904894 -0.0018561749020591387 -0.0032583912834525095
v 0.008049998432397844 -0.003749937284737827 -2.170114385080523e-05
v 0.008049998432397844 -0.0034345635212957876 0.0015054118121042843
v 0.004300002474337817 -0.019062733277678497 -0.013834397308528418
v 0.004300002474337817 -0.019062733277678497 -0.013834397308528418
v 0.008049998432397844 -0.0034345635212957876 0.0015054118121042843
v 0.004300002474337817 -0.018006326630711562 -0.011435749940574166
v 0.004300002474337817 -0.018006326630711562 -0.011435749940574166
v 0.008049998432397844 -0.0034345635212957876 0.0015054118121042843
v 0.008049998432397844 -0.002525326563045384 0.0027722257655113927
v 0.011800002306699756 0.01936344616115094 0.014182606711983676
v 0.008049998432397844 -0.0034345635212957876 0.0015054118121042843
v 0.008049998432397844 -0.003749937284737827 -2.170114385080523e-05
v 0.011800002306699756 0.019827229902148257 0.01522294152528047
v 0.008049998432397844 -0.0034345635212957876 0.0015054118121042843
v 0.011800002306699756 0.01936344616115094 0.014182606711983676
v 0.011800002306699756 0.019827229902148257 0.01522294152528047
v 0.008049998432397844 -0.002525326563045384 0.0027722257655113927
v 0.008049998432397844 -0.0034345635212957876 0.0015054118121042843
v 0.004300002474337817 0.01638863794505597 0.03171550109982489
v -0.004700000863522292 0.018201708793640144 0.03200179338455199
v -0.004700000863522292 0.01638863794505597 0.03171550109982489
v 0.004300002474337817 0.018201708793640144 0.03200179338455199
v -0.004700000863522292 0.018201708793640144 0.03200179338455199
v 0.004300002474337817 0.01638863794505597 0.03171550109982489
v 0.004300002474337817 0.03120258636772634 0.023872485384345048
v -0.004700000863522292 0.029852678999304785 0.025176970288157456
v 0.004300002474337817 0.029852678999304785 0.025176970288157456
v 0.004300002474337817 0.03120258636772634 0.023872485384345048
v -0.004700000863522292 0.03120258636772634 0.023872485384345048
v -0.004700000863522292 0.029852678999304785 0.025176970288157456
v 0.004300002474337817 0.029852678999304785 0.025176970288157456
v -0.004700000863522292 0.029852678999304785 0.025176970288157456
v 0.004300002474337817 0.021663133054971705 0.030915549024939527
v -0.004700000863522292 0.029852678999304785 0.025176970288157456
v -0.004700000863522292 0.021663133054971705 0.030915549024939527
v 0.004300002474337817 0.021663133054971705 0.030915549024939527
v 0.004300002474337817 0.03120258636772634 0.023872485384345048
v -0.004700000863522292 0.032083321362733855 0.022214701399207108
v -0.004700000863522292 0.03120258636772634 0.023872485384345048
v 0.004300002474337817 0.032083321362733855 0.022214701399207108
v -0.004700000863522292 0.032083321362733855 0.022214701399207108
v 0.004300002474337817 0.03120258636772634 0.023872485384345048
v 0.004300002474337817 0.014746961183846004 0.030894478783011426
v -0.004700000863522292 0.014746961183846004 0.030894478783011426
v 0.004300002474337817 0.013430319726467138 0.029615556821227063
v 0.004300002474337817 0.013430319726467138 0.029615556821227063
v -0.004700000863522292 0.014746961183846004 0.030894478783011426
v -0.004700000863522292 0.013430319726467138 0.029615556821227063
v 0.004300002474337817 0.01638863794505597 0.03171550109982489
v -0.004700000863522292 0.01638863794505597 0.03171550109982489
v -0.004700000863522292 0.014746961183846004 0.030894478783011426
v -0.004700000863522292 0.014746961183846004 0.030894478783011426
v 0.004300002474337817 0.014746961183846004 0.030894478783011426
v 0.004300002474337817 0.01638863794505597 0.03171550109982489
v 0.004300002474337817 0.025551224127411853 0.009013938717544075
v 0.004300002474337817 -0.01374616194516421 -0.020548593252897256
v -0.004700000863522292 -0.01374616194516421 -0.020548593252897256
v -0.004700000863522292 0.025551224127411853 0.009013938717544075
v 0.004300002474337817 0.025551224127411853 0.009013938717544075
v -0.004700000863522292 -0.01374616194516421 -0.020548593252897256
v -0.004700000863522292 0.021663133054971705 0.030915549024939527
v -0.004700000863522292 0.020016485825181018 0.03172655403614043
v 0.004300002474337817 0.021663133054971705 0.030915549024939527
v 0.004300002474337817 0.021663133054971705 0.030915549024939527
v -0.004700000863522292 0.020016485825181018 0.03172655403614043
v 0.004300002474337817 0.020016485825181018 0.03172655403614043
v -0.004700000863522292 0.018201708793640144 0.03200179338455199
v 0.004300002474337817 0.018201708793640144 0.03200179338455199
v -0.004700000863522292 0.020016485825181018 0.03172655403614043
v 0.004300002474337817 0.020016485825181018 0.03172655403614043
v -0.004700000863522292 0.020016485825181018 0.03172655403614043
v 0.004300002474337817 0.018201708793640144 0.03200179338455199
v 0.004300002474337817 -0.01374616194516421 -0.020548593252897256
v -0.004700000863522292 -0.015225363895297057 -0.021058158949017518
v -0.004700000863522292 -0.01374616194516421 -0.020548593252897256
v 0.004300002474337817 -0.015225363895297057 -0.021058158949017518
v -0.004700000863522292 -0.015225363895297057 -0.021058158949017518
v 0.004300002474337817 -0.01374616194516421 -0.020548593252897256
v -0.004700000863522292 -0.015225363895297057 -0.021058158949017518
v 0.004300002474337817 -0.015225363895297057 -0.021058158949017518
v 0.004300002474337817 -0.01678292080760003 -0.02091084793210029
v -0.004700000863522292 -0.01678292080760003 -0.02091084793210029
v -0.004700000863522292 -0.015225363895297057 -0.021058158949017518
v 0.004300002474337817 -0.01678292080760003 -0.02091084793210029
v 0.004300002474337817 0.032083321362733855 0.022214701399207108
v -0.004700000863522292 0.03240865841507913 0.020365893840789788
v -0.004700000863522292 0.032083321362733855 0.022214701399207108
v -0.004700000863522292 0.03240865841507913 0.020365893840789788
v 0.004300002474337817 0.032083321362733855 0.022214701399207108
v 0.004300002474337817 0.03240865841507913 0.020365893840789788
v 0.004300002474337817 0.013430319726467138 0.029615556821227063
v -0.004700000863522292 0.013430319726467138 0.029615556821227063
v -0.004700000863522292 -0.005288871936500075 0.005317690316587685
v 0.004300002474337817 0.013430319726467138 0.029615556821227063
v -0.004700000863522292 -0.005288871936500075 0.005317690316587685
v 0.004300002474337817 -0.005288871936500075 0.005317690316587685
v 0.004300002474337817 -0.019062733277678497 -0.013834397308528418
v -0.004700000863522292 -0.019062733277678497 -0.013834397308528418
v -0.004700000863522292 -0.019589871168136607 -0.016401812434196465
v -0.004700000863522292 -0.019589871168136607 -0.016401812434196465
v 0.004300002474337817 -0.019589871168136607 -0.016401812434196465
v 0.004300002474337817 -0.019062733277678497 -0.013834397308528418
v -0.004700000863522292 -0.018006326630711562 -0.011435749940574166
v 0.004300002474337817 -0.019062733277678497 -0.013834397308528418
v 0.004300002474337817 -0.018006326630711562 -0.011435749940574166
v -0.004700000863522292 -0.019062733277678497 -0.013834397308528418
v 0.004300002474337817 -0.019062733277678497 -0.013834397308528418
v -0.004700000863522292 -0.018006326630711562 -0.011435749940574166
v -0.004700000863522292 -0.018006326630711562 -0.011435749940574166
v 0.004300002474337817 -0.018006326630711562 -0.011435749940574166
v -0.004700000863522292 -0.016468118876218803 -0.009313625283539292
v 0.004300002474337817 -0.016468118876218803 -0.009313625283539292
v -0.004700000863522292 -0.016468118876218803 -0.009313625283539292
v 0.004300002474337817 -0.018006326630711562 -0.011435749940574166
v -0.004700000863522292 -0.005288871936500075 0.005317690316587685
v -0.004700000863522292 -0.016468118876218803 -0.009313625283539292
v 0.004300002474337817 -0.005288871936500075 0.005317690316587685
v 0.004300002474337817 -0.005288871936500075 0.005317690316587685
v -0.004700000863522292 -0.016468118876218803 -0.009313625283539292
v 0.004300002474337817 -0.016468118876218803 -0.009313625283539292
v -0.004700000863522292 0.03132326900959016 0.016820093616843217
v -0.004700000863522292 0.03214675933122636 0.018507039174437516
v 0.004300002474337817 0.03214675933122636 0.018507039174437516
v -0.004700000863522292 0.03132326900959016 0.016820093616843217
v 0.004300002474337817 0.03214675933122636 0.018507039174437516
v 0.004300002474337817 0.03132326900959016 0.016820093616843217
v 0.004300002474337817 0.03240865841507913 0.020365893840789788
v 0.004300002474337817 0.03214675933122636 0.018507039174437516
v -0.004700000863522292 0.03240865841507913 0.020365893840789788
v -0.004700000863522292 0.03240865841507913 0.020365893840789788
v 0.004300002474337817 0.03214675933122636 0.018507039174437516
v -0.004700000863522292 0.03214675933122636 0.018507039174437516
v 0.004300002474337817 0.025551224127411853 0.009013938717544075
v -0.004700000863522292 0.025551224127411853 0.009013938717544075
v -0.004700000863522292 0.02673240378499032 0.010268454439938065
v 0.004300002474337817 0.02673240378499032 0.010268454439938065
v 0.004300002474337817 0.025551224127411853 0.009013938717544075
v -0.004700000863522292 0.02673240378499032 0.010268454439938065
v 0.004300002474337817 0.03132326900959016 0.016820093616843217
v -0.004700000863522292 0.02673240378499032 0.010268454439938065
v -0.004700000863522292 0.03132326900959016 0.016820093616843217
v 0.004300002474337817 0.02673240378499032 0.010268454439938065
v -0.004700000863522292 0.02673240378499032 0.010268454439938065
v 0.004300002474337817 0.03132326900959016 0.016820093616843217
v 0.011800002306699756 0.02391905151307584 0.01235572155565023
v 0.011800002306699756 0.01940932124853135 0.01304449792951345
v 0.011800002306699756 0.0230995323508978 0.011564652435481545
v 0.011800002306699756 0.01940932124853135 0.01304449792951345
v 0.011800002306699756 0.021737955510616313 0.016210298985242837
v 0.011800002306699756 0.020704403519630443 0.015949549153447144
v 0.011800002306699756 0.022014137357473384 0.011219254694879052
v 0.011800002306699756 0.01940932124853135 0.01304449792951345
v 0.011800002306699756 0.020888159051537524 0.011391225270926949
v 0.011800002306699756 0.020888159051537524 0.011391225270926949
v 0.011800002306699756 0.01940932124853135 0.01304449792951345
v 0.011800002306699756 0.019955340772867213 0.012044868431985375
v 0.011800002306699756 0.024302562698721896 0.013428248465061183
v 0.011800002306699756 0.01940932124853135 0.01304449792951345
v 0.011800002306699756 0.02391905151307584 0.01235572155565023
v 0.011800002306699756 0.021737955510616313 0.016210298985242837
v 0.011800002306699756 0.01940932124853135 0.01304449792951345
v 0.011800002306699756 0.02419481985270978 0.014488724060356612
v 0.011800002306699756 0.019827229902148257 0.01522294152528047
v 0.011800002306699756 0.01936344616115094 0.014182606711983676
v 0.011800002306699756 0.01940932124853135 0.01304449792951345
v 0.011800002306699756 0.022014137357473384 0.011219254694879052
v 0.011800002306699756 0.0230995323508978 0.011564652435481545
v 0.011800002306699756 0.01940932124853135 0.01304449792951345
v 0.011800002306699756 0.019827229902148257 0.01522294152528047
v 0.011800002306699756 0.01940932124853135 0.01304449792951345
v 0.011800002306699756 0.020704403519630443 0.015949549153447144
v 0.011800002306699756 0.024302562698721896 0.013428248465061183
v 0.011800002306699756 0.02419481985270978 0.014488724060356612
v 0.011800002306699756 0.01940932124853135 0.01304449792951345
v -0.012200001627206806 0.020704403519630443 0.015949549153447144
v -0.012200001627206806 0.01936344616115094 0.014182606711983676
v -0.012200001627206806 0.019827229902148257 0.01522294152528047
v -0.012200001627206806 0.020888159051537524 0.011391225270926949
v -0.012200001627206806 0.019955340772867213 0.012044868431985375
v -0.012200001627206806 0.01936344616115094 0.014182606711983676
v -0.012200001627206806 0.02419481985270978 0.014488724060356612
v -0.012200001627206806 0.01936344616115094 0.014182606711983676
v -0.012200001627206806 0.021737955510616313 0.016210298985242837
v -0.012200001627206806 0.01936344616115094 0.014182606711983676
v -0.012200001627206806 0.020704403519630443 0.015949549153447144
v -0.012200001627206806 0.021737955510616313 0.016210298985242837
v -0.012200001627206806 0.022014137357473384 0.011219254694879052
v -0.012200001627206806 0.020888159051537524 0.011391225270926949
v -0.012200001627206806 0.01936344616115094 0.014182606711983676
v -0.012200001627206806 0.01940932124853135 0.01304449792951345
v -0.012200001627206806 0.01936344616115094 0.014182606711983676
v -0.012200001627206806 0.019955340772867213 0.012044868431985375
v -0.012200001627206806 0.02391905151307584 0.01235572155565023
v -0.012200001627206806 0.0230995323508978 0.011564652435481545
v -0.012200001627206806 0.01936344616115094 0.014182606711983676
v -0.012200001627206806 0.024302562698721896 0.013428248465061183
v -0.012200001627206806 0.02391905151307584 0.01235572155565023
v -0.012200001627206806 0.01936344616115094 0.014182606711983676
v -0.012200001627206806 0.022014137357473384 0.011219254694879052
v -0.012200001627206806 0.01936344616115094 0.014182606711983676
v -0.012200001627206806 0.0230995323508978 0.011564652435481545
v -0.012200001627206806 0.024302562698721896 0.013428248465061183
v -0.012200001627206806 0.01936344616115094 0.014182606711983676
v -0.012200001627206806 0.02419481985270978 0.014488724060356612
v -0.004700000863522292 -0.019589871168136607 -0.016401812434196465
v -0.004700000863522292 -0.01950818672776223 -0.01777782663702964
v 0.004300002474337817 -0.019589871168136607 -0.016401812434196465
v -0.004700000863522292 -0.01950818672776223 -0.01777782663702964
v 0.004300002474337817 -0.01950818672776223 -0.01777782663702964
v 0.004300002474337817 -0.019589871168136607 -0.016401812434196465
v 0.004300002474337817 -0.01950818672776223 -0.01777782663702964
v -0.004700000863522292 -0.01950818672776223 -0.01777782663702964
v 0.004300002474337817 -0.01900902763009072 -0.01906271278858184
v 0.004300002474337817 -0.01900902763009072 -0.01906271278858184
v -0.004700000863522292 -0.01950818672776223 -0.01777782663702964
v -0.004700000863522292 -0.01900902763009072 -0.01906271278858184
v 0.004300002474337817 -0.01678292080760003 -0.02091084793210029
v -0.004700000863522292 -0.018140356987714774 -0.020132994279265397
v -0.004700000863522292 -0.01678292080760003 -0.02091084793210029
v -0.004700000863522292 -0.018140356987714774 -0.020132994279265397
v 0.004300002474337817 -0.01678292080760003 -0.02091084793210029
v 0.004300002474337817 -0.018140356987714774 -0.020132994279265397
v -0.004700000863522292 -0.01900902763009072 -0.01906271278858184
v -0.004700000863522292 -0.018140356987714774 -0.020132994279265397
v 0.004300002474337817 -0.01900902763009072 -0.01906271278858184
v 0.004300002474337817 -0.01900902763009072 -0.01906271278858184
v -0.004700000863522292 -0.018140356987714774 -0.020132994279265397
v 0.004300002474337817 -0.018140356987714774 -0.020132994279265397
usemtl DefaultMaterial
f 1 2 3
f 4 5 6
f 7 8 9
f 10 11 12
f 13 14 15
f 16 17 18
f 19 20 21
f 22 23 24
f 25 26 27
f 28 29 30
f 31 32 33
f 34 35 36
f 37 38 39
f 40 41 42
f 43 44 45
f 46 47 48
f 49 50 51
f 52 53 54
f 55 56 57
f 58 59 60
f 61 62 63
f 64 65 66
f 67 68 69
f 70 71 72
f 73 74 75
f 76 77 78
f 79 80 81
f 82 83 84
f 85 86 87
f 88 89 90
f 91 92 93
f 94 95 96
f 97 98 99
f 100 101 102
f 103 104 105
f 106 107 108
f 109 110 111
f 112 113 114
f 115 116 117
f 118 119 120
f 121 122 123
f 124 125 126
f 127 128 129
f 130 131 132
f 133 134 135
f 136 137 138
f 139 140 141
f 142 143 144
f 145 146 147
f 148 149 150
f 151 152 153
f 154 155 156
f 157 158 159
f 160 161 162
f 163 164 165
f 166 167 168
f 169 170 171
f 172 173 174
f 175 176 177
f 178 179 180
f 181 182 183
f 184 185 186
f 187 188 189
f 190 191 192
f 193 194 195
f 196 197 198
f 199 200 201
f 202 203 204
f 205 206 207
f 208 209 210
f 211 212 213
f 214 215 216
f 217 218 219
f 220 221 222
f 223 224 225
f 226 227 228
f 229 230 231
f 232 233 234
f 235 236 237
f 238 239 240
f 241 242 243
f 244 245 246
f 247 248 249
f 250 251 252
f 253 254 255
f 256 257 258
f 259 260 261
f 262 263 264
f 265 266 267
f 268 269 270
f 271 272 273
f 274 275 276
f 277 278 279
f 280 281 282
f 283 284 285
f 286 287 288
f 289 290 291
f 292 293 294
f 295 296 297
f 298 299 300
f 301 302 303
f 304 305 306
f 307 308 309
f 310 311 312
f 313 314 315
f 316 317 318
f 319 320 321
f 322 323 324
f 325 326 327
f 328 329 330
f 331 332 333
f 334 335 336
f 337 338 339
f 340 341 342
f 343 344 345
f 346 347 348
f 349 350 351
f 352 353 354
f 355 356 357
f 358 359 360
f 361 362 363
f 364 365 366
f 367 368 369
f 370 371 372
f 373 374 375
f 376 377 378
f 379 380 381
f 382 383 384
f 385 386 387
f 388 389 390
f 391 392 393
f 394 395 396
f 397 398 399
f 400 401 402
f 403 404 405
f 406 407 408
f 409 410 411
f 412 413 414
f 415 416 417
f 418 419 420
f 421 422 423
f 424 425 426
f 427 428 429
f 430 431 432
f 433 434 435
f 436 437 438
f 439 440 441
f 442 443 444
f 445 446 447
f 448 449 450
f 451 452 453
f 454 455 456
f 457 458 459
f 460 461 462
f 463 464 465
f 466 467 468
f 469 470 471
f 472 473 474
f 475 476 477
f 478 479 480
f 481 482 483
f 484 485 486
f 487 488 489
f 490 491 492
f 493 494 495
f 496 497 498
f 499 500 501
f 502 503 504
f 505 506 507
f 508 509 510
f 511 512 513
f 514 515 516
f 517 518 519
f 520 521 522
f 523 524 525
f 526 527 528
f 529 530 531
f 532 533 534
f 535 536 537
f 538 539 540
f 541 542 543
f 544 545 546
f 547 548 549
f 550 551 552
f 553 554 555
f 556 557 558
f 559 560 561
f 562 563 564
f 565 566 567
f 568 569 570
f 571 572 573
f 574 575 576
f 577 578 579
f 580 581 582
