mtllib right_inner_finger_Fingertip_01_Fingertip.mtl
v -0.08870508521795274 0.14628665149211886 -6.15767541665459e-16
v -0.08861478418111803 0.14628665149211886 0.0006858705310150984
v -0.08835005015134813 0.14628665149211886 0.0013250000774860389
v -0.0879289135336876 0.14628665149211886 0.0018738330109044918
v -0.0873800814151764 0.14628665149211886 0.0022949674166738996
v -0.08674095571041109 0.14628665149211886 0.0025597035419195903
v -0.08605508506298067 0.14628665149211886 0.0026500001549720777
v -0.08536921441555025 0.14628665149211886 0.0025597035419195903
v -0.08473008126020433 0.14628665149211886 0.0022949674166738996
v -0.08418124914169313 0.14628665149211886 0.0018738330109044918
v -0.0837601125240326 0.14628665149211886 0.0013250000774860389
v -0.08349537849426271 0.14628665149211886 0.0006858705310150984
v -0.08340508490800859 0.14628665149211886 -6.146023419673923e-16
v -0.08349537849426271 0.14628665149211886 -0.0006858705310150984
v -0.0837601125240326 0.14628665149211886 -0.0013250000774860389
v -0.08418124914169313 0.14628665149211886 -0.0018738330109044918
v -0.08473008126020433 0.14628665149211886 -0.0022949674166738996
v -0.08536921441555025 0.14628665149211886 -0.0025597035419195903
v -0.08605508506298067 0.14628665149211886 -0.0026500001549720777
v -0.08674095571041109 0.14628665149211886 -0.0025597035419195903
v -0.0873800814151764 0.14628665149211886 -0.0022949674166738996
v -0.0879289135336876 0.14628665149211886 -0.0018738330109044918
v -0.08835005015134813 0.14628665149211886 -0.0013250000774860389
v -0.08861478418111803 0.14628665149211886 -0.0006858705310150984
v -0.08861478418111803 0.14628764986991885 0.0006858705310150984
v -0.08870508521795274 0.14628764986991885 -6.151187144278622e-16
v -0.08835005015134813 0.14628764986991885 0.0013250000774860389
v -0.0879289135336876 0.14628764986991885 0.0018738330109044918
v -0.0873800814151764 0.14628764986991885 0.0022949674166738996
v -0.08674095571041109 0.14628764986991885 0.0025597035419195903
v -0.08605508506298067 0.14628764986991885 0.0026500001549720777
v -0.08536921441555025 0.14628764986991885 0.0025597035419195903
v -0.08473008126020433 0.14628764986991885 0.0022949674166738996
v -0.08418124914169313 0.14628764986991885 0.0018738330109044918
v -0.0837601125240326 0.14628764986991885 0.0013250000774860389
v -0.08349537849426271 0.14628764986991885 0.0006858705310150984
v -0.08340508490800859 0.14628764986991885 -6.146025537256291e-16
v -0.08349537849426271 0.14628764986991885 -0.0006858705310150984
v -0.0837601125240326 0.14628764986991885 -0.0013250000774860389
v -0.08418124914169313 0.14628764986991885 -0.0018738330109044918
v -0.08473008126020433 0.14628764986991885 -0.0022949674166738996
v -0.08536921441555025 0.14628764986991885 -0.0025597035419195903
v -0.08605508506298067 0.14628764986991885 -0.0026500001549720777
v -0.08674095571041109 0.14628764986991885 -0.0025597035419195903
v -0.0873800814151764 0.14628764986991885 -0.0022949674166738996
v -0.0879289135336876 0.14628764986991885 -0.0018738330109044918
v -0.08835005015134813 0.14628764986991885 -0.0013250000774860389
v -0.08861478418111803 0.14628764986991885 -0.0006858705310150984
v -0.08721977472305299 0.14628665149211886 0.0043466663919389265
v -0.08605508506298067 0.14628665149211886 0.0045000002719461935
v -0.08489039540290834 0.14628665149211886 0.0043466663919389265
v -0.08380508422851564 0.14628665149211886 0.003897114424034955
v -0.08287310600280763 0.14628665149211886 0.003181980457156898
v -0.08380508422851564 0.14628665149211886 -0.003897114424034955
v -0.08489039540290834 0.14628665149211886 -0.0043466663919389265
v -0.08995220065116884 0.14628665149211886 0.0022500001359730968
v -0.0892370641231537 0.14628665149211886 0.003181980457156898
v -0.08830508589744569 0.14628665149211886 0.003897114424034955
v -0.0821579694747925 0.14628665149211886 0.0022500001359730968
v -0.08605508506298067 0.14628665149211886 -0.0045000002719461935
v -0.08830508589744569 0.14628665149211886 -0.003897114424034955
v -0.0892370641231537 0.14628665149211886 -0.003181980457156898
v -0.09040175378322603 0.14628665149211886 0.001164685701951385
v -0.0817084237933159 0.14628665149211886 0.001164685701951385
v -0.0821579694747925 0.14628665149211886 -0.0022500001359730968
v -0.08287310600280763 0.14628665149211886 -0.003181980457156898
v -0.08721977472305299 0.14628665149211886 -0.0043466663919389265
v -0.08995220065116884 0.14628665149211886 -0.0022500001359730968
v -0.08155508339405061 0.14628665149211886 -6.138981399508688e-16
v -0.0817084237933159 0.14628665149211886 -0.001164685701951385
v -0.09040175378322603 0.14628665149211886 -0.001164685701951385
v -0.09055509418249132 0.14628665149211886 -5.592634560617823e-16
v -0.08965786546468736 0.15154053270816806 -0.002696289448067547
v -0.08920707553625108 0.15185923874378207 -0.003152307122945787
v -0.09037471562623979 0.1507603079080582 -0.0012612579157575971
v -0.08995220065116884 0.15125951170921328 -0.0022500001359730968
v -0.09051514416933061 0.15056043863296512 -0.0005982614238746466
v -0.09040175378322603 0.15072339773178103 -0.001164685701951385
v -0.09055509418249132 0.15049958229064944 -8.406476952605426e-16
v -0.09051546454429628 0.1505599617958069 0.0005958850379101934
v -0.09039543569087984 0.15073080360889438 0.0011633391259238128
v -0.09037471562623979 0.1507603079080582 0.0012612579157575971
v -0.08964363485574724 0.1515239924192429 0.0026521293912082924
v -0.08995220065116884 0.15125951170921328 0.0022500001359730968
v -0.08879270404577257 0.1521522104740143 0.003571482142433526
v -0.0892370641231537 0.1518725007772446 0.003181980457156898
v -0.08830508589744569 0.1524244695901871 0.003897114424034955
v -0.08721977472305299 0.1530304849147797 0.0043466663919389265
v -0.08605508506298067 0.1536808013916016 0.0045000002719461935
v -0.08489039540290834 0.15433113276958468 0.0043466663919389265
v -0.08380508422851564 0.15493714809417727 0.003897114424034955
v -0.08287310600280763 0.15545754134655002 0.003181980457156898
v -0.08248499035835268 0.15567424893379214 0.002739426447078587
v -0.08189762383699419 0.15600222349166873 0.0017220753943547615
v -0.0821579694747925 0.15585686266422275 0.0022500001359730968
v -0.08159358054399492 0.15617199242115024 0.0005873678601346912
v -0.0817084237933159 0.1561078727245331 0.001164685701951385
v -0.08159358054399492 0.15617199242115024 -0.0005873678601346912
v -0.08155508339405061 0.15619350969791415 -6.181303400718249e-16
v -0.08189762383699419 0.15600222349166873 -0.0017220753943547615
v -0.0817084237933159 0.1561078727245331 -0.001164685701951385
v -0.08248499035835268 0.15567424893379214 -0.002739426447078587
v -0.0821579694747925 0.15585686266422275 -0.0022500001359730968
v -0.08287310600280763 0.15545754134655002 -0.003181980457156898
v -0.08380508422851564 0.15493714809417727 -0.003897114424034955
v -0.08489039540290834 0.15433113276958468 -0.0043466663919389265
v -0.08605508506298067 0.1536808013916016 -0.0045000002719461935
v -0.08721977472305299 0.1530304849147797 -0.0043466663919389265
v -0.08830508589744569 0.1524244695901871 -0.003897114424034955
v -0.08879270404577257 0.1521522104740143 -0.0035714805126190203
v -0.09135508537292482 0.14778664708137515 -0.007300000172108415
v -0.09135508537292482 0.14778664708137515 0.007300000172108415
v -0.09124282002449037 0.14884023368358615 0.007300000172108415
v -0.09124282002449037 0.14884023368358615 -0.007300000172108415
v -0.09091106057167055 0.14984650909900668 0.007300000172108415
v -0.08965786546468736 0.15154053270816806 0.007300000172108415
v -0.08879270404577257 0.1521522104740143 0.007300000172108415
v -0.09037471562623979 0.1507603079080582 0.007300000172108415
v -0.09037471562623979 0.1507603079080582 -0.007300000172108415
v -0.09091106057167055 0.14984650909900668 -0.007300000172108415
v -0.08965786546468736 0.15154053270816806 -0.007300000172108415
v -0.08879270404577257 0.1521522104740143 -0.007300000172108415
v -0.09135508537292482 0.14228664338588717 0.007300000172108415
v -0.09135508537292482 0.14228664338588717 -0.007300000172108415
v -0.09055509418249132 0.14778664708137515 -0.008100000210106376
v -0.09055509418249132 0.14228664338588717 -0.008100000210106376
v -0.0884026736021042 0.1514537036418915 -0.008100000210106376
v -0.08912942558526994 0.15093991160392764 -0.008100000210106376
v -0.08973157405853273 0.15028449892997744 -0.008100000210106376
v -0.09018210321664812 0.14951694011688235 -0.008100000210106376
v -0.09046078473329545 0.14867165684700015 -0.008100000210106376
v -0.08173499256372453 0.15609303116798404 -0.007300000172108415
v -0.08134498447179796 0.15539453923702243 -0.008100000210106376
v -0.07908508181571962 0.14228664338588717 -0.008100000210106376
v -0.0796136185526848 0.15704320371150973 -0.008100000210106376
v -0.07910877466201784 0.15813723206520083 -0.008100000210106376
v -0.08037500828504564 0.1561093479394913 -0.008100000210106376
v -0.07908508181571962 0.1582143604755402 -0.008100000210106376
v -0.07902910560369493 0.15872678160667422 -0.008034502156078819
v -0.07881467044353486 0.15928892791271212 -0.008179433643817905
v -0.07883726805448533 0.1591991186141968 -0.008172794245183471
v -0.07896120101213457 0.15870665013790133 -0.008136389777064327
v -0.07932966202497484 0.15821471810340884 -0.007894549518823627
v -0.07956545054912569 0.1578129976987839 -0.00778475729748607
v -0.08002841472625734 0.15730910003185275 -0.007635632529854778
v -0.08028230071067811 0.15703275799751285 -0.00755385356023908
v -0.08085938543081285 0.1566247642040253 -0.007422019727528099
v -0.0811474695801735 0.15642111003398898 -0.007356205489486459
v -0.07895567268133165 0.14228664338588717 -0.008117036893963817
v -0.07883508503437044 0.14228664338588717 -0.008166987448930744
v -0.07873152941465379 0.14228664338588717 -0.008246446959674362
v -0.07874923199415208 0.15960115194320681 -0.008261560462415222
v -0.07872056961059572 0.15973792970180514 -0.008297538384795192
v -0.0786520689725876 0.14228664338588717 -0.008349999785423282
v -0.07860212028026582 0.14228664338588717 -0.008470590226352218
v -0.07866898924112321 0.15998405218124392 -0.008362280204892162
v -0.07861474156379701 0.16024290025234225 -0.008430366404354576
v -0.07858508080244066 0.14228664338588717 -0.008600000292062763
v -0.07860733568668367 0.16037531197071078 -0.00847166404128075
v -0.07858510315418245 0.16077315807342532 -0.008595735765993599
v -0.07858508080244066 0.16078664362430575 -0.008600000292062763
v -0.09055509418249132 0.14228664338588717 0.008100000210106376
v -0.09055509418249132 0.14778664708137515 0.008100000210106376
v -0.09046078473329545 0.14867165684700015 0.008100000210106376
v -0.09018210321664812 0.14951694011688235 0.008100000210106376
v -0.08973157405853273 0.15028449892997744 0.008100000210106376
v -0.08912942558526994 0.15093991160392764 0.008100000210106376
v -0.0884026736021042 0.1514537036418915 0.008100000210106376
v -0.0811474695801735 0.15642111003398898 0.007356205489486459
v -0.08173499256372453 0.15609303116798404 0.007300000172108415
v -0.08134498447179796 0.15539453923702243 0.008100000210106376
v -0.07861474156379701 0.16024290025234225 0.008430366404354576
v -0.07860733568668367 0.16037531197071078 0.00847166404128075
v -0.07858510315418245 0.16077315807342532 0.008595735765993599
v -0.07872056961059572 0.15973792970180514 0.008297538384795192
v -0.07866898924112321 0.15998405218124392 0.008362280204892162
v -0.07881467044353486 0.15928892791271212 0.008179433643817905
v -0.07874923199415208 0.15960115194320681 0.008261560462415222
v -0.07906176149845125 0.15874151885509494 0.008035383187234405
v -0.07959070056676866 0.15783254802227023 0.007787606678903106
v -0.07930630445480348 0.15819974243640902 0.007892816327512268
v -0.08029918372631074 0.15705326199531558 0.007558014709502462
v -0.08001024276018144 0.15729086101055148 0.007632403168827299
v -0.08084581047296525 0.15660376846790316 0.007417280692607168
v -0.07858508080244066 0.16078664362430575 0.008600000292062763
v -0.07908508181571962 0.14228664338588717 0.008100000210106376
v -0.08037500828504564 0.1561093479394913 0.008100000210106376
v -0.0796136185526848 0.15704320371150973 0.008100000210106376
v -0.07908508181571962 0.1582143604755402 0.008100000210106376
v -0.07910877466201784 0.15813723206520083 0.008100000210106376
v -0.07858508080244066 0.14228664338588717 0.008600000292062763
v -0.07860212028026582 0.14228664338588717 0.008470590226352218
v -0.0786520689725876 0.14228664338588717 0.008349999785423282
v -0.07873152941465379 0.14228664338588717 0.008246446959674362
v -0.07883726805448533 0.1591991186141968 0.008172794245183471
v -0.07883508503437044 0.14228664338588717 0.008166987448930744
v -0.07896120101213457 0.15870665013790133 0.008136389777064327
v -0.07895567268133165 0.14228664338588717 0.008117036893963817
v -0.0721975937485695 0.14228664338588717 -0.009000000543892387
v -0.0721975937485695 0.14228664338588717 0.009000000543892387
v -0.07858508080244066 0.14228664338588717 0.009000000543892387
v -0.07858508080244066 0.14228664338588717 -0.009000000543892387
v -0.07658508419990541 0.14428664743900302 0.01099999994039536
v -0.07703012228012086 0.14384160935878756 0.010949856601655488
v -0.0721975937485695 0.14376901090145114 0.010931851342320447
v -0.0721975937485695 0.14428664743900302 0.01099999994039536
v -0.07710049301385881 0.14377123117446902 0.01092523336410523
v -0.07745285332202913 0.1434188783168793 0.010801937431097036
v -0.0721975937485695 0.1432866603136063 0.01073205098509789
v -0.07757918536663057 0.14329254627227786 0.010722556151449686
v -0.07783206552267076 0.14303965866565707 0.010563663206994539
v -0.0721975937485695 0.1428724378347397 0.010414213873445993
v -0.07799040526151658 0.14288131892681125 0.010405322536826139
v -0.07814874500036241 0.14272297918796542 0.01024698000401259
v -0.0721975937485695 0.14255459606647494 0.009999999776482587
v -0.07838702201843263 0.1424847096204758 0.009867767803370958
v -0.0721975937485695 0.14235478639602664 0.009517638012766842
v -0.0783076509833336 0.14256407320499423 0.009994079358875757
v -0.07853081822395326 0.14234091341495517 0.009444260038435463
v -0.07857250422239305 0.14229921996593478 0.009223929606378082
v -0.07851694524288179 0.14235478639602664 0.009517638012766842
v -0.07658508419990541 0.20378664135932928 0.01099999994039536
v -0.0721975937485695 0.20378664135932928 0.01099999994039536
v -0.07852663844823839 0.20378664135932928 0.009443948976695541
v -0.07858508080244066 0.20378664135932928 0.009000000543892387
v -0.07851694524288179 0.20378664135932928 0.009517638012766842
v -0.07837412506341936 0.20378664135932928 0.009862423874437814
v -0.0781354457139969 0.20378664135932928 0.010236776433885103
v -0.07831713557243349 0.20378664135932928 0.009999999776482587
v -0.07782185822725297 0.20378664135932928 0.010550365783274179
v -0.07799929380416872 0.20378664135932928 0.010414213873445993
v -0.07744750380516054 0.20378664135932928 0.010789037682116037
v -0.07758508622646333 0.20378664135932928 0.01073205098509789
v -0.07702903449535371 0.20378664135932928 0.010941552929580217
v -0.07710272073745729 0.20378664135932928 0.010931851342320447
v -0.0721975937485695 0.20467673242092138 0.010899711400270467
v -0.07658508419990541 0.20467673242092138 0.010899711400270467
v -0.0721975937485695 0.20552217960357672 0.010603875853121286
v -0.07658508419990541 0.20552217960357672 0.010603875853121286
v -0.0721975937485695 0.20628060400485998 0.010127326473593717
v -0.07658508419990541 0.20628060400485998 0.010127326473593717
v -0.0721975937485695 0.20691397786140447 0.009493959136307243
v -0.07658508419990541 0.20691397786140447 0.009493959136307243
v -0.0721975937485695 0.20739053189754492 0.008735534735023979
v -0.07658508419990541 0.20739053189754492 0.008735534735023979
v -0.0721975937485695 0.20768634974956518 0.007890083827078346
v -0.07658508419990541 0.20768634974956518 0.007890083827078346
v -0.0721975937485695 0.20778664946556097 0.007000000216066841
v -0.07658508419990541 0.20778664946556097 0.007000000216066841
v -0.07858508080244066 0.20573650300502783 0.007445042021572593
v -0.07852663844823839 0.20623061060905462 0.007000000216066841
v -0.07851694524288179 0.206304281949997 0.007000000216066841
v -0.07858508080244066 0.2055885791778565 0.00786776747554541
v -0.07858508080244066 0.20535030961036688 0.008246980607509617
v -0.07858508080244066 0.20503363013267523 0.00856366287916899
v -0.07858508080244066 0.204654410481453 0.008801938034594062
v -0.07858508080244066 0.20423167943954473 0.00894985627382994
v -0.07837412506341936 0.20664907991886144 0.007000000216066841
v -0.07831713557243349 0.20678664743900305 0.007000000216066841
v -0.0781354457139969 0.20702344179153448 0.007000000216066841
v -0.07799929380416872 0.20720086991786962 0.007000000216066841
v -0.07782185822725297 0.20733700692653662 0.007000000216066841
v -0.07758508622646333 0.2075187116861344 0.007000000216066841
v -0.07744750380516054 0.20757567882537847 0.007000000216066841
v -0.07710272073745729 0.2077184915542603 0.007000000216066841
v -0.07702903449535371 0.2077281922101975 0.007000000216066841
v -0.07858508080244066 0.20578666031360632 0.007000000216066841
v -0.07710272073745729 0.20466156303882604 0.010833271779119974
v -0.07710272073745729 0.20549263060092932 0.010542476549744611
v -0.07710272073745729 0.20623812079429632 0.010074045509099966
v -0.07710272073745729 0.20686069130897528 0.009451469406485561
v -0.07710272073745729 0.20732912421226507 0.008705966174602512
v -0.07710272073745729 0.207619920372963 0.007874919101595882
v -0.07758508622646333 0.2046170979738236 0.010638480074703699
v -0.07758508622646333 0.20742513239383703 0.007830460555851463
v -0.07758508622646333 0.2071491032838822 0.00861927587538958
v -0.07758508622646333 0.20670448243618017 0.00932689663022757
v -0.07758508622646333 0.20611356198787695 0.009917834773659711
v -0.07758508622646333 0.20540592074394232 0.010362461209297185
v -0.07799929380416872 0.2045463919639588 0.010328612290322786
v -0.07799929380416872 0.20526801049709326 0.010076100006699567
v -0.07799929380416872 0.20591539144515997 0.009669339284300808
v -0.07799929380416872 0.20645599067211157 0.009128727018833164
v -0.07799929380416872 0.20686274766922003 0.008481372147798542
v -0.07799929380416872 0.20711526274681097 0.007759734056890014
v -0.07831713557243349 0.20445421338081365 0.009924783371388917
v -0.07831713557243349 0.2067114412784577 0.007667563389986757
v -0.07831713557243349 0.2064895480871201 0.008301651105284694
v -0.07831713557243349 0.20613214373588568 0.008870469406247142
v -0.07831713557243349 0.205657109618187 0.009345494210720066
v -0.07831713557243349 0.20508830249309545 0.009702906943857673
v -0.07851694524288179 0.20434688031673437 0.009454515762627128
v -0.07851694524288179 0.20487900078296667 0.009268314577639106
v -0.07851694524288179 0.20535635948181158 0.008968369103968147
v -0.07851694524288179 0.20575501024723059 0.008569722063839439
v -0.07851694524288179 0.20605497062206274 0.008092362433671955
v -0.07851694524288179 0.20624116063117987 0.007560227066278461
v -0.0721975937485695 0.20778664946556097 -0.007000000216066841
v -0.07658508419990541 0.20778664946556097 -0.007000000216066841
v -0.0721975937485695 0.14428664743900302 -0.01099999994039536
v -0.0721975937485695 0.14303965866565707 -0.010563663206994539
v -0.0721975937485695 0.1434188783168793 -0.010801937431097036
v -0.0721975937485695 0.1424847096204758 -0.009867767803370958
v -0.0721975937485695 0.14272297918796542 -0.01024698000401259
v -0.0721975937485695 0.20628060400485998 -0.010127326473593717
v -0.0721975937485695 0.20691397786140447 -0.009493959136307243
v -0.0721975937485695 0.20467673242092138 -0.010899711400270467
v -0.0721975937485695 0.20552217960357672 -0.010603875853121286
v -0.0721975937485695 0.14233678579330447 -0.009445041418075565
v -0.0721975937485695 0.20739053189754492 -0.008735534735023979
v -0.0721975937485695 0.20378664135932928 -0.01099999994039536
v -0.0721975937485695 0.14384160935878756 -0.010949856601655488
v -0.0721975937485695 0.20768634974956518 -0.007890083827078346
v -0.07857250422239305 0.14229921996593478 -0.009223929606378082
v -0.0784728527069092 0.14239887893199923 -0.009660557843744758
v -0.07853493839502336 0.14233678579330447 -0.009445041418075565
v -0.07838702201843263 0.1424847096204758 -0.009867767803370958
v -0.07814874500036241 0.14272297918796542 -0.01024698000401259
v -0.07783206552267076 0.14303965866565707 -0.010563663206994539
v -0.07745285332202913 0.1434188783168793 -0.010801937431097036
v -0.07703012228012086 0.14384160935878756 -0.010949856601655488
v -0.07658508419990541 0.14428664743900302 -0.01099999994039536
v -0.07658508419990541 0.20378664135932928 -0.01099999994039536
v -0.07858508080244066 0.20551870763301855 -0.008000000379979614
v -0.07858508080244066 0.20520085096359258 -0.00841421447694302
v -0.07858508080244066 0.2047866433858872 -0.008732051588594917
v -0.07858508080244066 0.20430427789688116 -0.008931851945817474
v -0.07858508080244066 0.20578666031360632 -0.007000000216066841
v -0.07858508080244066 0.20571850240230566 -0.007517638150602583
v -0.07858508080244066 0.20378664135932928 -0.009000000543892387
v -0.07658508419990541 0.20765034854412084 -0.008035276085138324
v -0.07658508419990541 0.20736472308635717 -0.008724847808480266
v -0.07658508419990541 0.20725074410438543 -0.009000000543892387
v -0.07658508419990541 0.20688737928867346 -0.009473552927374843
v -0.07658508419990541 0.20661509037017828 -0.00982842687517405
v -0.07658508419990541 0.2062602043151856 -0.010100732557475572
v -0.07658508419990541 0.20578666031360632 -0.01046410202980042
v -0.07658508419990541 0.20551151037216192 -0.010578074492514139
v -0.07658508419990541 0.20482191443443304 -0.010863704606890684
v -0.07658508419990541 0.20467454195022589 -0.010883105918765073
v -0.07658508419990541 0.20766974985599523 -0.007887898012995723
v -0.07838702201843263 0.20665441453456884 -0.007000000216066841
v -0.07853493839502336 0.20623168349266058 -0.007000000216066841
v -0.07814874500036241 0.20703361928462988 -0.007000000216066841
v -0.07783206552267076 0.20735031366348272 -0.007000000216066841
v -0.07745285332202913 0.20758858323097235 -0.007000000216066841
v -0.07703012228012086 0.20773650705814367 -0.007000000216066841
v -0.07853493839502336 0.20378664135932928 -0.009445041418075565
v -0.07838702201843263 0.20378664135932928 -0.009867767803370958
v -0.07814874500036241 0.20378664135932928 -0.01024698000401259
v -0.07783206552267076 0.20378664135932928 -0.010563663206994539
v -0.07745285332202913 0.20378664135932928 -0.010801937431097036
v -0.07703012228012086 0.20378664135932928 -0.010949856601655488
v -0.07703012228012086 0.2048089504241944 -0.010815267451107507
v -0.07703012228012086 0.20576158165931707 -0.010420675389468675
v -0.07703012228012086 0.20657961070537573 -0.009792970493435865
v -0.07703012228012086 0.20720732212066656 -0.008974927477538589
v -0.07703012228012086 0.20760191977024084 -0.008022298105061058
v -0.07745285332202913 0.20745903253555303 -0.00798401422798634
v -0.07783206552267076 0.20722888410091406 -0.007922343909740451
v -0.07814874500036241 0.20692300796508795 -0.007840380072593692
v -0.07838702201843263 0.20655670762062078 -0.00774223264306784
v -0.07853493839502336 0.20614837110042578 -0.00763282319530845
v -0.07745285332202913 0.20707923173904424 -0.008900969289243225
v -0.07783206552267076 0.20687288045883184 -0.008781832642853264
v -0.07814874500036241 0.20659860968589788 -0.008623490110039714
v -0.07838702201843263 0.20627020299434667 -0.008433884009718898
v -0.07853493839502336 0.20590411126613622 -0.00822252128273249
v -0.07745285332202913 0.2064750194549561 -0.009688375517725948
v -0.07783206552267076 0.20630653202533727 -0.009519889950752262
v -0.07814874500036241 0.20608261227607733 -0.009295960888266567
v -0.07838702201843263 0.20581448078155523 -0.009027818217873577
v -0.07853493839502336 0.20551554858684545 -0.00872890651226044
v -0.07745285332202913 0.2056876122951508 -0.010292575694620614
v -0.07783206552267076 0.205568477511406 -0.010086223483085638
v -0.07814874500036241 0.20541013777256018 -0.009811967611312871
v -0.07838702201843263 0.20522055029869085 -0.009483559057116512
v -0.07853493839502336 0.20500916242599493 -0.009117468260228637
v -0.07745285332202913 0.2047706544399262 -0.010672389529645448
v -0.07783206552267076 0.20470900833606726 -0.010442234575748449
v -0.07814874500036241 0.2046270221471787 -0.01013634260743857
v -0.07838702201843263 0.20452888309955602 -0.009770051576197153
v -0.07853493839502336 0.2044194638729096 -0.009361729025840763
usemtl Gray_Nurse
f 62 61 110
f 110 61 109
f 61 67 109
f 109 67 108
f 67 60 108
f 108 60 107
f 60 55 107
f 107 55 106
f 55 54 106
f 106 54 105
f 54 66 105
f 105 66 104
f 104 66 102
f 66 65 102
f 102 65 103
f 103 65 100
f 65 70 100
f 100 70 101
f 101 70 98
f 70 69 98
f 98 69 99
f 99 69 96
f 69 64 96
f 96 64 97
f 97 64 94
f 64 59 94
f 94 59 95
f 95 59 93
f 59 53 93
f 93 53 92
f 53 52 92
f 92 52 91
f 52 51 91
f 91 51 90
f 51 50 90
f 90 50 89
f 50 49 89
f 89 49 88
f 49 58 88
f 88 58 87
f 87 58 85
f 58 57 85
f 85 57 86
f 86 57 83
f 57 56 83
f 83 56 84
f 63 81 56
f 81 82 56
f 56 82 84
f 71 77 72
f 77 79 72
f 72 79 63
f 79 80 63
f 63 80 81
f 68 75 71
f 75 78 71
f 71 78 77
f 110 74 62
f 74 73 62
f 62 73 68
f 73 76 68
f 68 76 75
f 124 123 111
f 123 112 111
f 110 122 74
f 122 121 74
f 119 76 121
f 76 73 121
f 121 73 74
f 115 118 82
f 82 81 115
f 81 80 115
f 115 80 79
f 79 77 120
f 77 78 120
f 120 78 119
f 78 75 119
f 119 75 76
f 116 117 85
f 85 86 116
f 86 83 116
f 116 83 118
f 83 84 118
f 118 84 82
f 79 120 115
f 120 114 115
f 115 114 113
f 114 111 113
f 113 111 112
f 85 117 87
f 117 88 87
f 122 110 109
f 170 90 117
f 90 89 117
f 117 89 88
f 109 108 122
f 108 107 122
f 122 107 132
f 101 98 148
f 98 99 148
f 148 99 169
f 99 96 169
f 102 103 148
f 103 100 148
f 148 100 101
f 96 97 169
f 97 94 169
f 169 94 95
f 107 106 132
f 106 105 132
f 132 105 148
f 105 104 148
f 148 104 102
f 95 93 169
f 93 92 169
f 169 92 170
f 92 91 170
f 170 91 90
f 174 185 161
f 178 175 140
f 140 175 152
f 148 169 147
f 169 184 147
f 147 184 146
f 184 182 146
f 146 182 145
f 182 183 145
f 145 183 144
f 183 180 144
f 144 180 143
f 180 181 143
f 143 181 139
f 181 179 139
f 139 179 140
f 179 177 140
f 140 177 178
f 160 159 172
f 159 157 172
f 172 157 176
f 157 156 176
f 176 156 175
f 156 153 175
f 175 153 152
f 160 172 161
f 172 173 161
f 161 173 174
f 188 186 190
f 186 189 190
f 188 187 186
f 187 171 186
f 186 171 168
f 168 167 186
f 167 166 186
f 186 166 165
f 165 164 186
f 164 163 186
f 186 163 162
f 194 195 196
f 195 197 196
f 196 197 198
f 197 189 198
f 198 189 186
f 175 178 194
f 178 177 194
f 194 177 195
f 175 194 176
f 194 193 176
f 176 193 172
f 193 192 172
f 172 192 173
f 173 192 174
f 192 191 174
f 174 191 185
f 133 137 134
f 137 135 134
f 135 136 134
f 134 136 138
f 134 126 125
f 129 128 134
f 128 127 134
f 134 127 133
f 125 131 134
f 131 130 134
f 134 130 129
f 155 159 158
f 159 160 158
f 158 160 161
f 154 151 152
f 152 153 154
f 153 156 154
f 154 156 155
f 156 157 155
f 155 157 159
f 134 138 149
f 138 142 149
f 149 142 150
f 142 141 150
f 150 141 151
f 141 140 151
f 151 140 152
f 112 123 163
f 123 162 163
f 168 117 116
f 168 116 167
f 116 118 167
f 167 118 166
f 118 115 166
f 166 115 165
f 115 113 165
f 165 113 164
f 113 112 164
f 164 112 163
f 170 117 171
f 117 168 171
f 170 171 169
f 171 187 169
f 169 187 184
f 184 187 182
f 187 188 182
f 182 188 183
f 190 181 188
f 181 180 188
f 188 180 183
f 190 189 181
f 189 197 181
f 181 197 179
f 197 195 179
f 179 195 177
f 7 50 8
f 50 51 8
f 8 51 9
f 51 52 9
f 9 52 10
f 52 53 10
f 10 53 11
f 53 59 11
f 11 59 12
f 59 64 12
f 12 64 13
f 64 69 13
f 13 69 14
f 69 70 14
f 14 70 15
f 70 65 15
f 15 65 16
f 65 66 16
f 16 66 17
f 66 54 17
f 17 54 18
f 54 55 18
f 18 55 19
f 55 60 19
f 19 60 20
f 60 67 20
f 20 67 21
f 67 61 21
f 21 61 22
f 61 62 22
f 22 62 23
f 62 68 23
f 23 68 24
f 68 71 24
f 24 71 1
f 71 72 1
f 1 72 2
f 72 63 2
f 2 63 3
f 63 56 3
f 3 56 4
f 56 57 4
f 4 57 5
f 57 58 5
f 5 58 6
f 58 49 6
f 6 49 7
f 49 50 7
f 26 2 25
f 2 3 25
f 25 3 27
f 3 4 27
f 27 4 28
f 4 5 28
f 28 5 29
f 5 6 29
f 29 6 30
f 6 7 30
f 30 7 31
f 7 8 31
f 31 8 32
f 8 9 32
f 32 9 33
f 9 10 33
f 33 10 34
f 10 11 34
f 34 11 35
f 11 12 35
f 35 12 36
f 12 13 36
f 36 13 37
f 13 14 37
f 37 14 38
f 14 15 38
f 38 15 39
f 15 16 39
f 39 16 40
f 16 17 40
f 40 17 41
f 17 18 41
f 41 18 42
f 18 19 42
f 42 19 43
f 19 20 43
f 43 20 44
f 20 21 44
f 44 21 45
f 21 22 45
f 45 22 46
f 22 23 46
f 46 23 47
f 23 24 47
f 47 24 48
f 24 1 48
f 48 1 26
f 1 2 26
f 133 132 148
f 133 148 137
f 148 147 137
f 147 146 137
f 137 146 135
f 143 136 144
f 136 135 144
f 144 135 145
f 135 146 145
f 140 141 139
f 141 142 139
f 139 142 143
f 142 138 143
f 143 138 136
f 122 132 127
f 132 133 127
f 125 111 114
f 125 114 131
f 114 120 131
f 131 120 130
f 120 119 130
f 130 119 129
f 119 121 129
f 129 121 128
f 121 122 128
f 128 122 127
f 111 125 124
f 125 126 124
usemtl Cod_Gray
f 248 249 247
f 248 247 246
f 247 245 246
f 246 245 244
f 245 243 244
f 244 243 242
f 243 241 242
f 242 241 240
f 241 239 240
f 240 239 238
f 239 237 238
f 238 237 236
f 237 222 236
f 236 222 223
f 223 222 206
f 222 203 206
f 201 200 220
f 200 219 220
f 219 200 221
f 200 217 221
f 221 217 216
f 217 215 216
f 216 215 218
f 212 209 210
f 210 211 212
f 211 213 212
f 212 213 215
f 213 214 215
f 215 214 218
f 205 206 203
f 203 204 205
f 204 207 205
f 205 207 209
f 207 208 209
f 209 208 210
f 200 193 149
f 193 194 149
f 149 194 196
f 149 150 200
f 150 151 200
f 200 151 199
f 151 154 199
f 201 191 200
f 191 192 200
f 200 192 193
f 154 155 199
f 155 158 199
f 199 158 202
f 162 123 124
f 196 198 149
f 198 186 149
f 149 186 134
f 186 162 134
f 134 162 126
f 162 124 126
f 322 300 312
f 322 312 321
f 312 302 321
f 321 302 320
f 302 301 320
f 320 301 319
f 301 304 319
f 319 304 318
f 304 303 318
f 318 303 317
f 317 303 315
f 303 309 315
f 315 309 316
f 316 309 314
f 309 199 314
f 314 199 202
f 322 323 300
f 323 311 300
f 311 323 340
f 311 340 307
f 340 339 307
f 307 339 308
f 339 338 308
f 338 337 308
f 308 337 305
f 337 336 305
f 336 335 305
f 305 335 306
f 335 334 306
f 334 333 306
f 306 333 310
f 333 332 310
f 332 331 310
f 310 331 313
f 331 341 313
f 341 299 313
f 313 299 298
f 249 248 299
f 248 298 299
f 298 248 200
f 200 199 298
f 199 300 298
f 298 300 311
f 311 307 298
f 307 308 298
f 298 308 305
f 305 306 298
f 306 310 298
f 298 310 313
f 248 223 200
f 223 206 200
f 200 206 217
f 199 309 300
f 309 303 300
f 300 303 304
f 304 301 300
f 301 302 300
f 300 302 312
f 246 244 248
f 244 242 248
f 248 242 240
f 205 209 212
f 240 238 248
f 238 236 248
f 248 236 223
f 205 212 206
f 212 215 206
f 206 215 217
f 202 330 314
f 330 348 314
f 314 348 316
f 316 348 315
f 348 349 315
f 315 349 317
f 349 350 317
f 317 350 318
f 350 351 318
f 318 351 319
f 351 352 319
f 319 352 320
f 352 353 320
f 320 353 321
f 353 323 321
f 321 323 322
f 340 323 353
f 338 339 354
f 336 337 355
f 334 335 356
f 331 332 357
f 334 356 333
f 299 341 347
f 341 358 347
f 347 358 346
f 358 359 346
f 346 359 345
f 359 360 345
f 345 360 344
f 360 361 344
f 344 361 342
f 361 362 342
f 342 362 343
f 362 363 343
f 343 363 328
f 363 329 328
f 341 331 358
f 331 357 358
f 358 357 359
f 357 364 359
f 359 364 360
f 364 365 360
f 360 365 361
f 365 366 361
f 361 366 362
f 366 367 362
f 362 367 363
f 367 368 363
f 363 368 329
f 368 324 329
f 332 333 357
f 333 356 357
f 357 356 364
f 356 369 364
f 364 369 365
f 369 370 365
f 365 370 366
f 370 371 366
f 366 371 367
f 371 372 367
f 367 372 368
f 372 373 368
f 368 373 324
f 373 325 324
f 335 336 356
f 336 355 356
f 356 355 369
f 355 374 369
f 369 374 370
f 374 375 370
f 370 375 371
f 375 376 371
f 371 376 372
f 376 377 372
f 372 377 373
f 377 378 373
f 373 378 325
f 378 326 325
f 337 338 355
f 338 354 355
f 355 354 374
f 354 379 374
f 374 379 375
f 379 380 375
f 375 380 376
f 380 381 376
f 376 381 377
f 381 382 377
f 377 382 378
f 382 383 378
f 378 383 326
f 383 327 326
f 339 340 354
f 340 353 354
f 354 353 379
f 353 352 379
f 379 352 380
f 352 351 380
f 380 351 381
f 351 350 381
f 381 350 382
f 350 349 382
f 382 349 383
f 349 348 383
f 383 348 327
f 348 330 327
f 299 347 249
f 347 266 249
f 266 347 265
f 347 346 265
f 265 346 264
f 264 346 263
f 346 345 263
f 263 345 262
f 262 345 261
f 345 344 261
f 261 344 260
f 260 344 259
f 344 342 259
f 259 342 258
f 258 342 252
f 342 343 252
f 252 343 251
f 343 328 251
f 251 328 267
f 234 222 237
f 268 235 234
f 234 237 268
f 237 239 268
f 268 239 269
f 239 241 269
f 269 241 270
f 241 243 270
f 270 243 271
f 243 245 271
f 271 245 272
f 245 247 272
f 272 247 273
f 247 249 266
f 230 233 274
f 233 232 274
f 247 266 273
f 266 265 273
f 273 265 264
f 264 275 273
f 275 276 273
f 273 276 272
f 276 277 272
f 272 277 271
f 277 278 271
f 271 278 270
f 278 279 270
f 270 279 269
f 279 274 269
f 269 274 268
f 274 232 268
f 268 232 235
f 280 231 230
f 230 274 280
f 274 279 280
f 280 279 281
f 279 278 281
f 281 278 282
f 278 277 282
f 282 277 283
f 277 276 283
f 283 276 284
f 276 275 284
f 284 275 285
f 227 229 286
f 229 228 286
f 264 263 275
f 263 262 275
f 275 262 285
f 262 261 285
f 285 261 260
f 260 287 285
f 287 288 285
f 285 288 284
f 288 289 284
f 284 289 283
f 289 290 283
f 283 290 282
f 290 291 282
f 282 291 281
f 291 286 281
f 281 286 280
f 286 228 280
f 280 228 231
f 224 226 292
f 226 227 292
f 227 286 292
f 286 291 292
f 292 291 293
f 291 290 293
f 293 290 294
f 290 289 294
f 294 289 295
f 289 288 295
f 295 288 296
f 288 287 296
f 296 287 297
f 257 225 224
f 260 259 287
f 259 258 287
f 287 258 297
f 258 252 297
f 297 252 251
f 224 292 257
f 292 293 257
f 257 293 256
f 293 294 256
f 256 294 255
f 294 295 255
f 255 295 254
f 295 296 254
f 254 296 253
f 296 297 253
f 253 297 250
f 297 251 250
f 250 251 267
f 222 234 203
f 234 204 203
f 204 234 207
f 234 235 207
f 207 235 232
f 211 210 232
f 210 208 232
f 232 208 207
f 232 233 211
f 233 230 211
f 211 230 213
f 230 214 213
f 230 231 214
f 231 228 214
f 214 228 218
f 228 216 218
f 228 229 216
f 229 227 216
f 216 227 221
f 227 226 221
f 221 226 219
f 226 224 219
f 219 224 220
f 224 225 220
f 220 225 201
f 202 158 161
f 191 201 185
f 201 225 185
f 267 328 161
f 202 161 330
f 161 328 330
f 330 328 327
f 225 257 256
f 256 255 225
f 255 254 225
f 225 254 253
f 161 185 267
f 185 225 267
f 267 225 250
f 225 253 250
f 328 329 327
f 329 324 327
f 327 324 326
f 324 325 326
