mtllib right_outer_finger_collisions_robotiq_arg2f_140_outer_finger_node_STL_BINARY__mesh.mtl
v -0.01370000373572112 0.08150847256183624 -0.030708119273185727
v -0.013749997131526479 -0.0002469291794113815 -0.0024877761024981733
v -0.013749997131526479 0.001030039507895708 -0.002277940977364778
v 0.013249997980892667 0.0002469281025696546 0.0024877754040062423
v 0.01179999578744174 0.0013006514636799693 0.0058573312126100055
v 0.01179999578744174 -0.0010398620506748557 0.0059092054143548
v 0.01179999578744174 0.0013006514636799693 0.0058573312126100055
v 0.01330000627785922 0.08200232684612274 -0.025732569396495816
v 0.01179999578744174 0.08331030607223511 -0.0224253237247467
v 0.01330000627785922 0.08200232684612274 -0.025732569396495816
v 0.01179999578744174 0.0013006514636799693 0.0058573312126100055
v 0.013249997980892667 0.0002469281025696546 0.0024877754040062423
v 0.013249997980892667 0.0002469281025696546 0.0024877754040062423
v 0.01179999578744174 -0.0010398620506748557 0.0059092054143548
v 0.013249997980892667 -0.0010300406720489264 0.002277940278872847
v 0.01179999578744174 0.08020050078630447 -0.03401536494493484
v 0.01330000627785922 0.08150847256183624 -0.030708119273185727
v 0.01179999578744174 0.018768036738038063 -0.017531964927911755
v 0.01330000627785922 0.08029766380786896 -0.030251357704401013
v 0.013249997980892667 -0.0002469291794113815 -0.0024877761024981733
v 0.01330000627785922 0.08150847256183624 -0.030708119273185727
v 0.013249997980892667 -0.0002469291794113815 -0.0024877761024981733
v 0.01330000627785922 0.08029766380786896 -0.030251357704401013
v 0.013249997980892667 -0.0014577334513887763 -0.0020310126710683103
v -0.012200000695884236 0.0013006514636799693 0.0058573312126100055
v -0.012200000695884236 0.08331030607223511 -0.0224253237247467
v -0.013749997131526479 0.0002469281025696546 0.0024877754040062423
v -0.01370000373572112 0.08200232684612274 -0.025732569396495816
v -0.013749997131526479 0.0002469281025696546 0.0024877754040062423
v -0.012200000695884236 0.08331030607223511 -0.0224253237247467
v -0.013749997131526479 0.0002469281025696546 0.0024877754040062423
v -0.012200000695884236 -0.0010398620506748557 0.0059092054143548
v -0.012200000695884236 0.0013006514636799693 0.0058573312126100055
v 0.013249997980892667 -0.0010300406720489264 0.002277940278872847
v 0.01179999578744174 -0.0010398620506748557 0.0059092054143548
v 0.01179999578744174 -0.0032220601569861174 0.005061457864940166
v 0.013249997980892667 -0.0010300406720489264 0.002277940278872847
v 0.01179999578744174 -0.0032220601569861174 0.005061457864940166
v 0.013249997980892667 -0.0020310136023908854 0.001457733567804098
v 0.01179999578744174 -0.00491372961550951 0.003443146357312798
v 0.013249997980892667 -0.0020310136023908854 0.001457733567804098
v 0.01179999578744174 -0.0032220601569861174 0.005061457864940166
v 0.012400005944073209 -0.004614661447703838 0.0016476974124088881
v 0.01179999578744174 -0.005857331212610006 0.0013006505323573945
v 0.012400005944073209 -0.0048589385114610195 0.0006330189644359051
v 0.012400005944073209 -0.004614661447703838 0.0016476974124088881
v 0.01179999578744174 -0.00491372961550951 0.003443146357312798
v 0.01179999578744174 -0.005857331212610006 0.0013006505323573945
v 0.012499992735683927 0.08596276491880417 -0.025708744302392002
v 0.01330000627785922 0.08321312814950943 -0.02618933282792568
v 0.01330000627785922 0.08403334021568298 -0.0271903034299612
v 0.01330000627785922 0.08200232684612274 -0.025732569396495816
v 0.01330000627785922 0.08321312814950943 -0.02618933282792568
v 0.01179999578744174 0.08331030607223511 -0.0224253237247467
v 0.01179999578744174 0.08331030607223511 -0.0224253237247467
v 0.01330000627785922 0.08321312814950943 -0.02618933282792568
v 0.01179999578744174 0.08540961146354675 -0.023461479693651196
v 0.01330000627785922 0.08029766380786896 -0.030251357704401013
v 0.013249997980892667 -0.002277942141517997 -0.001030041370540857
v 0.013249997980892667 -0.0014577334513887763 -0.0020310126710683103
v -0.012200000695884236 -0.0034431484527885914 -0.0049137300811707965
v -0.012200000695884236 -0.005061454139649868 -0.003222059458494186
v -0.013749997131526479 -0.0014577334513887763 -0.0020310126710683103
v 0.01179999578744174 -0.0034431484527885914 -0.0049137300811707965
v 0.01179999578744174 0.006179760675877333 -0.011656687594950197
v 0.013249997980892667 -0.0014577334513887763 -0.0020310126710683103
v 0.01179999578744174 0.006179760675877333 -0.011656687594950197
v 0.01179999578744174 0.01013796217739582 -0.014100021682679651
v 0.013249997980892667 -0.0014577334513887763 -0.0020310126710683103
v -0.012200000695884236 -0.0010398620506748557 0.0059092054143548
v -0.013749997131526479 -0.0010300406720489264 0.002277940278872847
v -0.012200000695884236 -0.0032220601569861174 0.005061457864940166
v -0.012200000695884236 -0.0010398620506748557 0.0059092054143548
v -0.013749997131526479 0.0002469281025696546 0.0024877754040062423
v -0.013749997131526479 -0.0010300406720489264 0.002277940278872847
v 0.01179999578744174 -0.00491372961550951 0.003443146357312798
v 0.012400005944073209 -0.004461388103663921 0.0019020865438506005
v 0.013249997980892667 -0.0020310136023908854 0.001457733567804098
v 0.013249997980892667 -0.0020310136023908854 0.001457733567804098
v 0.012400005944073209 -0.004461388103663921 0.0019020865438506005
v 0.012400005944073209 -0.004614661447703838 0.0016476974124088881
v 0.012400005944073209 -0.004614661447703838 0.0016476974124088881
v 0.012400005944073209 -0.004461388103663921 0.0019020865438506005
v 0.01179999578744174 -0.00491372961550951 0.003443146357312798
v 0.012499992735683927 0.08639924228191376 -0.02665675804018974
v 0.012499992735683927 0.08596276491880417 -0.025708744302392002
v 0.01330000627785922 0.08403334021568298 -0.0271903034299612
v 0.01179999578744174 0.08540961146354675 -0.023461479693651196
v 0.012499992735683927 0.08576305210590363 -0.025488920509815213
v 0.012499992735683927 0.08596276491880417 -0.025708744302392002
v 0.012499992735683927 0.08576305210590363 -0.025488920509815213
v 0.01330000627785922 0.08321312814950943 -0.02618933282792568
v 0.012499992735683927 0.08596276491880417 -0.025708744302392002
v 0.01330000627785922 0.08321312814950943 -0.02618933282792568
v 0.012499992735683927 0.08576305210590363 -0.025488920509815213
v 0.01179999578744174 0.08540961146354675 -0.023461479693651196
v -0.01370000373572112 0.08321312814950943 -0.02618933282792568
v -0.01370000373572112 0.08200232684612274 -0.025732569396495816
v -0.012200000695884236 0.08331030607223511 -0.0224253237247467
v 0.007300002034753566 0.06494026631116867 -0.02992078103125095
v 0.01179999578744174 0.08020050078630447 -0.03401536494493484
v 0.01179999578744174 0.018768036738038063 -0.017531964927911755
v -0.007699998561292892 0.06494026631116867 -0.02992078103125095
v -0.012200000695884236 0.018768036738038063 -0.017531964927911755
v -0.012200000695884236 0.08020050078630447 -0.03401536494493484
v -0.01370000373572112 0.08150847256183624 -0.030708119273185727
v -0.012200000695884236 0.08020050078630447 -0.03401536494493484
v -0.012200000695884236 0.018768036738038063 -0.017531964927911755
v -0.012200000695884236 0.08253651857376099 -0.03416928276419639
v -0.012200000695884236 0.08020050078630447 -0.03401536494493484
v -0.01370000373572112 0.08150847256183624 -0.030708119273185727
v 0.01179999578744174 0.0847536101937294 -0.03341752663254737
v 0.01179999578744174 0.08651426434516907 -0.03187454864382743
v 0.01330000627785922 0.08378641307353973 -0.029678078368306157
v 0.01179999578744174 0.08651426434516907 -0.03187454864382743
v 0.012499992735683927 0.08660510927438736 -0.02826842479407787
v 0.01330000627785922 0.08378641307353973 -0.029678078368306157
v 0.01330000627785922 0.08378641307353973 -0.029678078368306157
v 0.012499992735683927 0.08660510927438736 -0.02826842479407787
v 0.01330000627785922 0.08424317091703415 -0.02846727333962917
v 0.01330000627785922 0.08424317091703415 -0.02846727333962917
v 0.012499992735683927 0.08660510927438736 -0.02826842479407787
v 0.012499992735683927 0.08664923906326294 -0.02797472663223743
v 0.012400005944073209 -0.004614661447703838 0.0016476974124088881
v 0.013249997980892667 -0.0024877735413610935 0.0002469288592692464
v 0.013249997980892667 -0.0020310136023908854 0.001457733567804098
v 0.012400005944073209 -0.004614661447703838 0.0016476974124088881
v 0.012400005944073209 -0.0048589385114610195 0.0006330189644359051
v 0.013249997980892667 -0.0024877735413610935 0.0002469288592692464
v 0.013249997980892667 -0.0024877735413610935 0.0002469288592692464
v 0.01330000627785922 0.07972438633441925 -0.026762610301375386
v 0.013249997980892667 -0.0020310136023908854 0.001457733567804098
v 0.013249997980892667 -0.0020310136023908854 0.001457733567804098
v 0.01330000627785922 0.08072535693645477 -0.02594240382313728
v 0.013249997980892667 -0.0010300406720489264 0.002277940278872847
v 0.01330000627785922 0.07972438633441925 -0.026762610301375386
v 0.01330000627785922 0.08072535693645477 -0.02594240382313728
v 0.013249997980892667 -0.0020310136023908854 0.001457733567804098
v 0.01330000627785922 0.08072535693645477 -0.02594240382313728
v 0.01330000627785922 0.08200232684612274 -0.025732569396495816
v 0.013249997980892667 0.0002469281025696546 0.0024877754040062423
v 0.013249997980892667 -0.0010300406720489264 0.002277940278872847
v 0.01330000627785922 0.08072535693645477 -0.02594240382313728
v 0.013249997980892667 0.0002469281025696546 0.0024877754040062423
v 0.01330000627785922 0.08029766380786896 -0.030251357704401013
v 0.01330000627785922 0.079477459192276 -0.02925038523972034
v 0.013249997980892667 -0.002277942141517997 -0.001030041370540857
v 0.013249997980892667 -0.002277942141517997 -0.001030041370540857
v 0.01330000627785922 0.079477459192276 -0.02925038523972034
v 0.013249997980892667 -0.0024877735413610935 0.0002469288592692464
v -0.012200000695884236 -0.005061454139649868 -0.003222059458494186
v -0.012200000695884236 -0.005909205414354801 -0.0010398591402918098
v -0.012849996797740468 -0.0047482457011938095 -0.0009879670105874536
v 0.01179999578744174 -0.005909205414354801 -0.0010398591402918098
v 0.01179999578744174 -0.005061454139649868 -0.003222059458494186
v 0.012400005944073209 -0.0047482457011938095 -0.0009879670105874536
v 0.012400005944073209 -0.0047482457011938095 -0.0009879670105874536
v 0.01179999578744174 -0.005061454139649868 -0.003222059458494186
v 0.013249997980892667 -0.002277942141517997 -0.001030041370540857
v 0.01179999578744174 -0.0034431484527885914 -0.0049137300811707965
v 0.013249997980892667 -0.0014577334513887763 -0.0020310126710683103
v 0.01179999578744174 -0.005061454139649868 -0.003222059458494186
v 0.013249997980892667 -0.002277942141517997 -0.001030041370540857
v 0.01179999578744174 -0.005061454139649868 -0.003222059458494186
v 0.013249997980892667 -0.0014577334513887763 -0.0020310126710683103
v -0.012200000695884236 0.014353055506944656 -0.016067314893007275
v -0.012200000695884236 0.01013796217739582 -0.014100021682679651
v -0.013749997131526479 -0.0014577334513887763 -0.0020310126710683103
v -0.013749997131526479 -0.0002469291794113815 -0.0024877761024981733
v -0.012200000695884236 0.014353055506944656 -0.016067314893007275
v -0.013749997131526479 -0.0014577334513887763 -0.0020310126710683103
v -0.01370000373572112 0.08150847256183624 -0.030708119273185727
v -0.012200000695884236 0.018768036738038063 -0.017531964927911755
v -0.012200000695884236 0.014353055506944656 -0.016067314893007275
v -0.01370000373572112 0.08150847256183624 -0.030708119273185727
v -0.012200000695884236 0.014353055506944656 -0.016067314893007275
v -0.013749997131526479 -0.0002469291794113815 -0.0024877761024981733
v 0.01179999578744174 0.01013796217739582 -0.014100021682679651
v 0.01179999578744174 0.014353055506944656 -0.016067314893007275
v 0.013249997980892667 -0.0014577334513887763 -0.0020310126710683103
v 0.013249997980892667 -0.0014577334513887763 -0.0020310126710683103
v 0.01179999578744174 0.014353055506944656 -0.016067314893007275
v 0.013249997980892667 -0.0002469291794113815 -0.0024877761024981733
v 0.01330000627785922 0.08150847256183624 -0.030708119273185727
v 0.01179999578744174 0.014353055506944656 -0.016067314893007275
v 0.01179999578744174 0.018768036738038063 -0.017531964927911755
v 0.013249997980892667 -0.0002469291794113815 -0.0024877761024981733
v 0.01179999578744174 0.014353055506944656 -0.016067314893007275
v 0.01330000627785922 0.08150847256183624 -0.030708119273185727
v -0.013749997131526479 -0.0014577334513887763 -0.0020310126710683103
v -0.012200000695884236 0.006179760675877333 -0.011656687594950197
v -0.012200000695884236 -0.0034431484527885914 -0.0049137300811707965
v -0.012200000695884236 0.01013796217739582 -0.014100021682679651
v -0.012200000695884236 0.006179760675877333 -0.011656687594950197
v -0.013749997131526479 -0.0014577334513887763 -0.0020310126710683103
v -0.013749997131526479 -0.0010300406720489264 0.002277940278872847
v -0.013749997131526479 -0.0020310136023908854 0.001457733567804098
v -0.012200000695884236 -0.0032220601569861174 0.005061457864940166
v 0.01179999578744174 0.08770433813333511 -0.027439231052994725
v 0.012499992735683927 0.08648621290922165 -0.026943869888782498
v 0.012499992735683927 0.08664923906326294 -0.02797472663223743
v 0.012499992735683927 0.08639924228191376 -0.02665675804018974
v 0.012499992735683927 0.08648621290922165 -0.026943869888782498
v 0.01179999578744174 0.08770433813333511 -0.027439231052994725
v 0.01330000627785922 0.08403334021568298 -0.0271903034299612
v 0.012499992735683927 0.08648621290922165 -0.026943869888782498
v 0.012499992735683927 0.08639924228191376 -0.02665675804018974
v 0.01330000627785922 0.08424317091703415 -0.02846727333962917
v 0.012499992735683927 0.08648621290922165 -0.026943869888782498
v 0.01330000627785922 0.08403334021568298 -0.0271903034299612
v 0.012499992735683927 0.08664923906326294 -0.02797472663223743
v 0.012499992735683927 0.08648621290922165 -0.026943869888782498
v 0.01330000627785922 0.08424317091703415 -0.02846727333962917
v -0.012200000695884236 0.08331030607223511 -0.0224253237247467
v -0.012200000695884236 0.08540961146354675 -0.023461479693651196
v -0.01370000373572112 0.08321312814950943 -0.02618933282792568
v -0.012899997644126424 0.08596276491880417 -0.025708744302392002
v -0.012200000695884236 0.08540961146354675 -0.023461479693651196
v -0.012200000695884236 0.0869525820016861 -0.025222130119800564
v -0.013749997131526479 0.0014577324036508799 0.0020310117397457357
v -0.013749997131526479 0.0002469281025696546 0.0024877754040062423
v -0.01370000373572112 0.08200232684612274 -0.025732569396495816
v -0.01370000373572112 0.08321312814950943 -0.02618933282792568
v -0.013749997131526479 0.0014577324036508799 0.0020310117397457357
v -0.01370000373572112 0.08200232684612274 -0.025732569396495816
v 0.01179999578744174 0.08540961146354675 -0.023461479693651196
v 0.012499992735683927 0.08596276491880417 -0.025708744302392002
v 0.01179999578744174 0.0869525820016861 -0.025222130119800564
v 0.012499992735683927 0.08639924228191376 -0.02665675804018974
v 0.01179999578744174 0.08770433813333511 -0.027439231052994725
v 0.01179999578744174 0.0869525820016861 -0.025222130119800564
v 0.012499992735683927 0.08639924228191376 -0.02665675804018974
v 0.01179999578744174 0.0869525820016861 -0.025222130119800564
v 0.012499992735683927 0.08596276491880417 -0.025708744302392002
v 0.01330000627785922 0.08278543502092361 -0.030498284846544262
v 0.01179999578744174 0.0847536101937294 -0.03341752663254737
v 0.01330000627785922 0.08378641307353973 -0.029678078368306157
v 0.01179999578744174 0.08020050078630447 -0.03401536494493484
v 0.01179999578744174 0.08253651857376099 -0.03416928276419639
v 0.01330000627785922 0.08150847256183624 -0.030708119273185727
v 0.01330000627785922 0.08278543502092361 -0.030498284846544262
v 0.01330000627785922 0.08150847256183624 -0.030708119273185727
v 0.01179999578744174 0.08253651857376099 -0.03416928276419639
v 0.01330000627785922 0.08278543502092361 -0.030498284846544262
v 0.01179999578744174 0.08253651857376099 -0.03416928276419639
v 0.01179999578744174 0.0847536101937294 -0.03341752663254737
v 0.01179999578744174 0.08755041658878326 -0.029775248840451237
v 0.012499992735683927 0.08660510927438736 -0.02826842479407787
v 0.01179999578744174 0.08651426434516907 -0.03187454864382743
v 0.012499992735683927 0.08664923906326294 -0.02797472663223743
v 0.01179999578744174 0.08755041658878326 -0.029775248840451237
v 0.01179999578744174 0.08770433813333511 -0.027439231052994725
v 0.012499992735683927 0.08660510927438736 -0.02826842479407787
v 0.01179999578744174 0.08755041658878326 -0.029775248840451237
v 0.012499992735683927 0.08664923906326294 -0.02797472663223743
v 0.013249997980892667 -0.0024877735413610935 0.0002469288592692464
v 0.012400005944073209 -0.0048589385114610195 0.0006330189644359051
v 0.012400005944073209 -0.004888569470494986 0.00033448645262978966
v 0.01179999578744174 -0.005909205414354801 -0.0010398591402918098
v 0.012400005944073209 -0.004888569470494986 0.00033448645262978966
v 0.01179999578744174 -0.005857331212610006 0.0013006505323573945
v 0.01179999578744174 -0.005857331212610006 0.0013006505323573945
v 0.012400005944073209 -0.004888569470494986 0.00033448645262978966
v 0.012400005944073209 -0.0048589385114610195 0.0006330189644359051
v 0.013249997980892667 -0.002277942141517997 -0.001030041370540857
v 0.012400005944073209 -0.004848521202802658 -0.0007084113894961773
v 0.012400005944073209 -0.0047482457011938095 -0.0009879670105874536
v 0.013249997980892667 -0.0024877735413610935 0.0002469288592692464
v 0.012400005944073209 -0.004848521202802658 -0.0007084113894961773
v 0.013249997980892667 -0.002277942141517997 -0.001030041370540857
v 0.012400005944073209 -0.004888569470494986 0.00033448645262978966
v 0.012400005944073209 -0.004848521202802658 -0.0007084113894961773
v 0.013249997980892667 -0.0024877735413610935 0.0002469288592692464
v 0.012400005944073209 -0.0047482457011938095 -0.0009879670105874536
v 0.012400005944073209 -0.004848521202802658 -0.0007084113894961773
v 0.01179999578744174 -0.005909205414354801 -0.0010398591402918098
v 0.01179999578744174 -0.005909205414354801 -0.0010398591402918098
v 0.012400005944073209 -0.004848521202802658 -0.0007084113894961773
v 0.012400005944073209 -0.004888569470494986 0.00033448645262978966
v 0.013249997980892667 -0.0024877735413610935 0.0002469288592692464
v 0.01330000627785922 0.07926762849092484 -0.027973415330052372
v 0.01330000627785922 0.07972438633441925 -0.026762610301375386
v 0.01330000627785922 0.079477459192276 -0.02925038523972034
v 0.01330000627785922 0.07926762849092484 -0.027973415330052372
v 0.013249997980892667 -0.0024877735413610935 0.0002469288592692464
v -0.012200000695884236 -0.005857331212610006 0.0013006505323573945
v -0.012849996797740468 -0.004888569470494986 0.00033448645262978966
v -0.012200000695884236 -0.005909205414354801 -0.0010398591402918098
v -0.012200000695884236 0.006179760675877333 -0.011656687594950197
v -0.012200000695884236 0.01013796217739582 -0.014100021682679651
v -0.005200000945478681 0.00874420441687107 -0.0133114717900753
v -0.012200000695884236 -0.005061454139649868 -0.003222059458494186
v -0.013749997131526479 -0.002277942141517997 -0.001030041370540857
v -0.013749997131526479 -0.0014577334513887763 -0.0020310126710683103
v -0.012849996797740468 -0.0047482457011938095 -0.0009879670105874536
v -0.013749997131526479 -0.002277942141517997 -0.001030041370540857
v -0.012200000695884236 -0.005061454139649868 -0.003222059458494186
v -0.01370000373572112 0.08321312814950943 -0.02618933282792568
v -0.012899997644126424 0.08576305210590363 -0.025488920509815213
v -0.012899997644126424 0.08596276491880417 -0.025708744302392002
v -0.012899997644126424 0.08576305210590363 -0.025488920509815213
v -0.012200000695884236 0.08540961146354675 -0.023461479693651196
v -0.012899997644126424 0.08596276491880417 -0.025708744302392002
v -0.012200000695884236 0.08540961146354675 -0.023461479693651196
v -0.012899997644126424 0.08576305210590363 -0.025488920509815213
v -0.01370000373572112 0.08321312814950943 -0.02618933282792568
v -0.01370000373572112 0.08321312814950943 -0.02618933282792568
v -0.012899997644126424 0.08596276491880417 -0.025708744302392002
v -0.01370000373572112 0.08403334021568298 -0.0271903034299612
v -0.013749997131526479 0.0014577324036508799 0.0020310117397457357
v -0.01370000373572112 0.08403334021568298 -0.0271903034299612
v -0.013749997131526479 0.002277941210195422 0.0010300404392182825
v -0.013749997131526479 0.0014577324036508799 0.0020310117397457357
v -0.01370000373572112 0.08321312814950943 -0.02618933282792568
v -0.01370000373572112 0.08403334021568298 -0.0271903034299612
v -0.013749997131526479 0.002277941210195422 0.0010300404392182825
v -0.01370000373572112 0.08403334021568298 -0.0271903034299612
v -0.013749997131526479 0.002487772610038519 -0.0002469278697390109
v -0.013749997131526479 0.002487772610038519 -0.0002469278697390109
v -0.01370000373572112 0.08403334021568298 -0.0271903034299612
v -0.01370000373572112 0.08424317091703415 -0.02846727333962917
v -0.012200000695884236 0.08651426434516907 -0.03187454864382743
v -0.012899997644126424 0.08660510927438736 -0.02826842479407787
v -0.012200000695884236 0.08755041658878326 -0.029775248840451237
v -0.012200000695884236 0.0847536101937294 -0.03341752663254737
v -0.01370000373572112 0.08378641307353973 -0.029678078368306157
v -0.012200000695884236 0.08651426434516907 -0.03187454864382743
v -0.012899997644126424 0.08660510927438736 -0.02826842479407787
v -0.012200000695884236 0.08651426434516907 -0.03187454864382743
v -0.01370000373572112 0.08378641307353973 -0.029678078368306157
v -0.012899997644126424 0.08660510927438736 -0.02826842479407787
v -0.01370000373572112 0.08378641307353973 -0.029678078368306157
v -0.01370000373572112 0.08424317091703415 -0.02846727333962917
v -0.013749997131526479 0.002031012438237667 -0.0014577343827113507
v -0.01370000373572112 0.08378641307353973 -0.029678078368306157
v -0.013749997131526479 0.001030039507895708 -0.002277940977364778
v -0.013749997131526479 0.002487772610038519 -0.0002469278697390109
v -0.01370000373572112 0.08378641307353973 -0.029678078368306157
v -0.013749997131526479 0.002031012438237667 -0.0014577343827113507
v -0.01370000373572112 0.08424317091703415 -0.02846727333962917
v -0.01370000373572112 0.08378641307353973 -0.029678078368306157
v -0.013749997131526479 0.002487772610038519 -0.0002469278697390109
v -0.012849996797740468 -0.0047482457011938095 -0.0009879670105874536
v -0.012200000695884236 -0.005909205414354801 -0.0010398591402918098
v -0.012849996797740468 -0.004848521202802658 -0.0007084113894961773
v -0.012849996797740468 -0.004888569470494986 0.00033448645262978966
v -0.012849996797740468 -0.004848521202802658 -0.0007084113894961773
v -0.012200000695884236 -0.005909205414354801 -0.0010398591402918098
v -0.013749997131526479 -0.002277942141517997 -0.001030041370540857
v -0.012849996797740468 -0.0047482457011938095 -0.0009879670105874536
v -0.012849996797740468 -0.004848521202802658 -0.0007084113894961773
v -0.012849996797740468 -0.004614661447703838 0.0016476974124088881
v -0.012200000695884236 -0.005857331212610006 0.0013006505323573945
v -0.012200000695884236 -0.00491372961550951 0.003443146357312798
v 0.01179999578744174 0.014353055506944656 -0.016067314893007275
v 0.002427977742627265 0.011480906046926975 -0.014792303554713724
v 0.0016000022878870379 0.011579957790672779 -0.014840847812592982
v 0.01179999578744174 0.014353055506944656 -0.016067314893007275
v 0.01179999578744174 0.01013796217739582 -0.014100021682679651
v 0.002427977742627265 0.011480906046926975 -0.014792303554713724
v 0.0016000022878870379 0.011579957790672779 -0.014840847812592982
v 0.002427977742627265 0.011480906046926975 -0.014792303554713724
v -0.0019999991636723293 0.011579957790672779 -0.014840847812592982
v -0.005200000945478681 0.00874420441687107 -0.0133114717900753
v -0.004956411663442854 0.009811700321733952 -0.013921996578574179
v 0.004690950270742181 0.009463840164244175 -0.013727815821766852
v -0.004956411663442854 0.009811700321733952 -0.013921996578574179
v -0.005200000945478681 0.00874420441687107 -0.0133114717900753
v -0.012200000695884236 0.01013796217739582 -0.014100021682679651
v 0.004690950270742181 0.009463840164244175 -0.013727815821766852
v -0.004956411663442854 0.009811700321733952 -0.013921996578574179
v 0.01179999578744174 0.01013796217739582 -0.014100021682679651
v 0.01179999578744174 0.01013796217739582 -0.014100021682679651
v -0.004956411663442854 0.009811700321733952 -0.013921996578574179
v -0.012200000695884236 0.01013796217739582 -0.014100021682679651
v -0.005200000945478681 0.00874420441687107 -0.0133114717900753
v 0.004690950270742181 0.009463840164244175 -0.013727815821766852
v 0.004799996968358759 0.00874420441687107 -0.0133114717900753
v 0.01179999578744174 0.01013796217739582 -0.014100021682679651
v 0.004799996968358759 0.00874420441687107 -0.0133114717900753
v 0.004690950270742181 0.009463840164244175 -0.013727815821766852
v 0.01179999578744174 0.006179760675877333 -0.011656687594950197
v 0.004799996968358759 0.00874420441687107 -0.0133114717900753
v 0.01179999578744174 0.01013796217739582 -0.014100021682679651
v -0.012899997644126424 0.08664923906326294 -0.02797472663223743
v -0.012200000695884236 0.08770433813333511 -0.027439231052994725
v -0.012200000695884236 0.08755041658878326 -0.029775248840451237
v -0.012899997644126424 0.08660510927438736 -0.02826842479407787
v -0.012899997644126424 0.08664923906326294 -0.02797472663223743
v -0.012200000695884236 0.08755041658878326 -0.029775248840451237
v -0.01370000373572112 0.08424317091703415 -0.02846727333962917
v -0.012899997644126424 0.08664923906326294 -0.02797472663223743
v -0.012899997644126424 0.08660510927438736 -0.02826842479407787
v -0.012200000695884236 0.0847536101937294 -0.03341752663254737
v -0.01370000373572112 0.08278543502092361 -0.030498284846544262
v -0.01370000373572112 0.08378641307353973 -0.029678078368306157
v -0.01370000373572112 0.08278543502092361 -0.030498284846544262
v -0.012200000695884236 0.0847536101937294 -0.03341752663254737
v -0.012200000695884236 0.08253651857376099 -0.03416928276419639
v -0.01370000373572112 0.08278543502092361 -0.030498284846544262
v -0.012200000695884236 0.08253651857376099 -0.03416928276419639
v -0.01370000373572112 0.08150847256183624 -0.030708119273185727
v -0.013749997131526479 0.001030039507895708 -0.002277940977364778
v -0.01370000373572112 0.08278543502092361 -0.030498284846544262
v -0.01370000373572112 0.08150847256183624 -0.030708119273185727
v -0.01370000373572112 0.08378641307353973 -0.029678078368306157
v -0.01370000373572112 0.08278543502092361 -0.030498284846544262
v -0.013749997131526479 0.001030039507895708 -0.002277940977364778
v -0.012849996797740468 -0.004888569470494986 0.00033448645262978966
v -0.013749997131526479 -0.0024877735413610935 0.0002469288592692464
v -0.012849996797740468 -0.004848521202802658 -0.0007084113894961773
v -0.012849996797740468 -0.004848521202802658 -0.0007084113894961773
v -0.013749997131526479 -0.0024877735413610935 0.0002469288592692464
v -0.013749997131526479 -0.002277942141517997 -0.001030041370540857
v -0.012849996797740468 -0.004614661447703838 0.0016476974124088881
v -0.013749997131526479 -0.0020310136023908854 0.001457733567804098
v -0.013749997131526479 -0.0024877735413610935 0.0002469288592692464
v -0.012849996797740468 -0.004888569470494986 0.00033448645262978966
v -0.012200000695884236 -0.005857331212610006 0.0013006505323573945
v -0.012849996797740468 -0.0048589385114610195 0.0006330189644359051
v -0.012849996797740468 -0.004614661447703838 0.0016476974124088881
v -0.012849996797740468 -0.0048589385114610195 0.0006330189644359051
v -0.012200000695884236 -0.005857331212610006 0.0013006505323573945
v -0.012849996797740468 -0.0048589385114610195 0.0006330189644359051
v -0.013749997131526479 -0.0024877735413610935 0.0002469288592692464
v -0.012849996797740468 -0.004888569470494986 0.00033448645262978966
v -0.013749997131526479 -0.0024877735413610935 0.0002469288592692464
v -0.012849996797740468 -0.0048589385114610195 0.0006330189644359051
v -0.012849996797740468 -0.004614661447703838 0.0016476974124088881
v -0.012849996797740468 -0.004614661447703838 0.0016476974124088881
v -0.012200000695884236 -0.00491372961550951 0.003443146357312798
v -0.012849996797740468 -0.004461388103663921 0.0019020865438506005
v -0.012849996797740468 -0.004614661447703838 0.0016476974124088881
v -0.012849996797740468 -0.004461388103663921 0.0019020865438506005
v -0.013749997131526479 -0.0020310136023908854 0.001457733567804098
v -0.012200000695884236 -0.0032220601569861174 0.005061457864940166
v -0.012849996797740468 -0.004461388103663921 0.0019020865438506005
v -0.012200000695884236 -0.00491372961550951 0.003443146357312798
v -0.013749997131526479 -0.0020310136023908854 0.001457733567804098
v -0.012849996797740468 -0.004461388103663921 0.0019020865438506005
v -0.012200000695884236 -0.0032220601569861174 0.005061457864940166
v -0.012200000695884236 0.01013796217739582 -0.014100021682679651
v 0.004370560403913262 0.010142863728106022 -0.014102615416049956
v 0.01179999578744174 0.01013796217739582 -0.014100021682679651
v 0.004370560403913262 0.010142863728106022 -0.014102615416049956
v 0.003863428952172401 0.01073320209980011 -0.014414798468351362
v 0.01179999578744174 0.01013796217739582 -0.014100021682679651
v -0.0042627402581274535 0.01073382142931223 -0.014415116980671881
v 0.003863428952172401 0.01073320209980011 -0.014414798468351362
v -0.012200000695884236 0.01013796217739582 -0.014100021682679651
v -0.012200000695884236 0.01013796217739582 -0.014100021682679651
v 0.003863428952172401 0.01073320209980011 -0.014414798468351362
v 0.004370560403913262 0.010142863728106022 -0.014102615416049956
v 0.002427977742627265 0.011480906046926975 -0.014792303554713724
v -0.0032245840411633275 0.011358801275491714 -0.014731991104781626
v -0.0019999991636723293 0.011579957790672779 -0.014840847812592982
v -0.0032245840411633275 0.011358801275491714 -0.014731991104781626
v -0.0042627402581274535 0.01073382142931223 -0.014415116980671881
v -0.012200000695884236 0.01013796217739582 -0.014100021682679651
v -0.0019999991636723293 0.011579957790672779 -0.014840847812592982
v -0.0032245840411633275 0.011358801275491714 -0.014731991104781626
v -0.012200000695884236 0.014353055506944656 -0.016067314893007275
v -0.012200000695884236 0.014353055506944656 -0.016067314893007275
v -0.0032245840411633275 0.011358801275491714 -0.014731991104781626
v -0.012200000695884236 0.01013796217739582 -0.014100021682679651
v -0.012200000695884236 0.08770433813333511 -0.027439231052994725
v -0.012899997644126424 0.08639924228191376 -0.02665675804018974
v -0.012200000695884236 0.0869525820016861 -0.025222130119800564
v -0.012200000695884236 0.0869525820016861 -0.025222130119800564
v -0.012899997644126424 0.08639924228191376 -0.02665675804018974
v -0.012899997644126424 0.08596276491880417 -0.025708744302392002
v -0.01370000373572112 0.08403334021568298 -0.0271903034299612
v -0.012899997644126424 0.08596276491880417 -0.025708744302392002
v -0.012899997644126424 0.08639924228191376 -0.02665675804018974
v -0.0032245840411633275 0.011358801275491714 -0.014731991104781626
v 0.002427977742627265 0.011480906046926975 -0.014792303554713724
v 0.0031999994534999154 0.011191305704414845 -0.014648415148258207
v 0.002427977742627265 0.011480906046926975 -0.014792303554713724
v 0.01179999578744174 0.01013796217739582 -0.014100021682679651
v 0.0031999994534999154 0.011191305704414845 -0.014648415148258207
v 0.003863428952172401 0.01073320209980011 -0.014414798468351362
v 0.0031999994534999154 0.011191305704414845 -0.014648415148258207
v 0.01179999578744174 0.01013796217739582 -0.014100021682679651
v 0.0031999994534999154 0.011191305704414845 -0.014648415148258207
v 0.003863428952172401 0.01073320209980011 -0.014414798468351362
v -0.0042627402581274535 0.01073382142931223 -0.014415116980671881
v -0.0032245840411633275 0.011358801275491714 -0.014731991104781626
v 0.0031999994534999154 0.011191305704414845 -0.014648415148258207
v -0.0042627402581274535 0.01073382142931223 -0.014415116980671881
v -0.012899997644126424 0.08664923906326294 -0.02797472663223743
v -0.012899997644126424 0.08648621290922165 -0.026943869888782498
v -0.012200000695884236 0.08770433813333511 -0.027439231052994725
v -0.012899997644126424 0.08639924228191376 -0.02665675804018974
v -0.012200000695884236 0.08770433813333511 -0.027439231052994725
v -0.012899997644126424 0.08648621290922165 -0.026943869888782498
v -0.012899997644126424 0.08639924228191376 -0.02665675804018974
v -0.012899997644126424 0.08648621290922165 -0.026943869888782498
v -0.01370000373572112 0.08403334021568298 -0.0271903034299612
v -0.01370000373572112 0.08403334021568298 -0.0271903034299612
v -0.012899997644126424 0.08648621290922165 -0.026943869888782498
v -0.01370000373572112 0.08424317091703415 -0.02846727333962917
v -0.012899997644126424 0.08664923906326294 -0.02797472663223743
v -0.01370000373572112 0.08424317091703415 -0.02846727333962917
v -0.012899997644126424 0.08648621290922165 -0.026943869888782498
v -0.012200000695884236 0.0013006514636799693 0.0058573312126100055
v 0.01179999578744174 0.0013006514636799693 0.0058573312126100055
v -0.012200000695884236 0.08331030607223511 -0.0224253237247467
v -0.012200000695884236 0.08331030607223511 -0.0224253237247467
v 0.01179999578744174 0.0013006514636799693 0.0058573312126100055
v 0.01179999578744174 0.08331030607223511 -0.0224253237247467
v 0.01179999578744174 0.0013006514636799693 0.0058573312126100055
v -0.012200000695884236 0.0013006514636799693 0.0058573312126100055
v -0.012200000695884236 -0.0010398620506748557 0.0059092054143548
v 0.01179999578744174 0.0013006514636799693 0.0058573312126100055
v -0.012200000695884236 -0.0010398620506748557 0.0059092054143548
v 0.01179999578744174 -0.0010398620506748557 0.0059092054143548
v -0.012200000695884236 -0.00491372961550951 0.003443146357312798
v 0.01179999578744174 -0.00491372961550951 0.003443146357312798
v 0.01179999578744174 -0.0032220601569861174 0.005061457864940166
v -0.012200000695884236 -0.00491372961550951 0.003443146357312798
v 0.01179999578744174 -0.0032220601569861174 0.005061457864940166
v -0.012200000695884236 -0.0032220601569861174 0.005061457864940166
v -0.012200000695884236 -0.0010398620506748557 0.0059092054143548
v 0.01179999578744174 -0.0032220601569861174 0.005061457864940166
v 0.01179999578744174 -0.0010398620506748557 0.0059092054143548
v 0.01179999578744174 -0.0032220601569861174 0.005061457864940166
v -0.012200000695884236 -0.0010398620506748557 0.0059092054143548
v -0.012200000695884236 -0.0032220601569861174 0.005061457864940166
v -0.012200000695884236 -0.005857331212610006 0.0013006505323573945
v -0.012200000695884236 -0.005909205414354801 -0.0010398591402918098
v 0.01179999578744174 -0.005909205414354801 -0.0010398591402918098
v 0.01179999578744174 -0.005857331212610006 0.0013006505323573945
v -0.012200000695884236 -0.005857331212610006 0.0013006505323573945
v 0.01179999578744174 -0.005909205414354801 -0.0010398591402918098
v 0.01179999578744174 -0.005857331212610006 0.0013006505323573945
v 0.01179999578744174 -0.00491372961550951 0.003443146357312798
v -0.012200000695884236 -0.005857331212610006 0.0013006505323573945
v -0.012200000695884236 -0.00491372961550951 0.003443146357312798
v -0.012200000695884236 -0.005857331212610006 0.0013006505323573945
v 0.01179999578744174 -0.00491372961550951 0.003443146357312798
v 0.007300002034753566 0.06494026631116867 -0.02992078103125095
v 0.01179999578744174 0.018768036738038063 -0.017531964927911755
v -0.012200000695884236 0.018768036738038063 -0.017531964927911755
v -0.007699998561292892 0.06494026631116867 -0.02992078103125095
v 0.007300002034753566 0.06494026631116867 -0.02992078103125095
v -0.012200000695884236 0.018768036738038063 -0.017531964927911755
v 0.007300002034753566 0.06494026631116867 -0.02992078103125095
v -0.007699998561292892 0.06494026631116867 -0.02992078103125095
v -0.012200000695884236 0.08020050078630447 -0.03401536494493484
v 0.007300002034753566 0.06494026631116867 -0.02992078103125095
v -0.012200000695884236 0.08020050078630447 -0.03401536494493484
v 0.01179999578744174 0.08020050078630447 -0.03401536494493484
v -0.012200000695884236 -0.005909205414354801 -0.0010398591402918098
v 0.01179999578744174 -0.005061454139649868 -0.003222059458494186
v 0.01179999578744174 -0.005909205414354801 -0.0010398591402918098
v -0.012200000695884236 -0.005061454139649868 -0.003222059458494186
v 0.01179999578744174 -0.005061454139649868 -0.003222059458494186
v -0.012200000695884236 -0.005909205414354801 -0.0010398591402918098
v 0.01179999578744174 -0.0034431484527885914 -0.0049137300811707965
v 0.01179999578744174 -0.005061454139649868 -0.003222059458494186
v -0.012200000695884236 -0.0034431484527885914 -0.0049137300811707965
v -0.012200000695884236 -0.0034431484527885914 -0.0049137300811707965
v 0.01179999578744174 -0.005061454139649868 -0.003222059458494186
v -0.012200000695884236 -0.005061454139649868 -0.003222059458494186
v 0.01179999578744174 0.018768036738038063 -0.017531964927911755
v 0.01179999578744174 0.014353055506944656 -0.016067314893007275
v -0.012200000695884236 0.018768036738038063 -0.017531964927911755
v 0.01179999578744174 0.014353055506944656 -0.016067314893007275
v -0.012200000695884236 0.014353055506944656 -0.016067314893007275
v -0.012200000695884236 0.018768036738038063 -0.017531964927911755
v 0.01179999578744174 -0.0034431484527885914 -0.0049137300811707965
v -0.012200000695884236 -0.0034431484527885914 -0.0049137300811707965
v -0.012200000695884236 0.006179760675877333 -0.011656687594950197
v 0.01179999578744174 0.006179760675877333 -0.011656687594950197
v 0.01179999578744174 -0.0034431484527885914 -0.0049137300811707965
v -0.012200000695884236 0.006179760675877333 -0.011656687594950197
v 0.01179999578744174 0.08331030607223511 -0.0224253237247467
v -0.012200000695884236 0.08540961146354675 -0.023461479693651196
v -0.012200000695884236 0.08331030607223511 -0.0224253237247467
v 0.01179999578744174 0.08540961146354675 -0.023461479693651196
v -0.012200000695884236 0.08540961146354675 -0.023461479693651196
v 0.01179999578744174 0.08331030607223511 -0.0224253237247467
v -0.012200000695884236 0.08540961146354675 -0.023461479693651196
v 0.01179999578744174 0.08540961146354675 -0.023461479693651196
v 0.01179999578744174 0.0869525820016861 -0.025222130119800564
v -0.012200000695884236 0.08540961146354675 -0.023461479693651196
v 0.01179999578744174 0.0869525820016861 -0.025222130119800564
v -0.012200000695884236 0.0869525820016861 -0.025222130119800564
v 0.01179999578744174 0.0869525820016861 -0.025222130119800564
v -0.012200000695884236 0.08770433813333511 -0.027439231052994725
v -0.012200000695884236 0.0869525820016861 -0.025222130119800564
v 0.01179999578744174 0.0869525820016861 -0.025222130119800564
v 0.01179999578744174 0.08770433813333511 -0.027439231052994725
v -0.012200000695884236 0.08770433813333511 -0.027439231052994725
v -0.012200000695884236 0.08020050078630447 -0.03401536494493484
v 0.01179999578744174 0.08253651857376099 -0.03416928276419639
v 0.01179999578744174 0.08020050078630447 -0.03401536494493484
v 0.01179999578744174 0.08253651857376099 -0.03416928276419639
v -0.012200000695884236 0.08020050078630447 -0.03401536494493484
v -0.012200000695884236 0.08253651857376099 -0.03416928276419639
v -0.012200000695884236 0.0847536101937294 -0.03341752663254737
v 0.01179999578744174 0.08253651857376099 -0.03416928276419639
v -0.012200000695884236 0.08253651857376099 -0.03416928276419639
v 0.01179999578744174 0.08253651857376099 -0.03416928276419639
v -0.012200000695884236 0.0847536101937294 -0.03341752663254737
v 0.01179999578744174 0.0847536101937294 -0.03341752663254737
v -0.012200000695884236 0.08651426434516907 -0.03187454864382743
v 0.01179999578744174 0.08651426434516907 -0.03187454864382743
v -0.012200000695884236 0.0847536101937294 -0.03341752663254737
v 0.01179999578744174 0.0847536101937294 -0.03341752663254737
v -0.012200000695884236 0.0847536101937294 -0.03341752663254737
v 0.01179999578744174 0.08651426434516907 -0.03187454864382743
v -0.012200000695884236 0.08770433813333511 -0.027439231052994725
v 0.01179999578744174 0.08770433813333511 -0.027439231052994725
v 0.01179999578744174 0.08755041658878326 -0.029775248840451237
v -0.012200000695884236 0.08770433813333511 -0.027439231052994725
v 0.01179999578744174 0.08755041658878326 -0.029775248840451237
v -0.012200000695884236 0.08755041658878326 -0.029775248840451237
v -0.012200000695884236 0.08651426434516907 -0.03187454864382743
v 0.01179999578744174 0.08755041658878326 -0.029775248840451237
v 0.01179999578744174 0.08651426434516907 -0.03187454864382743
v -0.012200000695884236 0.08651426434516907 -0.03187454864382743
v -0.012200000695884236 0.08755041658878326 -0.029775248840451237
v 0.01179999578744174 0.08755041658878326 -0.029775248840451237
v 0.01330000627785922 0.08278543502092361 -0.030498284846544262
v 0.01330000627785922 0.08378641307353973 -0.029678078368306157
v 0.01330000627785922 0.07926762849092484 -0.027973415330052372
v 0.01330000627785922 0.08321312814950943 -0.02618933282792568
v 0.01330000627785922 0.08200232684612274 -0.025732569396495816
v 0.01330000627785922 0.07926762849092484 -0.027973415330052372
v 0.01330000627785922 0.08072535693645477 -0.02594240382313728
v 0.01330000627785922 0.07972438633441925 -0.026762610301375386
v 0.01330000627785922 0.07926762849092484 -0.027973415330052372
v 0.01330000627785922 0.08150847256183624 -0.030708119273185727
v 0.01330000627785922 0.07926762849092484 -0.027973415330052372
v 0.01330000627785922 0.08029766380786896 -0.030251357704401013
v 0.01330000627785922 0.08321312814950943 -0.02618933282792568
v 0.01330000627785922 0.07926762849092484 -0.027973415330052372
v 0.01330000627785922 0.08403334021568298 -0.0271903034299612
v 0.01330000627785922 0.08424317091703415 -0.02846727333962917
v 0.01330000627785922 0.07926762849092484 -0.027973415330052372
v 0.01330000627785922 0.08378641307353973 -0.029678078368306157
v 0.01330000627785922 0.08424317091703415 -0.02846727333962917
v 0.01330000627785922 0.08403334021568298 -0.0271903034299612
v 0.01330000627785922 0.07926762849092484 -0.027973415330052372
v 0.01330000627785922 0.08072535693645477 -0.02594240382313728
v 0.01330000627785922 0.07926762849092484 -0.027973415330052372
v 0.01330000627785922 0.08200232684612274 -0.025732569396495816
v 0.01330000627785922 0.079477459192276 -0.02925038523972034
v 0.01330000627785922 0.08029766380786896 -0.030251357704401013
v 0.01330000627785922 0.07926762849092484 -0.027973415330052372
v 0.01330000627785922 0.08278543502092361 -0.030498284846544262
v 0.01330000627785922 0.07926762849092484 -0.027973415330052372
v 0.01330000627785922 0.08150847256183624 -0.030708119273185727
v 0.01179999578744174 0.014353055506944656 -0.016067314893007275
v -0.0019999991636723293 0.011579957790672779 -0.014840847812592982
v -0.012200000695884236 0.014353055506944656 -0.016067314893007275
v 0.0016000022878870379 0.011579957790672779 -0.014840847812592982
v -0.0019999991636723293 0.011579957790672779 -0.014840847812592982
v 0.01179999578744174 0.014353055506944656 -0.016067314893007275
v -0.012200000695884236 0.006179760675877333 -0.011656687594950197
v 0.004799996968358759 0.00874420441687107 -0.0133114717900753
v 0.01179999578744174 0.006179760675877333 -0.011656687594950197
v -0.005200000945478681 0.00874420441687107 -0.0133114717900753
v 0.004799996968358759 0.00874420441687107 -0.0133114717900753
v -0.012200000695884236 0.006179760675877333 -0.011656687594950197
v -0.013749997131526479 -0.0024877735413610935 0.0002469288592692464
v -0.013749997131526479 -0.0002469291794113815 -0.0024877761024981733
v -0.013749997131526479 -0.0014577334513887763 -0.0020310126710683103
v -0.013749997131526479 -0.0002469291794113815 -0.0024877761024981733
v -0.013749997131526479 -0.0024877735413610935 0.0002469288592692464
v -0.013749997131526479 0.001030039507895708 -0.002277940977364778
v -0.013749997131526479 0.002031012438237667 -0.0014577343827113507
v -0.013749997131526479 -0.0024877735413610935 0.0002469288592692464
v -0.013749997131526479 0.002487772610038519 -0.0002469278697390109
v -0.013749997131526479 -0.0020310136023908854 0.001457733567804098
v -0.013749997131526479 -0.0010300406720489264 0.002277940278872847
v -0.013749997131526479 -0.0024877735413610935 0.0002469288592692464
v -0.013749997131526479 0.002031012438237667 -0.0014577343827113507
v -0.013749997131526479 0.001030039507895708 -0.002277940977364778
v -0.013749997131526479 -0.0024877735413610935 0.0002469288592692464
v -0.013749997131526479 0.002277941210195422 0.0010300404392182825
v -0.013749997131526479 0.002487772610038519 -0.0002469278697390109
v -0.013749997131526479 -0.0024877735413610935 0.0002469288592692464
v -0.013749997131526479 -0.0010300406720489264 0.002277940278872847
v -0.013749997131526479 0.0002469281025696546 0.0024877754040062423
v -0.013749997131526479 -0.0024877735413610935 0.0002469288592692464
v -0.013749997131526479 0.0014577324036508799 0.0020310117397457357
v -0.013749997131526479 0.002277941210195422 0.0010300404392182825
v -0.013749997131526479 -0.0024877735413610935 0.0002469288592692464
v -0.013749997131526479 0.0014577324036508799 0.0020310117397457357
v -0.013749997131526479 -0.0024877735413610935 0.0002469288592692464
v -0.013749997131526479 0.0002469281025696546 0.0024877754040062423
v -0.013749997131526479 -0.002277942141517997 -0.001030041370540857
v -0.013749997131526479 -0.0024877735413610935 0.0002469288592692464
v -0.013749997131526479 -0.0014577334513887763 -0.0020310126710683103
usemtl DefaultMaterial
f 1 2 3
f 4 5 6
f 7 8 9
f 10 11 12
f 13 14 15
f 16 17 18
f 19 20 21
f 22 23 24
f 25 26 27
f 28 29 30
f 31 32 33
f 34 35 36
f 37 38 39
f 40 41 42
f 43 44 45
f 46 47 48
f 49 50 51
f 52 53 54
f 55 56 57
f 58 59 60
f 61 62 63
f 64 65 66
f 67 68 69
f 70 71 72
f 73 74 75
f 76 77 78
f 79 80 81
f 82 83 84
f 85 86 87
f 88 89 90
f 91 92 93
f 94 95 96
f 97 98 99
f 100 101 102
f 103 104 105
f 106 107 108
f 109 110 111
f 112 113 114
f 115 116 117
f 118 119 120
f 121 122 123
f 124 125 126
f 127 128 129
f 130 131 132
f 133 134 135
f 136 137 138
f 139 140 141
f 142 143 144
f 145 146 147
f 148 149 150
f 151 152 153
f 154 155 156
f 157 158 159
f 160 161 162
f 163 164 165
f 166 167 168
f 169 170 171
f 172 173 174
f 175 176 177
f 178 179 180
f 181 182 183
f 184 185 186
f 187 188 189
f 190 191 192
f 193 194 195
f 196 197 198
f 199 200 201
f 202 203 204
f 205 206 207
f 208 209 210
f 211 212 213
f 214 215 216
f 217 218 219
f 220 221 222
f 223 224 225
f 226 227 228
f 229 230 231
f 232 233 234
f 235 236 237
f 238 239 240
f 241 242 243
f 244 245 246
f 247 248 249
f 250 251 252
f 253 254 255
f 256 257 258
f 259 260 261
f 262 263 264
f 265 266 267
f 268 269 270
f 271 272 273
f 274 275 276
f 277 278 279
f 280 281 282
f 283 284 285
f 286 287 288
f 289 290 291
f 292 293 294
f 295 296 297
f 298 299 300
f 301 302 303
f 304 305 306
f 307 308 309
f 310 311 312
f 313 314 315
f 316 317 318
f 319 320 321
f 322 323 324
f 325 326 327
f 328 329 330
f 331 332 333
f 334 335 336
f 337 338 339
f 340 341 342
f 343 344 345
f 346 347 348
f 349 350 351
f 352 353 354
f 355 356 357
f 358 359 360
f 361 362 363
f 364 365 366
f 367 368 369
f 370 371 372
f 373 374 375
f 376 377 378
f 379 380 381
f 382 383 384
f 385 386 387
f 388 389 390
f 391 392 393
f 394 395 396
f 397 398 399
f 400 401 402
f 403 404 405
f 406 407 408
f 409 410 411
f 412 413 414
f 415 416 417
f 418 419 420
f 421 422 423
f 424 425 426
f 427 428 429
f 430 431 432
f 433 434 435
f 436 437 438
f 439 440 441
f 442 443 444
f 445 446 447
f 448 449 450
f 451 452 453
f 454 455 456
f 457 458 459
f 460 461 462
f 463 464 465
f 466 467 468
f 469 470 471
f 472 473 474
f 475 476 477
f 478 479 480
f 481 482 483
f 484 485 486
f 487 488 489
f 490 491 492
f 493 494 495
f 496 497 498
f 499 500 501
f 502 503 504
f 505 506 507
f 508 509 510
f 511 512 513
f 514 515 516
f 517 518 519
f 520 521 522
f 523 524 525
f 526 527 528
f 529 530 531
f 532 533 534
f 535 536 537
f 538 539 540
f 541 542 543
f 544 545 546
f 547 548 549
f 550 551 552
f 553 554 555
f 556 557 558
f 559 560 561
f 562 563 564
f 565 566 567
f 568 569 570
f 571 572 573
f 574 575 576
f 577 578 579
f 580 581 582
f 583 584 585
f 586 587 588
f 589 590 591
f 592 593 594
f 595 596 597
f 598 599 600
f 601 602 603
f 604 605 606
f 607 608 609
f 610 611 612
f 613 614 615
f 616 617 618
f 619 620 621
f 622 623 624
f 625 626 627
f 628 629 630
f 631 632 633
f 634 635 636
f 637 638 639
f 640 641 642
f 643 644 645
f 646 647 648
f 649 650 651
f 652 653 654
f 655 656 657
f 658 659 660
f 661 662 663
f 664 665 666
f 667 668 669
f 670 671 672
f 673 674 675
f 676 677 678
f 679 680 681
f 682 683 684
f 685 686 687
f 688 689 690
f 691 692 693
f 694 695 696
